<svg xmlns="http://www.w3.org/2000/svg" viewBox="0 0 160 61">
    <path fill="black" d="M130.75 0c5.428 0 10.297 2.81 13.011 7.512l14.214 24.618-.013-.006c2.599 4.504 2.707 9.933.28 14.514-2.618 4.944-7.862 8.014-13.679 8.014h-31.811c-.452 0-.873-.242-1.103-.636a1.268 1.268 0 0 1 0-1.275l3.919-6.78c.223-.394.65-.636 1.102-.636h28.288a5.622 5.622 0 0 0 4.925-2.848 5.615 5.615 0 0 0 0-5.69L135.669 12.17a5.621 5.621 0 0 0-4.925-2.848 5.621 5.621 0 0 0-4.925 2.848l-14.214 24.618a6.269 6.269 0 0 0-.319.644c-.019.05-.044.096-.069.14l-9.493 16.445-.823 1.312-2.529 4.39a1.27 1.27 0 0 1-1.103.636h-7.83c-.452 0-.873-.241-1.102-.636-.23-.395-.23-.88 0-1.275l2.188-3.79H66.803c-3.32 0-6.454-1.122-8.818-3.168a17.141 17.141 0 0 1-3.394-3.96 1.261 1.261 0 0 1-.091-.136L34.2 12.189a5.622 5.622 0 0 0-4.925-2.85 5.621 5.621 0 0 0-4.924 2.85L10.137 36.806a5.615 5.615 0 0 0 0 5.69 5.63 5.63 0 0 0 4.925 2.84h29.862a1.276 1.276 0 0 1 1.102 1.912l-3.912 6.778a1.27 1.27 0 0 1-1.102.638H14.495c-3.32 0-6.454-1.128-8.817-3.173-5.906-5.103-7.36-12.883-3.62-19.362L16.267 7.505C18.872 3 23.517.198 28.697.007 28.88 0 29.052 0 29.23 0c5.378 0 10.45 3.007 13.246 7.85l12.986 22.373L68.58 7.506C71.186 3 75.83.198 81.01.006 81.196 0 81.369 0 81.547 0c4.453 0 8.71 2.04 11.672 5.588.337.408.388.981.127 1.446l-3.765 6.6a1.268 1.268 0 0 1-2.205.007l-.847-1.465a5.623 5.623 0 0 0-4.926-2.849 5.622 5.622 0 0 0-4.924 2.849L62.464 36.794a5.614 5.614 0 0 0 0 5.69 5.628 5.628 0 0 0 4.925 2.841H95.91L117.76 7.486C120.474 2.804 125.335 0 130.75 0Z"/>
</svg>
