<?xml version="1.0" encoding="UTF-8"?>
<svg xmlns="http://www.w3.org/2000/svg" xmlns:xlink="http://www.w3.org/1999/xlink" viewBox="0 0 150 150">
  <path fill="none" d="M0,0H150V150H0V0Z"/>
  <path fill="currentColor" d="M139.64,33.21l-4.65,69.05L90.49,11.71l49.15,21.49h0Zm-30.82,89.29l-33.62,18.13-33.62-18.13,6.84-15.66h53.57l6.84,15.66ZM75.2,46.08l17.62,40.47H57.57l17.62-40.47h0ZM15.36,102.25L10.75,33.21,59.91,11.71,15.37,102.26h0Z"/>
  <path fill="currentColor" d="M139.64,33.21l-4.65,69.05L90.49,11.71l49.15,21.49h0Zm-30.82,89.29l-33.62,18.13-33.62-18.13,6.84-15.66h53.57l6.84,15.66ZM75.2,46.08l17.62,40.47H57.57l17.62-40.47h0ZM15.36,102.25L10.75,33.21,59.91,11.71,15.37,102.26h0Z"/>
</svg>
