<svg viewBox="0 0 256 260" role="img" xmlns="http://www.w3.org/2000/svg">
 <path d="M 112.861 120.125 L 162.725 159.403 L 129.713 77.927 L 112.861 120.125 Z M 189.227 181.933 C 189.227 187.315 184.879 191.044 179.906 191.044 C 177.422 191.044 175.511 190.076 172.863 187.935 L 107.024 134.745 L 84.962 190.01 L 65.897 190.01 L 121.63 55.97 C 123.079 52.446 126.189 50.581 129.713 50.581 C 133.231 50.581 136.13 52.446 137.579 55.97 L 188.358 178.172 C 188.918 179.667 189.227 181.057 189.227 181.933 Z M 127.566 0 C 57.116 0 0 57.116 0 127.566 C 0 198.021 57.116 255.131 127.566 255.131 C 198.022 255.131 255.132 198.021 255.132 127.566 C 255.132 57.116 198.022 0 127.566 0 Z" fill="currentColor" transform="matrix(0.9999999999999999, 0, 0, 0.9999999999999999, 0, 0)"/>
</svg>