<?xml version="1.0" encoding="utf-8"?>
<svg viewBox="-421.0708 -411.8287 799.7302 803.1536"  xmlns="http://www.w3.org/2000/svg" xmlns:xlink="http://www.w3.org/1999/xlink">
    <symbol id="apache-flink-icon-symbol-1" viewBox="-54.045 -54.277 108.089 108.554">
        <g>
            <g>
                <g>
                    <polygon fill="currentColor" points="33.523,18.33 33.521,18.326 33.523,18.326 &#9;&#9;&#9;&#9;"/>
                    <path fill="currentColor"
                          d="M38.856-5.782c-0.82-1.612-0.57-2.881,0.743-3.958c0.926-0.759,2.038-0.969,3.2-0.945&#10;&#9;&#9;&#9;&#9;&#9;c0.467,0.01,0.928,0.087,1.393,0.107c0.253,0.012,0.514-0.004,0.762-0.058c0.467-0.104,0.676-0.034,0.836,0.414&#10;&#9;&#9;&#9;&#9;&#9;c0.363,1.026,0.535,2.088,0.411,3.17c-0.058,0.518-0.167,1.051-0.37,1.527c-0.809,1.89-3.262,2.665-5.074,1.635&#10;&#9;&#9;&#9;&#9;&#9;c-0.229-0.132-0.452-0.289-0.66-0.459c-0.219-0.18-0.422-0.387-0.652-0.6c0.104-0.121,0.186-0.232,0.283-0.331&#10;&#9;&#9;&#9;&#9;&#9;c0.221-0.225,0.303-0.491,0.236-0.791c-0.209-0.938,0.199-1.604,0.982-2.031c0.559-0.306,1.172-0.524,1.779-0.729&#10;&#9;&#9;&#9;&#9;&#9;c0.314-0.104,0.639-0.18,0.966-0.25c0.103,0.004,0.144,0.021,0.221,0.083c0.492,0.316,0.841,0.734,1.056,1.273&#10;&#9;&#9;&#9;&#9;&#9;c0.118-0.317,0.094-0.852-0.01-1.244c-0.062-0.247-0.021-0.842,0.103-1.018c-0.011-0.009-0.019-0.021-0.027-0.032&#10;&#9;&#9;&#9;&#9;&#9;c-0.057,0.031-0.114,0.057-0.169,0.091c-0.627,0.387-1.328,0.507-2.045,0.595c-0.885,0.114-1.748,0.317-2.5,0.828&#10;&#9;&#9;&#9;&#9;&#9;c-0.908,0.611-1.394,1.465-1.444,2.562C38.872-5.907,38.865-5.874,38.856-5.782z M43.138-5.661c0-0.66-0.536-1.199-1.199-1.199&#10;&#9;&#9;&#9;&#9;&#9;c-0.661,0-1.2,0.539-1.2,1.199c0,0.664,0.539,1.199,1.2,1.199C42.602-4.461,43.138-4.997,43.138-5.661z"/>
                </g>
            </g>
            <g>
                <g>
                    <path fill="currentColor"
                          d="M28.794,3.406c0,0.067,0.004,0.138,0.004,0.208c-0.027,0.049-0.064,0.097-0.088,0.146&#10;&#9;&#9;&#9;&#9;&#9;C28.78,3.656,28.81,3.529,28.794,3.406z"/>
                    <path fill="currentColor"
                          d="M31.331,11.523c-0.023,0-0.049-0.004-0.072-0.004c-0.012-0.026-0.024-0.058-0.039-0.082&#10;&#9;&#9;&#9;&#9;&#9;C31.248,11.464,31.294,11.495,31.331,11.523z"/>
                </g>
            </g>
            <path fill="currentColor"
                  d="M52.999-39.423c0.059,0.381,0.123,0.739,0.191,1.099c0.15,0.798,0.305,1.626,0.361,2.473&#10;&#9;&#9;&#9;c0.191,2.991-0.746,5.609-2.785,7.786l0.071,0.321c0.098,0.456,0.217,1.025,0.284,1.58c0.172,1.374-0.269,2.606-1.349,3.774&#10;&#9;&#9;&#9;c-0.033,0.036-0.069,0.073-0.088,0.104c-0.263,0.789-0.831,1.421-1.679,1.848c-0.499,0.252-1.023,0.44-1.568,0.562&#10;&#9;&#9;&#9;c0.652,0.269,1.307,0.597,1.975,0.996c0.077,0.046,0.111,0.055,0.111,0.055c2.178,0.334,3.893,2.011,4.273,4.174&#10;&#9;&#9;&#9;c0.008,0.052,0.014,0.1,0.021,0.15c0.011,0.093,0.022,0.194,0.034,0.226c0.859,1.325,1.016,2.825,0.461,4.442&#10;&#9;&#9;&#9;c-0.182,0.523-0.405,1.046-0.604,1.506c-0.156,0.362-0.308,0.716-0.441,1.069c-0.156,0.403-0.327,0.851-0.363,1.26&#10;&#9;&#9;&#9;c-0.103,1.137-0.27,2.633-0.682,4.122c-0.861,3.098-2.357,5.525-4.577,7.421c-2.026,1.735-4.188,2.477-7.111,2.913&#10;&#9;&#9;&#9;c0.397-0.625-0.131-0.906,0.152-1.596c0.114-0.282,0.145-0.544,0.144-0.803c4.998-1.708,8.775-6.258,9.412-11.728&#10;&#9;&#9;&#9;c0.018-0.16,0.035-0.323,0.048-0.486c0.036-0.45,0.075-0.915,0.222-1.372c0.168-0.529,0.412-1.022,0.646-1.498&#10;&#9;&#9;&#9;c0.098-0.197,0.195-0.393,0.286-0.595c0.083-0.18,0.169-0.36,0.255-0.539c0.178-0.373,0.379-0.796,0.539-1.212&#10;&#9;&#9;&#9;c0.143-0.368,0.193-0.746,0.152-1.125c-0.008,0.004-0.192,0.15-0.273,0.209c-0.072,0.055-0.146,0.114-0.218,0.17&#10;&#9;&#9;&#9;c-0.215,0.171-0.444,0.355-0.705,0.499c-0.185,0.103-0.378,0.153-0.575,0.153c-0.338,0-0.645-0.146-0.886-0.422l-0.396-0.451&#10;&#9;&#9;&#9;l0.575-0.454l0.306-0.27c0.504-0.45,0.984-0.876,1.457-1.309c-0.061-0.734-0.326-1.355-0.79-1.827&#10;&#9;&#9;&#9;c-0.579-0.587-1.174-0.775-1.796-0.87c-0.701-0.106-1.201,0.219-1.201,0.219s-0.388-2.124-4.784-2.13l-0.269,0.002&#10;&#9;&#9;&#9;c-1.293,0-2.539-0.36-3.923-1.134c-1.821-1.509-5.908-1.355-5.908-1.355c-1.149,0.191-2.228,0.485-3.269,0.898&#10;&#9;&#9;&#9;c-1.921,0.769-3.612,1.858-4.924,3.482c-0.707,0.871-1.236,1.838-1.598,2.901c-0.034,0.097-0.074,0.189-0.111,0.287&#10;&#9;&#9;&#9;c-0.02-1.035,0.199-2.011,0.643-2.934c0.904-1.854,2.395-3.069,4.26-3.867c1.617-0.692,3.314-0.928,5.062-0.843l0.369-0.414&#10;&#9;&#9;&#9;c0.179-0.196,0.369-0.258,0.496-0.289c0.713-0.17,1.467-0.252,2.304-0.252c0.323,0,2.286,0.451,4.287-0.559&#10;&#9;&#9;&#9;c0.181-0.091,0.423-0.198,0.712-0.198c0.148,0,0.292,0.025,0.434,0.079l0.221,0.084c0.475,0.179,1.403,0.56,1.403,0.56&#10;&#9;&#9;&#9;c5.721,1.259,6.536-3.066,6.536-3.066c-0.148,0.065-0.322,0.121-0.516,0.121c-0.225,0-0.436-0.075-0.627-0.218l-0.65-0.494&#10;&#9;&#9;&#9;l0.977-0.614c0.202-0.125,0.383-0.238,0.559-0.358c0.224-0.152,0.312-0.361,0.301-0.699c-0.026-0.882-1.056-1.779-2.036-1.779&#10;&#9;&#9;&#9;c-0.112,0-0.22,0.011-0.321,0.034c-0.4,0.088-0.619,0.219-0.749,0.444c-0.112,0.194-0.372,0.4-0.679,0.4l-0.26-0.011&#10;&#9;&#9;&#9;c-0.311-0.015-0.629-0.026-0.951-0.101l-0.074-0.017c-0.434-0.098-0.836-0.19-1.23-0.19c-0.141,0-0.271,0.014-0.402,0.039&#10;&#9;&#9;&#9;c-0.187,0.034-0.37,0.078-0.556,0.125l-0.868,0.206l-0.146-0.519c-0.221-0.768-0.576-1.458-1.092-2.113&#10;&#9;&#9;&#9;c-1.109-1.409-2.596-2.406-4.544-3.044c-1.436-0.472-2.988-0.71-4.609-0.71c-0.856,0-1.757,0.066-2.681,0.197&#10;&#9;&#9;&#9;c-3.486,0.5-5.921,2.393-7.233,5.627c-0.218,0.534-0.372,1.125-0.522,1.695c-0.084,0.322-0.16,0.624-0.248,0.922&#10;&#9;&#9;&#9;c-0.46,1.565-1.043,2.954-1.781,4.246c-1.36,2.375-3.049,4.068-5.163,5.183c-1.698,0.893-3.552,1.345-5.513,1.345&#10;&#9;&#9;&#9;c-0.814,0-1.665-0.077-2.526-0.229c-0.356-0.064-0.718-0.1-1.071-0.231c-1.86-0.712-2.093-1.038-2.093-1.038l0.899-0.054&#10;&#9;&#9;&#9;c0.149-0.008,0.476-0.053,0.805-0.096c0.363-0.047,0.73-0.095,0.889-0.102c0.627-0.03,1.223-0.059,1.811-0.121&#10;&#9;&#9;&#9;c2.465-0.248,4.708-1.004,6.664-2.243c2.629-1.667,4.24-3.729,4.922-6.301c0.421-1.583,1.021-3.163,1.781-4.692&#10;&#9;&#9;&#9;c0.455-0.909,1.032-1.961,1.879-2.868c1.199-1.287,2.734-2.161,4.824-2.75c0.559-0.156,1.108-0.33,1.574-0.479&#10;&#9;&#9;&#9;c0.055-0.015,0.111-0.047,0.169-0.197c0.261-0.675,0.323-1.332,0.19-2.006c-0.205-1.052-0.712-2.03-1.548-2.995&#10;&#9;&#9;&#9;c-0.665-0.764-1.525-1.348-2.36-1.911c-0.463-0.311-0.895-0.64-1.293-0.977c-0.494-0.423-0.75-0.99-0.724-1.596&#10;&#9;&#9;&#9;c0.022-0.5,0.061-1.336,0.911-1.336c0.183,0,0.395,0.043,0.726,0.153c0.142,0.046,0.281,0.104,0.42,0.163l0.735,0.319&#10;&#9;&#9;&#9;c0.41,0.175,0.821,0.353,1.23,0.526c0.822,0.34,1.625,0.515,2.392,0.515c0.401,0,0.806-0.046,1.198-0.143&#10;&#9;&#9;&#9;c1.123-0.269,2.149-0.882,2.385-1.769c0,0,0.784-3.402-4.865-3.359c-0.456,0-0.92,0.109-1.413,0.229l-0.265,0.062&#10;&#9;&#9;&#9;c-0.539,0.126-1.021,0.186-1.476,0.188c-0.429,0-0.823-0.074-1.204-0.146l-0.175-0.03c-1.127-0.205-2.336-0.298-3.917-0.298&#10;&#9;&#9;&#9;c-0.707,0-33.621,0.029-33.621,0.029c-2.967,0-5.783,0.417-8.368,1.094c-10.759,2.814-18.417,8.839-23.413,18.029&#10;&#9;&#9;&#9;c-1.813,3.342-3.053,6.948-3.691,10.79c0.033-0.056,0.295-0.909,0.295-0.909c1.486-2.53,3.287-4.529,3.287-4.529&#10;&#9;&#9;&#9;s-4.087,10.853-4.088,11.325c-0.004,1.488,0.088,3.008,0.271,4.524c0.115-0.38,0.235-0.753,0.366-1.125&#10;&#9;&#9;&#9;c1.831-5.219,4.608-10.106,8.487-14.949c0.095-0.116,0.17-0.252,0.209-0.373c0.599-1.841,1.411-3.593,2.416-5.221&#10;&#9;&#9;&#9;c-2.271,0.466-5.514,3.66-5.514,3.66l0.422-0.812c2.535-4.888,8.506-7.864,9.674-8.288c3.423-3.041,7.58-5.245,12.35-6.555&#10;&#9;&#9;&#9;c0.27-0.074,0.543-0.138,0.814-0.2l2.33-0.556l-1.488,1.441c-0.171,0.167-0.355,0.231-0.469,0.271&#10;&#9;&#9;&#9;c-3.379,1.206-6.471,2.906-9.188,5.049c-3.551,2.797-6.105,6.223-7.596,10.171c-0.18,0.474-0.16,0.721-0.076,0.943&#10;&#9;&#9;&#9;c0.08,0.216,0.137,0.436,0.191,0.648c0.038,0.154,0.065,0.263,0.098,0.367c0.791,2.582,1.982,4.603,3.65,6.169&#10;&#9;&#9;&#9;c1.555,1.466,3.544,2.541,6.087,3.286c2.421,0.712,4.976,1.039,7.446,1.354l1.077,0.139c1.397,0.182,2.809,0.401,4.173,0.61&#10;&#9;&#9;&#9;l0.711,0.111c-0.924-1.188-1.725-2.462-2.385-3.806c-0.168-0.055-5.186-1.184-5.785-1.311c-7.969-1.7-8.507-6.762-8.507-6.762&#10;&#9;&#9;&#9;s3.44,4.559,11.714,4.807l0.289,0.003c0.335-0.004,0.664-0.015,1.01-0.03c-2.295-11.986,2.152-16.15,2.115-16.014&#10;&#9;&#9;&#9;c-1.008,3.831-1.26,7.316-0.771,10.659c0.629,4.334,2.541,8.068,5.676,11.101c2.132,2.062,4.818,3.795,8.208,5.302&#10;&#9;&#9;&#9;C0.043-9.932,3.147-9.136,6.073-8.43l0.561,0.132c2.141,0.516,4.314,1.039,6.43,1.66c3.275,0.96,6.125,2.542,8.467,4.704&#10;&#9;&#9;&#9;c0.356,0.329,0.763,0.701,1.105,1.147c1.658,2.148,3.539,3.779,5.711,4.99c0.299-1.371,1.086-2.661,2.369-3.444&#10;&#9;&#9;&#9;c-1.349,2.311-2.031,4.666-1.393,6.841c0.608,1.945,1.617,2.922,2.688,4.801c1.273,2.455,1.41,5.939,1.431,5.961&#10;&#9;&#9;&#9;c0.234,0.241,0.397,0.478,0.639,0.714c0.296,0.295,0.571,0.585,0.862,0.884c0.861,0.892,1.494,2.005,1.758,3.337&#10;&#9;&#9;&#9;c0.277,1.388-0.355,2.13-0.355,2.13c0.234,0.854,0.546,1.691,0.611,2.547c0.12,1.594-0.37,3.065-0.592,3.065&#10;&#9;&#9;&#9;c-0.109,0-2.045-2.207-3.109-2.62c-0.252,1.516-0.641,3.052-1.246,4.971c-0.454,1.443-0.58,2.627-0.397,3.731&#10;&#9;&#9;&#9;c0.138,0.824,1.139,1.972,1.139,1.972l0.464,0.547l-0.639,0.326c-0.105,0.062-0.927,0.245-1.203,0.245&#10;&#9;&#9;&#9;c-0.805,0-1.465-0.289-1.942-0.843c-0.097,0.657-0.11,1.321-0.048,1.991c0.105,1.155,0.566,2.215,0.952,3.013&#10;&#9;&#9;&#9;c0.118,0.242,0.265,0.562,0.367,0.906c0.121,0.422,0.062,0.82-0.167,1.128c-0.229,0.307-0.594,0.474-1.026,0.474&#10;&#9;&#9;&#9;c-0.374-0.006-0.712-0.064-1.004-0.176c-1.312-0.494-2.337-1.333-3.058-2.495c-0.236,0.271-0.454,0.571-0.586,0.933&#10;&#9;&#9;&#9;c-0.176,0.479-0.401,0.925-0.618,1.335c-0.181,0.347-0.425,0.521-0.722,0.521c-0.214,0-0.376-0.093-0.495-0.198&#10;&#9;&#9;&#9;c-0.376,1.009-0.995,1.859-1.841,2.533c-0.055,0.044-0.109,0.078-0.189,0.126l-1.143,0.701c0,0,0.225-1.47,0.225-1.471&#10;&#9;&#9;&#9;c-2.929,1.9-6.164,3.28-9.628,4.104c-0.276,0.065-0.556,0.12-0.835,0.175c-0.84,0.166-1.619,0.318-2.295,0.739&#10;&#9;&#9;&#9;c-0.082,0.054-0.163,0.075-0.2,0.085c-0.098,0.04-0.233,0.065-0.358,0.065c-0.264,0-0.528-0.113-0.75-0.34&#10;&#9;&#9;&#9;c-0.349,0.008-0.74,0.035-1.087,0.067L4.605,53.6c-0.057,0.006-0.495,0.006-0.559,0.006l-0.604-0.271c0,0-1.455,0.941-1.969,0.941&#10;&#9;&#9;&#9;H0.992c-0.378,0-0.718-0.245-0.897-0.55c-0.146-0.246-0.365-0.177-0.437-0.179c-2.411-0.15-4.721-0.504-6.86-1.035&#10;&#9;&#9;&#9;c-3.765-0.935-6.908-2.338-9.605-4.278c-2.359-1.697-4.091-3.567-5.295-5.711c-0.266-0.474-0.475-0.967-0.673-1.441&#10;&#9;&#9;&#9;c-0.244-0.573-0.269-1.095-0.103-1.604c0.176-0.523,0.599-0.847,1.107-0.847c0.063,0,0.131,0.006,0.197,0.017&#10;&#9;&#9;&#9;c0.26,0.042,0.52,0.062,0.773,0.062c1.202,0,2.374-0.447,3.691-1.404c1.411-1.025,2.412-2.312,2.973-3.815&#10;&#9;&#9;&#9;c0.803-2.159,0.438-4.166-1.088-5.968c-0.48,1.596-1.119,2.798-2.01,3.772c-0.625,0.688-1.361,1.208-2.185,1.543&#10;&#9;&#9;&#9;c-0.129,0.054-0.257,0.088-0.392,0.106l-0.215,0.03c0,0,1.045-2.365,1.174-3.355c0.271-2.129-0.011-5.117-2.08-5.695&#10;&#9;&#9;&#9;c-0.624-0.174-1.221-0.429-1.832-0.642c-1.102-0.382-2.242-0.778-3.363-1.195c-3.146-1.173-5.946-2.488-8.549-4.022&#10;&#9;&#9;&#9;c0.012,0.222,0.042,0.443,0.072,0.676l0.041,0.34c0.012,0.049,0.021,0.088,0.024,0.126c0.062,0.472-0.013,0.824-0.226,1.068&#10;&#9;&#9;&#9;c-0.165,0.188-0.405,0.293-0.674,0.293c-0.211,0-0.441-0.062-0.704-0.189c-0.354-0.172-0.711-0.461-1.007-0.813&#10;&#9;&#9;&#9;c-0.749-0.9-1.201-1.905-1.671-3.03c-0.11-0.271-0.214-0.541-0.316-0.815l-0.019-0.061c-0.095-0.248-0.189-0.505-0.292-0.749&#10;&#9;&#9;&#9;c-0.058-0.13-0.139-0.25-0.22-0.319c-2.814-2.391-4.943-4.599-6.7-6.941c-1.366-1.82-2.563-3.739-3.568-5.716&#10;&#9;&#9;&#9;c-0.146,1.527-0.137,3.043,0.017,4.612c0,0-2.934-2.368-2.285-10.002c0.002-0.012,0.002-0.068-0.039-0.205&#10;&#9;&#9;&#9;C-53.096-6.335-53.645-9-53.877-11.58c-0.846-9.451,1.512-18.2,7.005-25.769c5.847-8.06,13.777-13.487,23.571-15.753&#10;&#9;&#9;&#9;c2.598-0.604,5.469-1.169,9.606-1.169c0,0,16.235,0,17.264,0l23.565,0.047c0,0,2.766,0.001,4.344,0.856&#10;&#9;&#9;&#9;c1.343,0.729,2.111,1.459,2.66,2.735c0.848,1.971,0.123,4.488-1.688,5.811c-1.075,0.786-2.348,1.181-3.892,1.181&#10;&#9;&#9;&#9;c-0.146,0-0.291,0.005-0.439-0.001c-0.154-0.008-0.31-0.019-0.462-0.032c1.201,1.224,2.023,2.673,2.449,4.312&#10;&#9;&#9;&#9;c0.189,0.734,0.25,1.5,0.184,2.271l-0.005,0.04l0.368,0.019c0.824,0.037,1.654,0.075,2.473,0.136&#10;&#9;&#9;&#9;c-0.271-0.35-0.48-0.753-0.627-1.207c-0.404-1.273-0.572-2.338-0.53-3.339c0.073-1.763,0.744-3.417,1.985-4.906&#10;&#9;&#9;&#9;c0.963-1.15,2.141-2.074,3.599-2.814c-0.142-0.614-0.106-1.244,0.11-1.863c0.17-0.47,0.479-0.85,0.924-1.099&#10;&#9;&#9;&#9;c0.493-0.275,1.028-0.445,1.59-0.445c0.201,0,0.414-0.04,0.642,0.012c0.892-1.972,3.062-1.707,3.062-1.707&#10;&#9;&#9;&#9;c1.785,0.411,2.4,2.096,2.221,3.461c-0.025,0.163-0.053,0.34-0.09,0.498l0.095,0.035c0.472,0.112,0.962,0.237,1.447,0.406&#10;&#9;&#9;&#9;c3.295,1.146,5.418,3.396,6.315,6.686C54.273-41.707,53.978-40.44,52.999-39.423z M28.391,12.486&#10;&#9;&#9;&#9;C23.349-1.556,11.564-3.452,10.369-3.452l-5.546,0.12L6.3-4.328l0.375-0.147c0.176-0.073,0.336-0.139,0.507-0.188&#10;&#9;&#9;&#9;C7.329-4.706,7.48-4.747,7.626-4.788c-0.746-0.157-1.51-0.31-2.258-0.417c-2.01-0.286-4.381-0.676-6.73-1.389&#10;&#9;&#9;&#9;c-0.105-0.03-0.215-0.048-0.318-0.048l-0.061,0.003c-2.189,0.148-4.381,0.308-6.57,0.47c-1.332,0.095-2.555,0.141-3.732,0.141&#10;&#9;&#9;&#9;c-1.408,0-2.721-0.064-4.01-0.2c-2.898-0.307-5.766-1.001-8.521-2.067c-7.928-3.377-12.145-7.889-12.145-7.889&#10;&#9;&#9;&#9;s8.486,4.309,11.455,5.441c2.842,1.082,5.109,1.354,8.405,1.337c1.47-0.009,6.21-0.015,9.005-0.08&#10;&#9;&#9;&#9;c-0.66-0.389-1.292-0.798-1.896-1.244c-0.501-0.369-1.048-0.646-1.676-0.884c-0.47-0.176-0.974-0.355-1.49-0.517&#10;&#9;&#9;&#9;c-2.17-0.687-4.459-1.085-6.67-1.474c0,0-0.905-0.159-1.312-0.23c-2.147-0.388-4.434-0.804-6.685-1.304&#10;&#9;&#9;&#9;c-2.229-0.491-4.166-1.214-5.922-2.213c-3.229-1.834-5.141-4.599-5.686-8.22c-0.939,1.774-1.493,3.51-1.689,5.287&#10;&#9;&#9;&#9;c-0.333,2.963,0.553,5.493,2.623,7.518c0.152,0.151,0.248,0.33,0.324,0.485c0.111,0.226,0.217,0.454,0.32,0.683&#10;&#9;&#9;&#9;c0.182,0.399,0.389,0.854,0.627,1.245c0.917,1.506,2.229,2.788,4.129,4.037c1.937,1.271,4.219,2.331,7.178,3.332&#10;&#9;&#9;&#9;c4.076,1.377,8.314,2.275,12.293,3.038c1.504,0.289,3.012,0.574,4.52,0.859l0.367,0.068c1.773,0.334,3.547,0.668,5.32,1.015&#10;&#9;&#9;&#9;c3.105,0.603,5.587,1.394,7.814,2.489c3.524,1.736,6.198,3.591,8.408,5.836c1.775,0.057,3.363,0.221,4.877,0.508&#10;&#9;&#9;&#9;c4.044,0.767,7.884,2.297,11.426,4.55C29.074,14.359,28.726,13.419,28.391,12.486z M32.269,25.391&#10;&#9;&#9;&#9;c0.49,0.238,1.053,0.399,1.595,0.557c0,0,0.339,0.099,0.474,0.139c-0.029-0.152-0.061-0.293-0.105-0.429&#10;&#9;&#9;&#9;c-0.833-2.552-2.285-4.821-4.319-6.748c-1.312-1.241-2.923-2.261-5.222-3.306c-1.932-0.879-4.021-1.604-6.477-2.245&#10;&#9;&#9;&#9;c0.705,0.204,1.409,0.45,2.106,0.742c3.61,1.498,6.913,3.771,10.099,6.947c0.045,0.043,0.081,0.092,0.116,0.145l0.977,1.344&#10;&#9;&#9;&#9;l-1.586-0.452c-0.182-0.054-0.308-0.136-0.408-0.205c-2.694-1.87-5.154-3.374-7.519-4.597c-1.481-0.767-3.362-1.613-5.25-2.1&#10;&#9;&#9;&#9;c-0.038-0.01-0.227-0.019-0.227-0.029v0.005c0,0.711,0.348,1.404,0.879,2.071c0.388,0.489,1.126,1.099,1.666,1.511&#10;&#9;&#9;&#9;c1.637,1.246,3.43,2.25,4.941,3.037c-0.553-0.711-1.131-1.276-1.914-1.666c0,0,0.909-0.957,2.09-0.532&#10;&#9;&#9;&#9;c1.348,0.485,1.974,0.954,2.85,1.685c0.49,0.412,0.977,0.83,1.459,1.25c0.566,0.489,1.268,1.098,1.949,1.652&#10;&#9;&#9;&#9;C30.934,24.562,31.581,25.06,32.269,25.391z M25.768,40.066c0.452,1.719,0.982,2.95,1.698,3.987&#10;&#9;&#9;&#9;c0.331,0.474,0.673,0.823,1.053,1.079c-0.018-0.04-0.075-0.178-0.075-0.178c-1.046-2.551-1.558-5.255-1.567-8.275&#10;&#9;&#9;&#9;c-0.002-0.441-0.055-0.892-0.103-1.292c-0.28-2.386-1.628-4.326-2.449-5.2C24.525,33.957,24.989,37.124,25.768,40.066z&#10;&#9;&#9;&#9; M-21.222,19.147c0.896,0.852,1.666,1.586,2.229,2.231c0.972,1.125,1.499,2.483,1.915,3.667c0.023,0.067,0.044,0.134,0.067,0.199&#10;&#9;&#9;&#9;c0.499-1.281,0.606-2.396,0.358-3.542c-0.658-3.04-1.885-5.365-3.747-7.104c-0.028-0.024,3.106,0.166,5.634,2.93&#10;&#9;&#9;&#9;c2.408,2.631,3.68,5.811,3.857,9.379c0.066,1.373-0.09,2.726-0.243,4.035l-0.062,0.53c-0.47,4.134-3.54,7.583-7.646,8.583&#10;&#9;&#9;&#9;c-0.277,0.068-0.518,0.157-0.718,0.262c-0.098,0.051-0.122,0.064-0.064,0.221c0.03,0.085,0.078,0.179,0.149,0.291&#10;&#9;&#9;&#9;c0.65,1.011,1.48,1.841,2.465,2.469c0.578,0.367,1.133,0.718,1.662,1.098c2.276,1.629,4.548,2.738,6.946,3.398&#10;&#9;&#9;&#9;c0.839,0.231,1.744,0.338,2.636,0.455c0.767,0.101,3.36,0.101,3.36,0.101s-0.898,1.718-3.8,1.767&#10;&#9;&#9;&#9;c-0.094,0.001-0.189,0.004-0.285,0.004c-0.152,0-0.305-0.004-0.455-0.012c0.082,0.028,0.162,0.054,0.249,0.08&#10;&#9;&#9;&#9;c1.239,0.374,2.521,0.556,3.922,0.556c0.461,0,0.938-0.021,1.421-0.062l0.149-0.013c0.53-0.042,1.009-0.042,1.391-0.306&#10;&#9;&#9;&#9;c1.761-1.218,3.272-1.278,3.272-1.278l-0.207,0.736l-0.135,0.338l-0.035,0.097c-0.061,0.161-0.105,0.285-0.17,0.408&#10;&#9;&#9;&#9;s-0.131,0.249-0.197,0.372c0.113-0.042,0.225-0.09,0.33-0.139c0.724-0.342,1.443-0.43,2.051-0.472&#10;&#9;&#9;&#9;c0.959-0.064,1.801-0.151,2.572-0.263c1.101-0.159,1.927-0.728,2.46-1.695c0.16-0.288,0.342-0.562,0.48-0.808&#10;&#9;&#9;&#9;c0.597-1.048,1.862-1.149,1.862-1.149l-0.396,0.914l-0.383,1.312c0.194-0.155,0.411-0.313,0.554-0.537&#10;&#9;&#9;&#9;c0.696-1.095,2.333-1.218,2.333-1.218l-0.285,1.714c0.11-0.068,5.516-2.043,5.803-4.229c0.006-0.119,0.002-1.681,0.002-1.681&#10;&#9;&#9;&#9;s1,2.035,1.162,2.528c0.242-0.215,1.017-0.979,1.561-2.52c0.147-0.418,0.277-0.8,0.434-1.179c0.103-0.248,0.188-0.472,0.305-0.671&#10;&#9;&#9;&#9;c0.057-0.1,0.024-0.195,0.077-0.292c-0.501-1.672-0.544-3.489-0.563-5.876c-0.006-0.564,0.007-1.128,0.007-1.693v-0.24&#10;&#9;&#9;&#9;c0-1.094-0.032-2.329-0.052-3.534c-0.051-3.337-0.786-4.548-0.786-4.548l0.183,0.067c0.194,0.062,0.343,0.127,0.492,0.204&#10;&#9;&#9;&#9;c0.688,0.354,1.309,0.879,1.91,1.597c1.18,1.412,1.909,3.006,2.525,4.518c0.439,1.085,0.908,2.233,1.397,3.389&#10;&#9;&#9;&#9;c1.789-4.396-2.405-8.154-2.405-8.154s3.24,1.748,4.133,3.492c0,0,0.776-2.145-2.701-3.681c-1.645-0.729-3.341-1.44-5.02-2.049&#10;&#9;&#9;&#9;l-0.992-0.363c-0.402-0.147-0.824-0.365-1.254-0.646c-0.223-0.146-0.439-0.314-0.648-0.51c0.271,1.11,0.717,2.046,1.238,2.938&#10;&#9;&#9;&#9;c0.814,1.391,1.194,3.17,1.4,4.084l0.182,0.805c0,0-1.033-1.271-1.729-1.66c0.023,0.143,0.053,0.278,0.096,0.406&#10;&#9;&#9;&#9;c0.824,2.394,0.645,4.313,0.645,4.313s-1.261-0.901-1.29-0.938c0.428,2.72-0.083,4.229-0.083,4.229s-0.994-2.853-1.805-3.419&#10;&#9;&#9;&#9;c-0.382,0.988-1.041,1.901-1.4,2.253c-1.11,1.083-1.762,3.813-1.762,3.813s-1.135-0.695-1.143-0.734&#10;&#9;&#9;&#9;c0.082,0.204,0.123,0.938-0.201,2.403c0,0-1.092-1.118-1.102-1.222c0,0-0.825,2.58-1.027,2.58c-0.068,0-0.398-1.108-0.48-1.318&#10;&#9;&#9;&#9;c-0.01,0.114-0.854,2.224-0.869,1.735c-0.013-0.417-0.475-1.345-1.254-0.954c-3.021,1.511-6.283,2.592-9.717,2.861&#10;&#9;&#9;&#9;c-8.482,0.666-10.529-1.67-10.939-2.188c0,0,3.949,0.994,9.117,0.227c3.349-0.496,6.559-1.556,9.537-3.181&#10;&#9;&#9;&#9;c2.111-1.151,3.836-2.434,5.242-3.903c-0.339-1.75-10.964-1.199-10.964-1.199s2.676-2.353,10.249-1.182&#10;&#9;&#9;&#9;c0.91,0.143,1.625-0.224,2.283-0.723c0.252-0.195,0.376-0.54,0.312-0.718c-0.051-0.152-0.312-0.176-0.464-0.176&#10;&#9;&#9;&#9;c-0.092,0-0.19,0.01-0.297,0.023c-0.234,0.034-0.345,0.044-0.424,0.044c-0.359,0,8.059-6.004,0.729-16.298&#10;&#9;&#9;&#9;c-1.522-2.14-6.018-4.624-8.396-5.444c7.681,8.931,0.414,15.037-1.49,16.427c-1.67,1.223-3.674,2.155-6.301,2.937&#10;&#9;&#9;&#9;c-0.316,0.093-0.639,0.181-0.976,0.271l-2.408,0.665l1.377-1.5c0.034-0.043,0.107-0.126,0.235-0.182&#10;&#9;&#9;&#9;c0.086-0.036,0.168-0.068,0.249-0.099c1.687-0.658,3.049-1.388,4.202-2.246c1.937-1.443,11.174-7.479,0.443-18.132&#10;&#9;&#9;&#9;c-0.373-0.37-1.348-0.912-1.523-0.972c2.883,4.864,0.447,8.609,0.447,8.609s-1.326-4.865-2.1-6.211&#10;&#9;&#9;&#9;C-3.239,8.047-4.46,6.743-5.73,6.281c2.003,3.925,0.019,6.146,0.019,6.146L-6.2,10.806c-0.331-1.096-0.663-1.75-1.323-2.59&#10;&#9;&#9;&#9;c-1.248-1.59-2.705-2.96-4.334-4.071c-1.162-0.795-2.314-1.404-3.525-1.868c-1.992-0.764-4.113-1.278-6.162-1.776l-0.812-0.198&#10;&#9;&#9;&#9;c-2.448-0.599-4.435-1.111-6.252-1.621c-1.033-0.29-1.913-0.664-2.681-1.146c-0.125,0.542-0.239,1.251-0.244,1.829&#10;&#9;&#9;&#9;C-31.645,9.232-25.122,15.438-21.222,19.147z M-38.985,7.492c0.242,1.74,0.572,3.79,1.166,5.803&#10;&#9;&#9;&#9;c0.252,0.854,0.605,1.927,1.164,2.949c-0.35-1.396-0.637-2.73-0.879-5.508c-0.031-0.375-0.104-1.861-0.104-1.861&#10;&#9;&#9;&#9;s1.854,8.093,10.348,8.99c-1.723-2.59-3.123-5.311-4.168-8.1c-0.941-2.512-1.529-4.923-1.793-7.368&#10;&#9;&#9;&#9;c-0.194-1.8-0.198-3.558-0.016-5.224c-0.103-0.07-0.204-0.141-0.31-0.212c-0.601,2.89-0.825,5.506-0.683,7.994&#10;&#9;&#9;&#9;c0.113,2.017,0.865,7.162,0.865,7.162c-0.223-0.317-1.156-1.826-1.349-2.229c-1.214-2.521-1.86-5.402-1.979-8.812&#10;&#9;&#9;&#9;c-0.085-2.404,0.108-4.867,0.591-7.525c-0.208,0.038-0.459,0.129-0.767,0.279l-0.034,0.018l-0.104,0.098&#10;&#9;&#9;&#9;c-0.146,0.137-0.297,0.28-0.42,0.432c-0.492,0.592-0.879,1.312-1.19,2.195c-0.646,1.857-0.742,3.773-0.751,5.402&#10;&#9;&#9;&#9;C-39.403,3.656-39.269,5.458-38.985,7.492z M-41.823,8.023c-0.097-0.752-0.188-1.5-0.251-2.245&#10;&#9;&#9;&#9;c-0.21-2.471-0.112-4.658,0.296-6.688c0.359-1.773,0.923-3.129,1.777-4.26c0.595-0.788,1.258-1.372,2.021-1.777&#10;&#9;&#9;&#9;c-0.894-1.057-1.66-2.185-2.288-3.359c-0.326,0.442-0.559,0.858-0.715,1.292l-0.609,1.673c0,0-2.46-3.188-0.956-8.48l-0.088,0.13&#10;&#9;&#9;&#9;c-0.579,0.835-1.179,1.699-1.727,2.578c-1.964,3.141-3.405,6.224-4.405,9.421c-0.014,0.04-0.017,0.078-0.014,0.092&#10;&#9;&#9;&#9;C-47.227,0.675-44.887,4.587-41.823,8.023z M-49.132-8.623c1.527-3.339,3.494-6.708,6.189-10.599&#10;&#9;&#9;&#9;c0.062-0.086,0.084-0.157,0.088-0.272c0.059-1.205,0.114-2.218,0.197-3.233c0.004-0.007,0.004-0.014,0.004-0.021&#10;&#9;&#9;&#9;c-3.818,4.659-6.234,9.962-7.2,15.811C-49.64-7.479-49.399-8.039-49.132-8.623z M49.087-47.226&#10;&#9;&#9;&#9;c-1.305-0.726-3.268-0.898-4.949-0.898c-0.42,0-0.873,0.025-1.347,0.08c-0.092,0.011-0.179,0.018-0.265,0.018&#10;&#9;&#9;&#9;c-0.369,0-0.804,0.02-1.031-0.275c-0.316-0.414-0.5-1.383,1.56-1.358c0.101,0.003,1.146,0.146,1.582-0.621&#10;&#9;&#9;&#9;c0.349-0.614,0.119-1.644-0.146-1.933c-1.033-1.125-2.848,0.557-2.848,0.557c-0.391,0-1.387-0.314-2.442,0.74&#10;&#9;&#9;&#9;c-1.056,1.057,0.196,3.348-0.226,3.536c-0.405,0.162-0.52,0.211-0.906,0.413c-2.23,1.157-5.211,3.737-3.768,7.289&#10;&#9;&#9;&#9;c1.175-2.938,5.383-4.417,7.371-4.746c5.652-0.931,9.713,0.642,9.8,0.675C51.55-44.938,50.02-46.707,49.087-47.226z&#10;&#9;&#9;&#9; M50.981-36.016c-0.102-1.012-0.309-1.98-0.549-3.052c-0.312-1.401-1.163-2.322-2.526-2.734c-0.578-0.174-1.217-0.253-2.01-0.253&#10;&#9;&#9;&#9;c-1.337,0-2.679,0.176-4.133,0.538c-1.441,0.358-2.38,0.726-3.135,1.225c-0.938,0.618-1.5,1.367-1.725,2.293&#10;&#9;&#9;&#9;c-0.167,0.694-0.085,1.402,0.003,1.941c0.007,0.032,0.011,0.056,0.013,0.056c0.006,0,0.027,0.011,0.074,0.03&#10;&#9;&#9;&#9;c2.633,1.051,4.449,2.667,5.555,4.938c0.062,0.133,0.113,0.159,0.229,0.171c0.328,0.035,0.618,0.055,0.888,0.055&#10;&#9;&#9;&#9;c0.768,0,1.412-0.146,1.975-0.444c0.387-0.203,0.791-0.308,1.202-0.308c0.408,0,0.827,0.102,1.245,0.306&#10;&#9;&#9;&#9;c0.303,0.148,0.588,0.322,0.848,0.521c0.156,0.118,0.306,0.247,0.455,0.379C50.656-31.989,51.193-33.894,50.981-36.016z"/>
            <g>
                <g>
                    <path fill="currentColor"
                          d="M34.525,0.882c1.176,0.739,1.3,1.919,1.3,1.919c0.424,1.837-1.338,4.871-1.902,6.417&#10;&#9;&#9;&#9;&#9;&#9;c-0.459,1.267-0.871,3.433-0.531,4.744c1.411-0.426,3.166-1.721,4.189-2.839c1.103-1.208,2.004-2.96,1.862-4.574&#10;&#9;&#9;&#9;&#9;&#9;c-0.061-0.653-0.37-1.491-0.839-2.322c-0.2-0.362-0.1-1.131,0.569-1.134c0.505-0.002,0.736,0.077,1.121,0.589&#10;&#9;&#9;&#9;&#9;&#9;c1.344,1.792,1.538,3.41-0.236,5.78c-1.28,1.706-2.655,2.914-4.357,4.178c-0.481,0.358-1.335,0.77-1.933,0.894&#10;&#9;&#9;&#9;&#9;&#9;c-0.653,0.132-1.051-0.185-1.273-0.824c-0.078-0.229-0.127-0.47-0.166-0.713c-0.378-2.14,0.108-4.07,1.155-5.985&#10;&#9;&#9;&#9;&#9;&#9;c1.392-2.541,1.38-3.672,0.121-6.356C33.606,0.655,33.872,0.471,34.525,0.882z"/>
                </g>
            </g>
        </g>
    </symbol>
    <g transform="matrix(1, 0, 0, 1, -637.0330200195312, -502.46044921875)">
        <use width="108.089" height="108.554"
             transform="matrix(7.398799896240234, 0, 0, -7.398799896240234, 215.95999145507812, 893.793701171875)"
             overflow="visible" xlink:href="#apache-flink-icon-symbol-1"/>
    </g>
</svg>