<?xml version="1.0" encoding="utf-8"?>
<svg viewBox="0 0 161.807 207.7736" width="161.807" height="207.7736" xmlns="http://www.w3.org/2000/svg" xmlns:xlink="http://www.w3.org/1999/xlink">
    <linearGradient x1="0" y1="0" x2="1" y2="0" id="apache-maven-icon-gradient-20" gradientUnits="userSpaceOnUse" gradientTransform="matrix(1, 0, 0, 1, 123.149364, 116.368309)" xlink:href="#apache-maven-icon-gradient-11392"/>
    <linearGradient x1="-7708.7969" y1="-803.36011" x2="-7633.1528" y2="-714.90741" id="apache-maven-icon-gradient-10" gradientUnits="userSpaceOnUse" gradientTransform="matrix(0.050121, -0.107489, 0.107489, 0.050121, 631.619102, -764.550527)" xlink:href="#apache-maven-icon-color-1"/>
    <linearGradient x1="-8268.6387" y1="-813.12323" x2="-7728.9585" y2="-813.12323" id="apache-maven-icon-gradient-11" gradientUnits="userSpaceOnUse" gradientTransform="matrix(0.050121, -0.107489, 0.107489, 0.050121, 638.004318, -761.744142)" xlink:href="#apache-maven-icon-color-2"/>
    <linearGradient x1="-8203.4922" y1="-758.99402" x2="-7881.895" y2="-758.99402" id="apache-maven-icon-gradient-12" gradientUnits="userSpaceOnUse" gradientTransform="matrix(0.050121, -0.107489, 0.107489, 0.050121, 659.190406, -763.536364)" xlink:href="#apache-maven-icon-color-3"/>
    <linearGradient x1="-8238.3281" y1="-818.15222" x2="-7698.647" y2="-818.15222" id="apache-maven-icon-gradient-13" gradientUnits="userSpaceOnUse" gradientTransform="matrix(0.050121, -0.107489, 0.107489, 0.050121, 649.33851, -760.056679)" xlink:href="#apache-maven-icon-color-4"/>
    <linearGradient x1="-8198.9678" y1="-810.85059" x2="-7915.3501" y2="-810.85059" id="apache-maven-icon-gradient-14" gradientUnits="userSpaceOnUse" gradientTransform="matrix(0.050121, -0.107489, 0.107489, 0.050121, 663.595126, -759.839253)" xlink:href="#apache-maven-icon-color-5"/>
    <linearGradient x1="-8238.3281" y1="-762.29712" x2="-7698.647" y2="-762.29712" id="apache-maven-icon-gradient-15" gradientUnits="userSpaceOnUse" gradientTransform="matrix(0.050121, -0.107489, 0.107489, 0.050121, 649.236935, -764.102583)" xlink:href="#apache-maven-icon-color-6"/>
    <linearGradient x1="-8271.8057" y1="-765.07068" x2="-7732.125" y2="-765.07068" id="apache-maven-icon-gradient-16" gradientUnits="userSpaceOnUse" gradientTransform="matrix(0.050121, -0.107489, 0.107489, 0.050121, 637.909164, -765.011608)" xlink:href="#apache-maven-icon-color-7"/>
    <linearGradient x1="-8238.3281" y1="-745.68481" x2="-7698.647" y2="-745.68481" id="apache-maven-icon-gradient-17" gradientUnits="userSpaceOnUse" gradientTransform="matrix(0.050121, -0.107489, 0.107489, 0.050121, 647.671211, -765.443018)" xlink:href="#apache-maven-icon-color-8"/>
    <linearGradient x1="-8238.3281" y1="-747.58557" x2="-7698.647" y2="-747.58557" id="apache-maven-icon-gradient-18" gradientUnits="userSpaceOnUse" gradientTransform="matrix(0.050121, -0.107489, 0.107489, 0.050121, 645.601779, -765.546014)" xlink:href="#apache-maven-icon-color-9"/>
    <linearGradient x1="-7935.1431" y1="-747.9668" x2="-7815.856" y2="-747.9668" id="apache-maven-icon-gradient-19" gradientUnits="userSpaceOnUse" gradientTransform="matrix(-0.635779, -0.010837, -0.975151, 0.239235, -5566.108321, 137.139278)" xlink:href="#apache-maven-icon-color-10"/>
    <linearGradient x1="-7708.7969" y1="-803.36011" x2="-7633.1528" y2="-714.90741" id="apache-maven-icon-gradient-5344" gradientUnits="userSpaceOnUse" gradientTransform="matrix(0.05669, -0.121577, 0.121577, 0.05669, 735.826681, -865.600594)" xlink:href="#apache-maven-icon-color-1"/>
    <linearGradient x1="-8268.6387" y1="-813.12323" x2="-7728.9585" y2="-813.12323" id="apache-maven-icon-gradient-1" gradientUnits="userSpaceOnUse" gradientTransform="matrix(0.05669, -0.121577, 0.121577, 0.05669, 734.546477, -866.928171)" xlink:href="#apache-maven-icon-color-2"/>
    <linearGradient x1="-8203.4922" y1="-758.99402" x2="-7881.895" y2="-758.99402" id="apache-maven-icon-gradient-2" gradientUnits="userSpaceOnUse" gradientTransform="matrix(0.05669, -0.121577, 0.121577, 0.05669, 729.18377, -868.616588)" xlink:href="#apache-maven-icon-color-3"/>
    <linearGradient x1="-8238.3281" y1="-818.15222" x2="-7698.647" y2="-818.15222" id="apache-maven-icon-gradient-3" gradientUnits="userSpaceOnUse" gradientTransform="matrix(0.05669, -0.121577, 0.121577, 0.05669, 731.943099, -868.478831)" xlink:href="#apache-maven-icon-color-4"/>
    <linearGradient x1="-8198.9678" y1="-810.85059" x2="-7915.3501" y2="-810.85059" id="apache-maven-icon-gradient-4" gradientUnits="userSpaceOnUse" gradientTransform="matrix(0.05669, -0.121577, 0.121577, 0.05669, 728.477406, -869.963286)" xlink:href="#apache-maven-icon-color-5"/>
    <linearGradient x1="-8238.3281" y1="-762.29712" x2="-7698.647" y2="-762.29712" id="apache-maven-icon-gradient-5" gradientUnits="userSpaceOnUse" gradientTransform="matrix(0.05669, -0.121577, 0.121577, 0.05669, 731.561813, -867.478852)" xlink:href="#apache-maven-icon-color-6"/>
    <linearGradient x1="-8271.8057" y1="-765.07068" x2="-7732.125" y2="-765.07068" id="apache-maven-icon-gradient-6" gradientUnits="userSpaceOnUse" gradientTransform="matrix(0.05669, -0.121577, 0.121577, 0.05669, 734.241728, -866.119351)" xlink:href="#apache-maven-icon-color-7"/>
    <linearGradient x1="-8238.3281" y1="-745.68481" x2="-7698.647" y2="-745.68481" id="apache-maven-icon-gradient-7" gradientUnits="userSpaceOnUse" gradientTransform="matrix(0.05669, -0.121577, 0.121577, 0.05669, 731.810295, -866.993689)" xlink:href="#apache-maven-icon-color-8"/>
    <linearGradient x1="-8238.3281" y1="-747.58557" x2="-7698.647" y2="-747.58557" id="apache-maven-icon-gradient-8" gradientUnits="userSpaceOnUse" gradientTransform="matrix(0.05669, -0.121577, 0.121577, 0.05669, 732.306221, -866.760756)" xlink:href="#apache-maven-icon-color-9"/>
    <linearGradient x1="-7935.1431" y1="-747.9668" x2="-7815.856" y2="-747.9668" id="apache-maven-icon-gradient-9" gradientUnits="userSpaceOnUse" gradientTransform="matrix(1.402618, -0.052662, 0.146979, 0.080845, 11351.242892, -305.952476)" xlink:href="#apache-maven-icon-color-10"/>
    <text x="199.613" y="196.188" id="text11870" style="font-style: italic; font-variant: normal; font-weight: bold; font-stretch: normal; font-size: 14px; line-height: 0%; font-family: 'Alte Haas Grotesk'; letter-spacing: 0px; word-spacing: 0px; fill: url('#apache-maven-icon-gradient-20'); fill-opacity: 1; stroke: none; white-space: pre;" transform="matrix(1, 0, 0, 1, 2.842170943040401e-14, 0)"><tspan x="199.613" y="196.188" style="fill: url('#apache-maven-icon-gradient-20'); fill-opacity: 1; font-size: 14px; word-spacing: 0px;"/></text>
    <g transform="matrix(2.726155996322632, 0, 0, 2.726155996322632, -412.201416015625, -31.994491577148438)" style="">
        <path d="M 161.969 18.721 C 160.973 19.314 159.313 20.974 157.344 23.382 L 159.158 26.809 C 160.427 24.983 161.732 23.346 163.037 21.947 C 163.132 21.84 163.191 21.781 163.191 21.781 C 163.143 21.84 163.084 21.887 163.037 21.947 C 162.61 22.409 161.329 23.904 159.396 26.881 C 161.258 26.786 164.116 26.406 166.452 26.003 C 167.152 22.113 165.776 20.334 165.776 20.334 C 165.776 20.334 164.021 17.499 161.969 18.721 Z" style="fill: url('#apache-maven-icon-gradient-10'); transform-box: fill-box; transform-origin: 50% 50%;" transform="matrix(0.806169, -0.591685, 0.591685, 0.806169, 0.000026, 0.000001)"/>
        <path d="M 168.76 37.148 C 168.772 37.148 168.784 37.148 168.796 37.136 L 168.535 37.16 C 168.523 37.172 168.499 37.172 168.487 37.184 C 168.582 37.172 168.677 37.16 168.76 37.148 L 168.76 37.148 Z" style="fill: none; transform-box: fill-box; transform-origin: 50% 50%;" transform="matrix(0.806169, -0.591685, 0.591685, 0.806169, 0.000002, -0.000029)"/>
        <path d="M 170.935 43.244 C 170.792 43.279 170.638 43.303 170.484 43.327 C 170.638 43.303 170.792 43.279 170.935 43.244 Z" style="fill: none; transform-box: fill-box; transform-origin: 50% 50%;" transform="matrix(0.806169, -0.591685, 0.591685, 0.806169, -0.000026, -0.000008)"/>
        <path d="M 163.432 61.316 C 163.456 61.269 163.468 61.21 163.491 61.162 C 163.895 60.107 164.286 59.087 164.677 58.079 C 165.116 56.964 165.555 55.873 165.982 54.817 C 166.433 53.714 166.883 52.635 167.322 51.603 C 167.785 50.512 168.236 49.468 168.686 48.46 C 169.054 47.642 169.41 46.847 169.766 46.076 C 169.884 45.815 170.003 45.566 170.121 45.317 C 170.359 44.819 170.584 44.333 170.809 43.858 C 171.023 43.419 171.224 42.992 171.426 42.565 C 171.497 42.423 171.568 42.281 171.628 42.15 C 171.639 42.127 171.651 42.103 171.663 42.079 L 171.438 42.103 L 171.26 41.759 C 171.248 41.795 171.224 41.83 171.212 41.866 C 170.892 42.494 170.572 43.135 170.264 43.787 C 170.086 44.155 169.908 44.534 169.718 44.914 C 169.22 45.958 168.734 47.001 168.259 48.069 C 167.773 49.136 167.299 50.215 166.836 51.283 C 166.373 52.338 165.935 53.394 165.496 54.449 C 165.057 55.505 164.63 56.549 164.215 57.592 C 163.776 58.684 163.349 59.763 162.946 60.83 C 162.851 61.067 162.756 61.316 162.673 61.554 C 162.341 62.419 162.021 63.262 161.712 64.104 L 161.997 64.661 L 162.246 64.637 C 162.258 64.614 162.27 64.59 162.27 64.566 C 162.638 63.439 163.041 62.36 163.432 61.316 L 163.432 61.316 Z" style="fill: none; transform-box: fill-box; transform-origin: 50% 50%;" transform="matrix(0.806169, -0.591685, 0.591685, 0.806169, -0.00001, 0.000008)"/>
        <path d="M 170.463 43.532 C 170.463 43.532 170.463 43.532 170.463 43.532 C 170.463 43.532 170.463 43.532 170.463 43.532 Z" style="fill:none"/>
        <path d="M 171.856 46.507 C 171.618 46.555 171.381 46.59 171.144 46.626 C 171.144 46.626 171.144 46.626 171.144 46.626 C 171.263 46.614 171.393 46.59 171.512 46.567 C 171.63 46.555 171.749 46.531 171.856 46.507 Z" style="fill: rgb(190, 32, 46); transform-box: fill-box; transform-origin: 50% 50%;" transform="matrix(0.806169, -0.591685, 0.591685, 0.806169, -0.000014, -0.00002)"/>
        <path d="M 171.856 46.507 C 171.618 46.555 171.381 46.59 171.144 46.626 C 171.144 46.626 171.144 46.626 171.144 46.626 C 171.263 46.614 171.393 46.59 171.512 46.567 C 171.63 46.555 171.749 46.531 171.856 46.507 Z" style="opacity: 0.35; fill: rgb(190, 32, 46); transform-box: fill-box; transform-origin: 50% 50%;" transform="matrix(0.806169, -0.591685, 0.591685, 0.806169, -0.000014, -0.00002)"/>
        <path d="M 170.392 43.371 C 170.392 43.371 170.392 43.371 170.392 43.371 C 170.38 43.371 170.38 43.371 170.392 43.371 C 170.428 43.371 170.463 43.36 170.499 43.36 C 170.653 43.336 170.807 43.312 170.949 43.277 C 170.772 43.312 170.582 43.336 170.392 43.371 L 170.392 43.371 Z" style="fill: rgb(190, 32, 46); transform-box: fill-box; transform-origin: 50% 50%;" transform="matrix(0.806169, -0.591685, 0.591685, 0.806169, 0.000011, -0.000012)"/>
        <path d="M 170.392 43.371 C 170.392 43.371 170.392 43.371 170.392 43.371 C 170.38 43.371 170.38 43.371 170.392 43.371 C 170.428 43.371 170.463 43.36 170.499 43.36 C 170.653 43.336 170.807 43.312 170.949 43.277 C 170.772 43.312 170.582 43.336 170.392 43.371 L 170.392 43.371 Z" style="opacity: 0.35; fill: rgb(190, 32, 46); transform-box: fill-box; transform-origin: 50% 50%;" transform="matrix(0.806169, -0.591685, 0.591685, 0.806169, 0.000011, -0.000012)"/>
        <path d="M 160.183 38.464 C 160.74 37.432 161.298 36.424 161.855 35.439 C 162.436 34.419 163.029 33.435 163.634 32.474 C 163.67 32.415 163.705 32.356 163.741 32.308 C 164.334 31.371 164.927 30.47 165.532 29.604 L 163.717 26.189 C 163.587 26.355 163.444 26.521 163.302 26.698 C 162.78 27.351 162.235 28.051 161.677 28.798 C 161.049 29.64 160.408 30.529 159.744 31.466 C 159.139 32.332 158.522 33.245 157.906 34.182 C 157.384 34.989 156.862 35.807 156.34 36.649 C 156.316 36.685 156.304 36.709 156.281 36.744 L 158.641 41.405 C 159.163 40.421 159.673 39.436 160.183 38.464 L 160.183 38.464 Z" style="fill: url('#apache-maven-icon-gradient-11'); transform-box: fill-box; transform-origin: 50% 50%;" transform="matrix(0.806169, -0.591685, 0.591685, 0.806169, 0.000024, 0.000002)"/>
        <path d="M 170.612 62.966 C 170.303 63.82 169.983 64.697 169.675 65.599 C 169.675 65.61 169.663 65.622 169.663 65.634 C 169.615 65.765 169.568 65.883 169.532 66.014 C 169.319 66.619 169.141 67.164 168.714 68.398 C 169.414 68.718 169.971 69.548 170.493 70.497 C 170.434 69.512 170.03 68.587 169.26 67.876 C 172.687 68.03 175.652 67.164 177.17 64.65 C 177.301 64.424 177.431 64.187 177.55 63.938 C 176.85 64.816 175.996 65.195 174.371 65.1 C 174.371 65.1 174.359 65.1 174.359 65.1 C 174.359 65.1 174.371 65.1 174.371 65.1 C 176.755 64.033 177.953 63.001 179.009 61.305 C 179.258 60.902 179.507 60.463 179.756 59.977 C 177.668 62.124 175.249 62.728 172.699 62.266 L 170.789 62.479 C 170.73 62.645 170.671 62.8 170.612 62.966 Z" style="fill: url('#apache-maven-icon-gradient-12'); transform-box: fill-box; transform-origin: 50% 50%;" transform="matrix(0.806169, -0.591685, 0.591685, 0.806169, -0.000013, 0.000003)"/>
        <path d="M 161.65 62.164 C 162.065 61.096 162.492 60.017 162.919 58.926 C 163.334 57.882 163.761 56.839 164.199 55.783 C 164.638 54.727 165.089 53.672 165.54 52.616 C 166.002 51.537 166.477 50.47 166.963 49.402 C 167.437 48.347 167.935 47.291 168.422 46.247 C 168.6 45.868 168.778 45.5 168.967 45.121 C 169.276 44.48 169.596 43.84 169.916 43.199 C 169.928 43.164 169.952 43.128 169.964 43.093 L 167.627 38.443 C 167.592 38.503 167.556 38.574 167.508 38.633 C 166.963 39.535 166.405 40.448 165.872 41.385 C 165.326 42.334 164.792 43.294 164.271 44.279 C 163.832 45.109 163.405 45.939 162.978 46.781 C 162.895 46.947 162.812 47.125 162.729 47.291 C 162.219 48.347 161.744 49.379 161.329 50.363 C 160.855 51.478 160.44 52.545 160.072 53.553 C 159.835 54.217 159.61 54.858 159.408 55.475 C 159.242 55.997 159.088 56.53 158.934 57.052 C 158.578 58.286 158.281 59.519 158.032 60.752 L 160.404 65.437 C 160.713 64.595 161.045 63.753 161.365 62.887 C 161.46 62.65 161.555 62.413 161.65 62.164 L 161.65 62.164 Z" style="fill: url('#apache-maven-icon-gradient-13'); transform-box: fill-box; transform-origin: 50% 50%;" transform="matrix(0.806169, -0.591685, 0.591685, 0.806169, 0.000014, 0.000019)"/>
        <path d="M 172.253 61.136 C 171.957 62.63 171.743 64.125 171.636 65.619 C 171.636 65.667 171.624 65.726 171.624 65.773 C 170.889 64.587 168.897 63.425 168.908 63.437 C 170.332 65.501 171.411 67.54 171.565 69.545 C 170.806 69.699 169.762 69.474 168.564 69.035 C 169.822 70.185 170.759 70.506 171.126 70.589 C 169.976 70.66 168.778 71.454 167.568 72.368 C 169.335 71.644 170.77 71.359 171.79 71.597 C 170.166 76.187 168.541 81.263 166.916 86.647 C 167.414 86.505 167.711 86.161 167.877 85.71 C 168.161 84.738 170.094 78.333 173.107 69.924 C 173.19 69.687 173.285 69.45 173.368 69.201 C 173.392 69.13 173.415 69.07 173.439 68.999 C 173.759 68.122 174.091 67.22 174.435 66.295 C 174.518 66.082 174.589 65.88 174.673 65.667 C 174.673 65.667 174.673 65.655 174.673 65.655 L 172.3 60.97 C 172.277 61.029 172.265 61.077 172.253 61.136 L 172.253 61.136 Z" style="fill: url('#apache-maven-icon-gradient-14'); transform-box: fill-box; transform-origin: 50% 50%;" transform="matrix(0.806169, -0.591685, 0.591685, 0.806169, 0.000019, -0.000014)"/>
        <path d="M 170.253 39.45 C 170.182 39.592 170.123 39.722 170.052 39.865 C 169.85 40.292 169.637 40.719 169.435 41.157 C 169.21 41.632 168.984 42.118 168.747 42.616 C 168.628 42.865 168.51 43.114 168.391 43.375 C 168.035 44.146 167.68 44.941 167.312 45.759 C 166.861 46.767 166.411 47.811 165.948 48.902 C 165.509 49.934 165.059 51.013 164.608 52.116 C 164.181 53.172 163.742 54.251 163.303 55.378 C 162.912 56.374 162.52 57.406 162.117 58.462 C 162.093 58.509 162.082 58.568 162.058 58.616 C 161.666 59.659 161.263 60.739 160.86 61.842 C 160.848 61.865 160.836 61.889 160.836 61.913 L 162.746 61.699 C 162.71 61.687 162.675 61.687 162.627 61.676 C 164.916 61.391 167.952 59.683 169.909 57.572 C 170.811 56.599 171.629 55.461 172.388 54.121 C 172.957 53.124 173.479 52.021 173.989 50.788 C 174.428 49.721 174.855 48.558 175.258 47.301 C 174.736 47.574 174.132 47.775 173.467 47.918 C 173.349 47.942 173.23 47.965 173.112 47.989 C 172.993 48.013 172.874 48.025 172.744 48.048 C 172.744 48.048 172.744 48.048 172.744 48.048 C 174.879 47.23 176.219 45.652 177.192 43.707 C 176.634 44.087 175.721 44.585 174.63 44.834 C 174.487 44.87 174.333 44.893 174.179 44.917 C 174.143 44.917 174.108 44.929 174.06 44.929 C 174.06 44.929 174.06 44.929 174.06 44.929 C 174.06 44.929 174.06 44.929 174.06 44.929 C 174.796 44.621 175.424 44.277 175.97 43.862 C 176.089 43.779 176.195 43.684 176.302 43.589 C 176.468 43.446 176.622 43.292 176.776 43.138 C 176.871 43.031 176.966 42.937 177.061 42.83 C 177.275 42.581 177.476 42.308 177.654 42.011 C 177.713 41.917 177.773 41.834 177.82 41.739 C 177.891 41.596 177.962 41.466 178.022 41.335 C 178.318 40.742 178.555 40.209 178.745 39.734 C 178.84 39.497 178.923 39.284 178.994 39.082 C 179.018 38.999 179.054 38.928 179.077 38.845 C 179.148 38.619 179.22 38.418 179.267 38.24 C 179.338 37.979 179.386 37.765 179.409 37.611 C 179.338 37.671 179.255 37.73 179.16 37.777 C 178.52 38.157 177.417 38.513 176.527 38.679 L 178.283 38.489 L 176.527 38.679 C 176.515 38.679 176.504 38.679 176.492 38.691 C 176.409 38.702 176.314 38.714 176.219 38.738 C 176.231 38.726 176.255 38.726 176.266 38.714 L 170.265 39.367 C 170.277 39.414 170.265 39.438 170.253 39.45 L 170.253 39.45 Z" style="fill: url('#apache-maven-icon-gradient-15'); transform-box: fill-box; transform-origin: 50% 50%;" transform="matrix(0.806169, -0.591685, 0.591685, 0.806169, -0.000006, -0.000007)"/>
        <path d="M 165.686 26.42 C 165.152 27.238 164.571 28.175 163.942 29.219 C 163.907 29.278 163.871 29.326 163.847 29.385 C 163.302 30.298 162.732 31.294 162.127 32.397 C 161.606 33.346 161.06 34.354 160.491 35.457 C 159.993 36.406 159.495 37.414 158.961 38.482 L 164.962 37.829 C 166.706 37.023 167.488 36.299 168.247 35.244 C 168.449 34.959 168.651 34.651 168.852 34.331 C 169.469 33.37 170.074 32.314 170.608 31.259 C 171.129 30.239 171.592 29.231 171.936 28.329 C 172.161 27.748 172.339 27.214 172.47 26.74 C 172.576 26.325 172.659 25.934 172.731 25.554 C 170.406 25.945 167.548 26.325 165.686 26.42 Z" style="fill: url('#apache-maven-icon-gradient-16'); transform-box: fill-box; transform-origin: 50% 50%;" transform="matrix(0.806169, -0.591685, 0.591685, 0.806169, 0.000006, 0.000019)"/>
        <path d="M 171.569 46.672 C 171.451 46.696 171.332 46.708 171.202 46.732 C 171.32 46.708 171.439 46.684 171.569 46.672 Z" style="fill: rgb(190, 32, 46); transform-box: fill-box; transform-origin: 50% 50%;" transform="matrix(0.806169, -0.591685, 0.591685, 0.806169, -0.000016, 0.000018)"/>
        <path d="M 171.569 46.672 C 171.451 46.696 171.332 46.708 171.202 46.732 C 171.32 46.708 171.439 46.684 171.569 46.672 Z" style="opacity: 0.35; fill: rgb(190, 32, 46); transform-box: fill-box; transform-origin: 50% 50%;" transform="matrix(0.806169, -0.591685, 0.591685, 0.806169, -0.000016, 0.000018)"/>
        <path d="M 171.569 46.672 C 171.451 46.696 171.332 46.708 171.202 46.732 C 171.32 46.708 171.439 46.684 171.569 46.672 Z" style="fill: url('#apache-maven-icon-gradient-17'); transform-box: fill-box; transform-origin: 50% 50%;" transform="matrix(0.806169, -0.591685, 0.591685, 0.806169, -0.000016, 0.000018)"/>
        <path d="M 170.449 43.498 C 170.484 43.498 170.52 43.486 170.567 43.486 C 170.532 43.486 170.496 43.498 170.449 43.498 Z" style="fill: rgb(190, 32, 46); transform-box: fill-box; transform-origin: 50% 50%;" transform="matrix(0.806169, -0.591685, 0.591685, 0.806169, 0.000016, 0.000001)"/>
        <path d="M 170.449 43.498 C 170.484 43.498 170.52 43.486 170.567 43.486 C 170.532 43.486 170.496 43.498 170.449 43.498 Z" style="opacity: 0.35; fill: rgb(190, 32, 46); transform-box: fill-box; transform-origin: 50% 50%;" transform="matrix(0.806169, -0.591685, 0.591685, 0.806169, 0.000016, 0.000001)"/>
        <path d="M 170.449 43.498 C 170.484 43.498 170.52 43.486 170.567 43.486 C 170.532 43.486 170.496 43.498 170.449 43.498 Z" style="fill: url('#apache-maven-icon-gradient-18'); transform-box: fill-box; transform-origin: 50% 50%;" transform="matrix(0.806169, -0.591685, 0.591685, 0.806169, 0.000016, 0.000001)"/>
        <path d="M 170.473 43.525 C 170.473 43.525 170.473 43.525 170.473 43.525 C 170.473 43.525 170.473 43.525 170.473 43.525 Z" style="fill:#be202e"/>
        <path d="M 170.473 43.525 C 170.473 43.525 170.473 43.525 170.473 43.525 C 170.473 43.525 170.473 43.525 170.473 43.525 Z" style="opacity:0.35;fill:#be202e"/>
        <path d="M 170.473 43.525 C 170.473 43.525 170.473 43.525 170.473 43.525 C 170.473 43.525 170.473 43.525 170.473 43.525 Z" style="fill:url(#apache-maven-icon-gradient-19)"/>
        <path d="m 161.28828,22.416647 7.3,0 q 1.1,0 2.1,0.1 1,0 1.6,0.4 1,0.7 1,2.6 0.1,1.8 0.4,3.2 0.4,3.3 0.7,6.8 0.3,3.4 0.7,6.8 0.4,2.4 0.6,4.9 0.2,2.5 0.6,4.8 0.1,0.9 0.2,1.9 0.2,1 1.3,1 0.3,-0.2 0.4,-0.2 0.1,-0.1 0.3,-0.3 0.4,-0.5 0.7,-1 0.3,-0.5 0.6,-1.1 0.8,-1.1 1.2,-2.3 0.5,-1.2 1.2,-2.3 2.2,-4.2 4.3,-8.4 2.1,-4.3 4.3,-8.5 0.8,-1.2 1.3,-2.4 0.6,-1.3 1.2,-2.4 0.4,-0.8 0.8,-1.6 0.5,-0.8 1.2,-1.3 0.3,-0.2 1.4,-0.6 0.6,-0.2 1.3,-0.1 0.7,0 1.3,0 l 4.9,0 q 1.1,0 2,0.1 1,0 1.4,0.5 0.5,0.5 0.1,1.5 -0.3,0.9 -0.6,1.5 -0.8,1.4 -1.6,3 -0.8,1.5 -1.6,2.9 -0.4,0.7 -0.7,1.4 -0.3,0.6 -0.6,1.2 -0.7,1.1 -1.3,2.2 -0.6,1.1 -1.2,2.2 -0.1,0.3 -0.3,0.7 -0.1,0.3 -0.3,0.6 -0.9,1.5 -1.7,3.1 -0.8,1.5 -1.6,3 -1.7,3 -3.3,6.2 -1.6,3.1 -3.4,6.1 -0.8,1.4 -1.5,2.8 -0.6,1.3 -1.4,2.7 -0.3,0.5 -0.5,0.9 -0.2,0.3 -0.5,0.8 -0.6,1.1 -1.2,2.3 -0.5,1.1 -1.2,2.2 -0.7,1.1 -1.3,2.1 -0.6,0.9 -1.7,1.3 -0.9,0.3 -1.8,0.3 -0.9,-0.1 -1.8,-0.1 l -6.5,0 q -1.1,0 -2.2,0 -1,0 -1.7,-0.4 -0.6,-0.5 -0.8,-1.2 -0.1,-0.8 -0.2,-1.7 -0.3,-1.2 -0.5,-2.5 -0.1,-1.3 -0.3,-2.5 -0.1,-0.4 -0.1,-0.7 0,-0.4 -0.1,-0.9 -0.3,-1.2 -0.4,-2.5 -0.1,-1.3 -0.4,-2.6 -0.1,-0.5 -0.1,-0.9 0,-0.5 -0.1,-1 -0.2,-0.9 -0.3,-1.8 -0.1,-1 -0.3,-1.9 -0.1,-0.3 -0.1,-0.6 0.1,-0.4 0,-0.7 -0.2,-0.9 -0.3,-1.8 -0.1,-0.9 -0.3,-1.9 -0.4,-2.3 -0.7,-4.7 -0.3,-2.5 -0.6,-4.9 -0.6,-2.7 -0.9,-5.4 -0.2,-2.8 -0.7,-5.5 l -0.3,-2.7 q -0.1,-0.3 -0.1,-0.7 0.1,-0.5 0.4,-0.9 0.4,-0.7 1.6,-1 0.5,0 0.7,-0.1 z" style="fill: none; stroke: none; font-style: italic; font-variant: normal; font-weight: bold; font-stretch: normal; font-size: 100px; line-height: 125%; font-family: 'Alte Haas Grotesk'; letter-spacing: 0px; word-spacing: 0px; fill-opacity: 1;"/>
        <linearGradient x1="-7708.7969" y1="-803.36011" x2="-7633.1528" y2="-714.90741" id="apache-maven-icon-color-1" gradientUnits="userSpaceOnUse" gradientTransform="matrix(0.4226,-0.9063,0.9063,0.4226,4226.9761,-6584.5938)">
            <stop style="stop-color:#f69923;stop-opacity:1" offset="0"/>
            <stop style="stop-color:#f79a23;stop-opacity:1" offset="0.3123"/>
            <stop style="stop-color:#e97826;stop-opacity:1" offset="0.8383"/>
        </linearGradient>
        <path d="M 204.622 20.331 C 203.495 21.002 201.617 22.88 199.39 25.603 L 201.442 29.48 C 202.878 27.414 204.353 25.563 205.829 23.98 C 205.936 23.859 206.003 23.792 206.003 23.792 C 205.95 23.859 205.883 23.913 205.829 23.98 C 205.346 24.503 203.897 26.193 201.711 29.56 C 203.817 29.453 207.05 29.024 209.692 28.567 C 210.484 24.167 208.928 22.155 208.928 22.155 C 208.928 22.155 206.942 18.949 204.622 20.331 Z" style="fill: url('#apache-maven-icon-gradient-5344'); transform-box: fill-box; transform-origin: 50% 50%;" transform="matrix(0.989406, 0.145174, -0.145174, 0.989406, 0.000004, -0.000004)"/>
        <path d="M 198.606 41.72 C 198.619 41.72 198.633 41.72 198.646 41.707 L 198.351 41.734 C 198.338 41.747 198.311 41.747 198.297 41.761 C 198.405 41.747 198.512 41.734 198.606 41.72 L 198.606 41.72 Z" style="fill: none; transform-box: fill-box; transform-origin: 50% 50%;" transform="matrix(0.989406, 0.145174, -0.145174, 0.989406, 0.000004, -0.000001)"/>
        <path d="M 195.525 48.261 C 195.364 48.301 195.19 48.328 195.015 48.355 C 195.19 48.328 195.364 48.301 195.525 48.261 Z" style="fill: none; transform-box: fill-box; transform-origin: 50% 50%;" transform="matrix(0.989406, 0.145174, -0.145174, 0.989406, 0.000003, -0.000003)"/>
        <path d="M 180.465 62.271 C 180.492 62.218 180.505 62.15 180.532 62.097 C 180.988 60.903 181.431 59.749 181.873 58.609 C 182.37 57.348 182.866 56.114 183.349 54.92 C 183.859 53.672 184.368 52.452 184.865 51.285 C 185.388 50.05 185.898 48.87 186.407 47.73 C 186.823 46.804 187.226 45.905 187.628 45.033 C 187.762 44.738 187.896 44.456 188.031 44.175 C 188.299 43.611 188.554 43.061 188.809 42.525 C 189.05 42.028 189.278 41.545 189.506 41.063 C 189.587 40.902 189.667 40.741 189.734 40.593 C 189.748 40.566 189.761 40.539 189.774 40.513 L 189.52 40.539 L 189.318 40.15 C 189.305 40.191 189.278 40.231 189.265 40.271 C 188.903 40.982 188.54 41.706 188.192 42.444 C 187.99 42.86 187.789 43.289 187.574 43.719 C 187.011 44.899 186.461 46.08 185.924 47.287 C 185.374 48.494 184.838 49.715 184.315 50.922 C 183.792 52.116 183.295 53.31 182.799 54.504 C 182.302 55.698 181.82 56.878 181.35 58.059 C 180.854 59.293 180.371 60.514 179.915 61.721 C 179.807 61.989 179.7 62.271 179.606 62.539 C 179.231 63.519 178.868 64.471 178.52 65.424 L 178.842 66.054 L 179.123 66.027 C 179.137 66 179.15 65.974 179.15 65.947 C 179.566 64.672 180.022 63.452 180.465 62.271 L 180.465 62.271 Z" style="fill: none; transform-box: fill-box; transform-origin: 50% 50%;" transform="matrix(0.989406, 0.145174, -0.145174, 0.989406, 0.000001, 0.000003)"/>
        <path d="M 194.876 48.311 C 194.876 48.311 194.876 48.311 194.876 48.311 C 194.876 48.311 194.876 48.311 194.876 48.311 Z" style="fill:none"/>
        <path d="M 193.701 51.51 C 193.433 51.564 193.165 51.604 192.896 51.645 C 192.896 51.645 192.896 51.645 192.896 51.645 C 193.031 51.631 193.178 51.604 193.312 51.577 C 193.446 51.564 193.581 51.537 193.701 51.51 Z" style="fill: rgb(190, 32, 46); transform-box: fill-box; transform-origin: 50% 50%;" transform="matrix(0.989406, 0.145174, -0.145174, 0.989406, -0.000003, -0.000001)"/>
        <path d="M 193.701 51.51 C 193.433 51.564 193.165 51.604 192.896 51.645 C 192.896 51.645 192.896 51.645 192.896 51.645 C 193.031 51.631 193.178 51.604 193.312 51.577 C 193.446 51.564 193.581 51.537 193.701 51.51 Z" style="opacity: 0.35; fill: rgb(190, 32, 46); transform-box: fill-box; transform-origin: 50% 50%;" transform="matrix(0.989406, 0.145174, -0.145174, 0.989406, -0.000003, -0.000001)"/>
        <path d="M 194.894 48.358 C 194.894 48.358 194.894 48.358 194.894 48.358 C 194.881 48.358 194.881 48.358 194.894 48.358 C 194.934 48.358 194.975 48.345 195.015 48.345 C 195.189 48.318 195.364 48.291 195.525 48.251 C 195.323 48.291 195.109 48.318 194.894 48.358 L 194.894 48.358 Z" style="fill: rgb(190, 32, 46); transform-box: fill-box; transform-origin: 50% 50%;" transform="matrix(0.989406, 0.145174, -0.145174, 0.989406, 0.000001, 0)"/>
        <path d="M 194.894 48.358 C 194.894 48.358 194.894 48.358 194.894 48.358 C 194.881 48.358 194.881 48.358 194.894 48.358 C 194.934 48.358 194.975 48.345 195.015 48.345 C 195.189 48.318 195.364 48.291 195.525 48.251 C 195.323 48.291 195.109 48.318 194.894 48.358 L 194.894 48.358 Z" style="opacity: 0.35; fill: rgb(190, 32, 46); transform-box: fill-box; transform-origin: 50% 50%;" transform="matrix(0.989406, 0.145174, -0.145174, 0.989406, 0.000001, 0)"/>
        <linearGradient x1="-8268.6387" y1="-813.12323" x2="-7728.9585" y2="-813.12323" id="apache-maven-icon-color-2" gradientUnits="userSpaceOnUse" gradientTransform="matrix(0.4226,-0.9063,0.9063,0.4226,4226.9761,-6584.5938)">
            <stop style="stop-color:#9e2064;stop-opacity:1" offset="0.3233"/>
            <stop style="stop-color:#c92037;stop-opacity:1" offset="0.6302"/>
            <stop style="stop-color:#cd2335;stop-opacity:1" offset="0.7514"/>
            <stop style="stop-color:#e97826;stop-opacity:1" offset="1"/>
        </linearGradient>
        <path d="M 194.099 38.159 C 194.729 36.992 195.36 35.852 195.99 34.739 C 196.647 33.585 197.318 32.472 198.002 31.385 C 198.043 31.318 198.083 31.251 198.123 31.197 C 198.794 30.137 199.464 29.118 200.149 28.139 L 198.096 24.275 C 197.949 24.463 197.788 24.651 197.627 24.852 C 197.036 25.59 196.419 26.381 195.789 27.226 C 195.078 28.179 194.353 29.185 193.602 30.245 C 192.918 31.224 192.221 32.257 191.523 33.317 C 190.933 34.229 190.342 35.155 189.752 36.107 C 189.725 36.147 189.712 36.174 189.685 36.214 L 192.355 41.486 C 192.945 40.373 193.522 39.259 194.099 38.159 L 194.099 38.159 Z" style="fill: url('#apache-maven-icon-gradient-1'); transform-box: fill-box; transform-origin: 50% 50%;" transform="matrix(0.989406, 0.145174, -0.145174, 0.989406, 0.000002, 0)"/>
        <linearGradient x1="-8203.4922" y1="-758.99402" x2="-7881.895" y2="-758.99402" id="apache-maven-icon-color-3" gradientUnits="userSpaceOnUse" gradientTransform="matrix(0.4226,-0.9063,0.9063,0.4226,4226.9761,-6584.5938)">
            <stop style="stop-color:#282662;stop-opacity:1" offset="0"/>
            <stop style="stop-color:#662e8d;stop-opacity:1" offset="0.0955"/>
            <stop style="stop-color:#9f2064;stop-opacity:1" offset="0.7882"/>
            <stop style="stop-color:#cd2032;stop-opacity:1" offset="0.9487"/>
        </linearGradient>
        <path d="M 176.569 66.211 C 176.22 67.177 175.858 68.17 175.509 69.189 C 175.509 69.203 175.496 69.216 175.496 69.23 C 175.442 69.377 175.388 69.511 175.348 69.659 C 175.107 70.343 174.905 70.96 174.422 72.355 C 175.214 72.717 175.844 73.656 176.435 74.73 C 176.368 73.616 175.912 72.57 175.04 71.765 C 178.916 71.939 182.27 70.96 183.987 68.116 C 184.135 67.861 184.282 67.593 184.416 67.311 C 183.625 68.304 182.659 68.733 180.821 68.626 C 180.821 68.626 180.808 68.626 180.808 68.626 C 180.808 68.626 180.821 68.626 180.821 68.626 C 183.518 67.419 184.873 66.252 186.066 64.333 C 186.348 63.877 186.63 63.381 186.912 62.831 C 184.551 65.259 181.814 65.943 178.93 65.42 L 176.77 65.661 C 176.703 65.849 176.636 66.024 176.569 66.211 Z" style="fill: url('#apache-maven-icon-gradient-2'); transform-box: fill-box; transform-origin: 50% 50%;" transform="matrix(0.989406, 0.145174, -0.145174, 0.989406, 0, 0.000004)"/>
        <linearGradient x1="-8238.3281" y1="-818.15222" x2="-7698.647" y2="-818.15222" id="apache-maven-icon-color-4" gradientUnits="userSpaceOnUse" gradientTransform="matrix(0.4226,-0.9063,0.9063,0.4226,4226.9761,-6584.5938)">
            <stop style="stop-color:#9e2064;stop-opacity:1" offset="0.3233"/>
            <stop style="stop-color:#c92037;stop-opacity:1" offset="0.6302"/>
            <stop style="stop-color:#cd2335;stop-opacity:1" offset="0.7514"/>
            <stop style="stop-color:#e97826;stop-opacity:1" offset="1"/>
        </linearGradient>
        <path d="M 180.334 61.506 C 180.804 60.299 181.287 59.078 181.77 57.844 C 182.239 56.664 182.722 55.483 183.218 54.289 C 183.715 53.095 184.225 51.901 184.734 50.708 C 185.257 49.487 185.794 48.279 186.344 47.072 C 186.881 45.878 187.444 44.684 187.994 43.504 C 188.195 43.075 188.396 42.659 188.611 42.229 C 188.96 41.505 189.322 40.781 189.684 40.056 C 189.698 40.016 189.725 39.976 189.738 39.936 L 187.095 34.677 C 187.055 34.744 187.015 34.825 186.961 34.892 C 186.344 35.911 185.714 36.944 185.11 38.004 C 184.493 39.077 183.889 40.164 183.299 41.277 C 182.803 42.216 182.32 43.155 181.837 44.108 C 181.743 44.295 181.649 44.497 181.555 44.684 C 180.978 45.878 180.442 47.045 179.972 48.159 C 179.435 49.42 178.966 50.627 178.55 51.767 C 178.282 52.519 178.027 53.243 177.799 53.94 C 177.611 54.531 177.437 55.134 177.262 55.725 C 176.86 57.12 176.524 58.515 176.243 59.91 L 178.926 65.209 C 179.274 64.256 179.65 63.304 180.012 62.325 C 180.12 62.056 180.227 61.788 180.334 61.506 L 180.334 61.506 Z" style="fill: url('#apache-maven-icon-gradient-3'); transform-box: fill-box; transform-origin: 50% 50%;" transform="matrix(0.989406, 0.145174, -0.145174, 0.989406, 0.000002, -0.000001)"/>
        <linearGradient x1="-8198.9678" y1="-810.85059" x2="-7915.3501" y2="-810.85059" id="apache-maven-icon-color-5" gradientUnits="userSpaceOnUse" gradientTransform="matrix(0.4226,-0.9063,0.9063,0.4226,4226.9761,-6584.5938)">
            <stop style="stop-color:#282662;stop-opacity:1" offset="0"/>
            <stop style="stop-color:#662e8d;stop-opacity:1" offset="0.0955"/>
            <stop style="stop-color:#9f2064;stop-opacity:1" offset="0.7882"/>
            <stop style="stop-color:#cd2032;stop-opacity:1" offset="0.9487"/>
        </linearGradient>
        <path d="M 172.737 58.613 C 172.401 60.304 172.16 61.994 172.039 63.684 C 172.039 63.738 172.026 63.805 172.026 63.859 C 171.194 62.517 168.94 61.202 168.954 61.216 C 170.564 63.55 171.784 65.857 171.959 68.124 C 171.1 68.299 169.92 68.044 168.565 67.548 C 169.987 68.849 171.047 69.211 171.462 69.305 C 170.161 69.385 168.806 70.284 167.438 71.317 C 169.437 70.499 171.06 70.177 172.214 70.445 C 170.376 75.637 168.538 81.378 166.7 87.468 C 167.264 87.307 167.599 86.918 167.787 86.409 C 168.109 85.309 170.295 78.065 173.703 68.554 C 173.797 68.285 173.904 68.017 173.998 67.735 C 174.025 67.655 174.051 67.588 174.078 67.507 C 174.44 66.515 174.816 65.495 175.205 64.449 C 175.299 64.207 175.38 63.979 175.473 63.738 C 175.473 63.738 175.473 63.724 175.473 63.724 L 172.79 58.426 C 172.764 58.493 172.75 58.546 172.737 58.613 L 172.737 58.613 Z" style="fill: url('#apache-maven-icon-gradient-4'); transform-box: fill-box; transform-origin: 50% 50%;" transform="matrix(0.989406, 0.145174, -0.145174, 0.989406, 0.000003, 0.000003)"/>
        <linearGradient x1="-8238.3281" y1="-762.29712" x2="-7698.647" y2="-762.29712" id="apache-maven-icon-color-6" gradientUnits="userSpaceOnUse" gradientTransform="matrix(0.4226,-0.9063,0.9063,0.4226,4226.9761,-6584.5938)">
            <stop style="stop-color:#9e2064;stop-opacity:1" offset="0.3233"/>
            <stop style="stop-color:#c92037;stop-opacity:1" offset="0.6302"/>
            <stop style="stop-color:#cd2335;stop-opacity:1" offset="0.7514"/>
            <stop style="stop-color:#e97826;stop-opacity:1" offset="1"/>
        </linearGradient>
        <path d="M 189.799 41.392 C 189.719 41.553 189.652 41.7 189.571 41.861 C 189.343 42.344 189.102 42.827 188.874 43.323 C 188.619 43.86 188.364 44.41 188.096 44.973 C 187.961 45.255 187.827 45.537 187.693 45.832 C 187.291 46.704 186.888 47.603 186.472 48.528 C 185.963 49.669 185.453 50.849 184.93 52.083 C 184.433 53.25 183.924 54.471 183.414 55.719 C 182.931 56.912 182.435 58.133 181.938 59.408 C 181.496 60.534 181.053 61.702 180.597 62.895 C 180.57 62.949 180.557 63.016 180.53 63.07 C 180.087 64.25 179.631 65.471 179.175 66.719 C 179.161 66.745 179.148 66.772 179.148 66.799 L 181.308 66.558 C 181.268 66.544 181.227 66.544 181.174 66.531 C 183.763 66.209 187.197 64.277 189.41 61.889 C 190.43 60.789 191.355 59.502 192.214 57.986 C 192.858 56.859 193.448 55.611 194.025 54.216 C 194.521 53.009 195.004 51.694 195.46 50.272 C 194.87 50.581 194.186 50.809 193.435 50.97 C 193.301 50.997 193.166 51.023 193.032 51.05 C 192.898 51.077 192.764 51.091 192.616 51.117 C 192.616 51.117 192.616 51.117 192.616 51.117 C 195.031 50.192 196.547 48.408 197.647 46.208 C 197.016 46.637 195.983 47.2 194.749 47.482 C 194.588 47.522 194.414 47.549 194.24 47.576 C 194.199 47.576 194.159 47.589 194.105 47.589 C 194.105 47.589 194.105 47.589 194.105 47.589 C 194.105 47.589 194.105 47.589 194.105 47.589 C 194.937 47.24 195.648 46.851 196.265 46.382 C 196.399 46.288 196.52 46.181 196.641 46.073 C 196.829 45.912 197.003 45.738 197.177 45.564 C 197.285 45.443 197.392 45.336 197.499 45.215 C 197.741 44.933 197.969 44.625 198.17 44.289 C 198.237 44.182 198.304 44.088 198.358 43.981 C 198.438 43.82 198.519 43.672 198.586 43.525 C 198.921 42.854 199.19 42.25 199.404 41.714 C 199.512 41.445 199.605 41.204 199.686 40.976 C 199.713 40.882 199.753 40.801 199.78 40.708 C 199.86 40.453 199.941 40.225 199.994 40.023 C 200.075 39.728 200.129 39.487 200.155 39.312 C 200.075 39.379 199.981 39.447 199.874 39.5 C 199.149 39.929 197.902 40.332 196.896 40.52 L 198.881 40.305 L 196.896 40.52 C 196.882 40.52 196.869 40.52 196.855 40.533 C 196.762 40.547 196.654 40.56 196.547 40.587 C 196.56 40.573 196.587 40.573 196.601 40.56 L 189.813 41.298 C 189.826 41.351 189.813 41.378 189.799 41.392 L 189.799 41.392 Z" style="fill: url('#apache-maven-icon-gradient-5'); transform-box: fill-box; transform-origin: 50% 50%;" transform="matrix(0.989406, 0.145174, -0.145174, 0.989406, -0.000001, -0.000004)"/>
        <linearGradient x1="-8271.8057" y1="-765.07068" x2="-7732.125" y2="-765.07068" id="apache-maven-icon-color-7" gradientUnits="userSpaceOnUse" gradientTransform="matrix(0.4226,-0.9063,0.9063,0.4226,4226.9761,-6584.5938)">
            <stop style="stop-color:#9e2064;stop-opacity:1" offset="0.3233"/>
            <stop style="stop-color:#c92037;stop-opacity:1" offset="0.6302"/>
            <stop style="stop-color:#cd2335;stop-opacity:1" offset="0.7514"/>
            <stop style="stop-color:#e97826;stop-opacity:1" offset="1"/>
        </linearGradient>
        <path d="M 200.126 29.041 C 199.522 29.967 198.865 31.027 198.154 32.207 C 198.113 32.274 198.073 32.328 198.046 32.395 C 197.429 33.428 196.785 34.555 196.101 35.802 C 195.511 36.876 194.894 38.016 194.25 39.263 C 193.687 40.337 193.123 41.477 192.519 42.684 L 199.307 41.946 C 201.279 41.034 202.165 40.216 203.023 39.022 C 203.251 38.7 203.479 38.351 203.707 37.989 C 204.405 36.902 205.089 35.708 205.693 34.515 C 206.283 33.361 206.806 32.221 207.195 31.201 C 207.45 30.544 207.651 29.94 207.799 29.404 C 207.92 28.934 208.013 28.491 208.094 28.062 C 205.465 28.505 202.232 28.934 200.126 29.041 Z" style="fill: url('#apache-maven-icon-gradient-6'); transform-box: fill-box; transform-origin: 50% 50%;" transform="matrix(0.989406, 0.145174, -0.145174, 0.989406, 0, 0.000002)"/>
        <path d="M 193.308 51.562 C 193.173 51.589 193.039 51.602 192.892 51.629 C 193.026 51.602 193.16 51.576 193.308 51.562 Z" style="fill: rgb(190, 32, 46); transform-box: fill-box; transform-origin: 50% 50%;" transform="matrix(0.989406, 0.145174, -0.145174, 0.989406, 0.000003, 0.000002)"/>
        <path d="M 193.308 51.562 C 193.173 51.589 193.039 51.602 192.892 51.629 C 193.026 51.602 193.16 51.576 193.308 51.562 Z" style="opacity: 0.35; fill: rgb(190, 32, 46); transform-box: fill-box; transform-origin: 50% 50%;" transform="matrix(0.989406, 0.145174, -0.145174, 0.989406, 0.000003, 0.000002)"/>
        <linearGradient x1="-8238.3281" y1="-745.68481" x2="-7698.647" y2="-745.68481" id="apache-maven-icon-color-8" gradientUnits="userSpaceOnUse" gradientTransform="matrix(0.4226,-0.9063,0.9063,0.4226,4226.9761,-6584.5938)">
            <stop style="stop-color:#9e2064;stop-opacity:1" offset="0.3233"/>
            <stop style="stop-color:#c92037;stop-opacity:1" offset="0.6302"/>
            <stop style="stop-color:#cd2335;stop-opacity:1" offset="0.7514"/>
            <stop style="stop-color:#e97826;stop-opacity:1" offset="1"/>
        </linearGradient>
        <path d="M 193.308 51.562 C 193.173 51.589 193.039 51.602 192.892 51.629 C 193.026 51.602 193.16 51.576 193.308 51.562 Z" style="fill: url('#apache-maven-icon-gradient-7'); transform-box: fill-box; transform-origin: 50% 50%;" transform="matrix(0.989406, 0.145174, -0.145174, 0.989406, 0.000003, 0.000002)"/>
        <path d="M 194.877 48.321 C 194.917 48.321 194.957 48.307 195.011 48.307 C 194.971 48.307 194.93 48.321 194.877 48.321 Z" style="fill: rgb(190, 32, 46); transform-box: fill-box; transform-origin: 50% 50%;" transform="matrix(0.989406, 0.145174, -0.145174, 0.989406, 0, 0.000005)"/>
        <path d="M 194.877 48.321 C 194.917 48.321 194.957 48.307 195.011 48.307 C 194.971 48.307 194.93 48.321 194.877 48.321 Z" style="opacity: 0.35; fill: rgb(190, 32, 46); transform-box: fill-box; transform-origin: 50% 50%;" transform="matrix(0.989406, 0.145174, -0.145174, 0.989406, 0, 0.000005)"/>
        <linearGradient x1="-8238.3281" y1="-747.58557" x2="-7698.647" y2="-747.58557" id="apache-maven-icon-color-9" gradientUnits="userSpaceOnUse" gradientTransform="matrix(0.4226,-0.9063,0.9063,0.4226,4226.9761,-6584.5938)">
            <stop style="stop-color:#9e2064;stop-opacity:1" offset="0.3233"/>
            <stop style="stop-color:#c92037;stop-opacity:1" offset="0.6302"/>
            <stop style="stop-color:#cd2335;stop-opacity:1" offset="0.7514"/>
            <stop style="stop-color:#e97826;stop-opacity:1" offset="1"/>
        </linearGradient>
        <path d="M 194.877 48.321 C 194.917 48.321 194.957 48.307 195.011 48.307 C 194.971 48.307 194.93 48.321 194.877 48.321 Z" style="fill: url('#apache-maven-icon-gradient-8'); transform-box: fill-box; transform-origin: 50% 50%;" transform="matrix(0.989406, 0.145174, -0.145174, 0.989406, 0, 0.000005)"/>
        <path d="M 194.89 48.313 C 194.89 48.313 194.89 48.313 194.89 48.313 C 194.89 48.313 194.89 48.313 194.89 48.313 Z" style="fill:#be202e"/>
        <path d="M 194.89 48.313 C 194.89 48.313 194.89 48.313 194.89 48.313 C 194.89 48.313 194.89 48.313 194.89 48.313 Z" style="opacity:0.35;fill:#be202e"/>
        <linearGradient x1="-7935.1431" y1="-747.9668" x2="-7815.856" y2="-747.9668" id="apache-maven-icon-color-10" gradientUnits="userSpaceOnUse" gradientTransform="matrix(0.4226,-0.9063,0.9063,0.4226,4226.9761,-6584.5938)">
            <stop style="stop-color:#9e2064;stop-opacity:1" offset="0.3233"/>
            <stop style="stop-color:#c92037;stop-opacity:1" offset="0.6302"/>
            <stop style="stop-color:#cd2335;stop-opacity:1" offset="0.7514"/>
            <stop style="stop-color:#e97826;stop-opacity:1" offset="1"/>
        </linearGradient>
        <path d="M 194.89 48.313 C 194.89 48.313 194.89 48.313 194.89 48.313 C 194.89 48.313 194.89 48.313 194.89 48.313 Z" style="fill:url(#apache-maven-icon-gradient-9)"/>
    </g>
</svg>