<svg viewBox="0 0 127 142" xmlns="http://www.w3.org/2000/svg">
    <defs>
        <path d="M7.244 76.155C2.72 73.543.304 70.957.304 65.835v-58.3c0-2.664.71-5.061 1.858-7.09l24.537 14.1V87.39L7.244 76.155z"
              id="bitnami-icon-color-1"/>
        <linearGradient x1="18.01%" y1="80.098%" x2="77.804%" y2="28.779%" id="bitnami-icon-color-3">
            <stop stop-color="#00437C" offset="0%"/>
            <stop stop-color="#093266" offset="100%"/>
        </linearGradient>
        <path d="M8.741 48.056L.453 43.271V12.79l15.349 8.861L52.318.571V.436l24.635 14.156c-1.188 2.158-2.96 3.944-5.292 5.29L22.878 48.047a14.114 14.114 0 0 1-7.075 1.917 14.11 14.11 0 0 1-7.062-1.908"
              id="bitnami-icon-color-4"/>
        <linearGradient x1="0%" y1="50%" y2="50%" id="bitnami-icon-color-6">
            <stop stop-color="#00437C" offset="0%"/>
            <stop stop-color="#3984B5" offset="100%"/>
        </linearGradient>
    </defs>
    <g fill="none" fill-rule="evenodd">
        <path d="M79.05 62.437L63.724 53.59l-15.326 8.848 15.326 8.935z" fill="#00577B"/>
        <path d="M63.724 88.989l15.326-8.851v-17.7l-15.326 8.85z" fill="#1E384B"/>
        <path d="M63.724 88.989l-15.326-8.851v-17.7l15.326 8.85z" fill="#15211F"/>
        <path d="M100.24 50.419V92.45l-36.516 21.083-36.52-21.083v-.063l-24.536 14.1c1.286 2.27 3.121 4.075 5.153 5.249 16.194 9.348 32.385 18.699 48.58 28.047 4.753 2.745 9.868 2.758 14.594.03l48.698-28.117c4.546-2.624 6.943-6.789 6.943-12.085v-56.03c0-2.756-.602-5.214-1.761-7.32L100.24 50.42z"
              fill="#00437C" fill-rule="nonzero"/>
        <g transform="matrix(1 0 0 -1 .506 106.933)">
            <mask id="bitnami-icon-color-2" fill="#fff">
                <use href="#bitnami-icon-color-1"/>
            </mask>
            <g mask="url(#bitnami-icon-color-2)" fill="url(#bitnami-icon-color-3)" fill-rule="nonzero">
                <path d="M7.244 76.155C2.72 73.543.304 70.957.304 65.835v-58.3c0-2.664.71-5.061 1.858-7.09l24.537 14.1V87.39L7.244 76.155z"/>
            </g>
        </g>
        <g transform="matrix(1 0 0 -1 47.922 50.854)">
            <mask id="bitnami-icon-color-5" fill="#fff">
                <use href="#bitnami-icon-color-4"/>
            </mask>
            <g mask="url(#bitnami-icon-color-5)" fill="url(#bitnami-icon-color-6)" fill-rule="nonzero">
                <path d="M8.741 48.056L.453 43.271V12.79l15.349 8.861L52.318.571V.436l24.635 14.156c-1.188 2.158-2.96 3.944-5.292 5.29L22.878 48.047a14.114 14.114 0 0 1-7.075 1.917 14.11 14.11 0 0 1-7.062-1.908"/>
            </g>
        </g>
    </g>
</svg>
