<?xml version="1.0" encoding="utf-8"?>
<svg xmlns="http://www.w3.org/2000/svg" viewBox="0 0 715.2615 1095.5412">
    <clipPath id="brakeman-icon-color-1">
        <path d="m0 1190.551h841.89v-1190.551h-841.89z"/>
    </clipPath>
    <clipPath id="brakeman-icon-color-2">
        <path d="m353.911 690.082h137.382v-149.528h-137.382z"/>
    </clipPath>
    <radialGradient id="brakeman-icon-color-3" cx="0" cy="0"
                    gradientTransform="matrix(53.719604 0 0 -53.719589 422.60254 619.94092)"
                    gradientUnits="userSpaceOnUse" r="1" spreadMethod="pad"/>
    <clipPath id="brakeman-icon-color-4">
        <path d="m390.149 659.871h64.907v-69.585h-64.907z"/>
    </clipPath>
    <clipPath id="brakeman-icon-color-5">
        <path d="m390.149 632.722 15.672 27.149h33.562l15.673-27.149-32.455-42.436z"/>
    </clipPath>
    <radialGradient id="brakeman-icon-color-6" cx="0" cy="0"
                    gradientTransform="matrix(33.643143 0 0 -33.643143 422.60254 625.07861)"
                    gradientUnits="userSpaceOnUse" r="1" spreadMethod="pad"/>
    <clipPath id="brakeman-icon-color-7">
        <path d="m249.271 856.485h346.019v-492.784h-346.019z"/>
    </clipPath>
    <clipPath id="brakeman-icon-color-8">
        <path d="m249.271 856.485h346.019v-492.784h-346.019z"/>
    </clipPath>
    <clipPath id="brakeman-icon-color-9">
        <path d="m333.868 698.983c-5.152-14.964-8.034-31.505-8.034-48.92 0-66.886 42.2-121.108 94.263-121.108 52.057 0 94.261 54.222 94.261 121.108 0 17.415-2.882 33.956-8.036 48.92z"/>
    </clipPath>
    <radialGradient id="brakeman-icon-color-10" cx="0" cy="0"
                    gradientTransform="matrix(89.75737 0 0 -89.75737 420.09619 613.96924)"
                    gradientUnits="userSpaceOnUse" r="1" spreadMethod="pad">
        <stop offset="0" stop-color="#f5865c"/>
        <stop offset="0.4097" stop-color="#f5865c"/>
        <stop offset="0.9448" stop-color="#c51f36"/>
        <stop offset="1" stop-color="#c51f36"/>
    </radialGradient>
    <clipPath id="brakeman-icon-color-11">
        <path d="m0 1190.551h841.89v-1190.551h-841.89z"/>
    </clipPath>
    <clipPath id="brakeman-icon-color-12">
        <path d="m397.167 672.724-25.053-43.393 50.491-66.023 50.49 66.023-25.051 43.393z"/>
    </clipPath>
    <radialGradient id="brakeman-icon-color-13" cx="0" cy="0"
                    gradientTransform="matrix(52.641128 0 0 -52.641128 422.60449 618.01611)"
                    gradientUnits="userSpaceOnUse" r="1" spreadMethod="pad"/>
    <clipPath id="brakeman-icon-color-14">
        <path d="m0 1190.551h841.89v-1190.551h-841.89z"/>
    </clipPath>
    <clipPath id="brakeman-icon-color-15">
        <path d="m390.803 657.145h63.607v-68.192h-63.607z"/>
    </clipPath>
    <clipPath id="brakeman-icon-color-16">
        <path d="m390.803 630.539 15.359 26.606h32.884l15.364-26.606-31.806-41.586z"/>
    </clipPath>
    <radialGradient id="brakeman-icon-color-17" cx="0" cy="0" gradientTransform="matrix(32.969635 0 0 -32.969635 422.60645 623.04883)"
                    gradientUnits="userSpaceOnUse" r="1" spreadMethod="pad"/>
    <clipPath id="brakeman-icon-color-18">
        <path d="m338.991 704.603h167.207v-96.375h-167.207z"/>
    </clipPath>
    <g transform="matrix(1.4323959350585938, 0, 0, -1.4323959350585938, -247.1355590820312, 1572.6387939453125)">
        <g clip-path="url(#brakeman-icon-color-1)">
            <g clip-path="url(#brakeman-icon-color-2)" opacity=".479996">
                <path d="m0 0 55.34-72.361 55.342 72.361-27.547 47.711h-55.589zm55.34-90.688-68.69 89.823 34.47 59.706h68.443l34.469-59.706z"
                      fill="#231f20" transform="translate(367.2607 631.2412)"/>
                <path d="m371.076 631.487 25.567 44.282h51.919l25.566-44.282-51.527-67.374z"
                      fill="url(#brakeman-icon-color-1)"/>
                <g clip-path="url(#brakeman-icon-color-4)" opacity=".570007">
                    <g clip-path="url(#brakeman-icon-color-5)">
                        <path d="m390.149 632.722 15.672 27.149h33.562l15.673-27.149-32.455-42.436z"
                              fill="url(#brakeman-icon-color-6)"/>
                    </g>
                </g>
                <g fill="#231f20">
                    <path d="m0 0-6.719 4.26 12.097 19.079 6.715-4.258z" transform="translate(441.6631 657.7402)"/>
                    <path d="m0 0-11.015 19.081 6.887 3.975 11.014-19.081z" transform="translate(402.3794 657.8818)"/>
                    <path d="m0 0 27.686-36.198 27.689 36.198-13.201 22.868h-28.973zm27.686-49.288-37.221 48.673 18.148 31.432h38.149l18.149-31.432z"
                          transform="translate(394.9146 633.0283)"/>
                    <path d="m0 0-22.885 1.48.514 7.934 22.89-1.481z" transform="translate(477.6836 627.2744)"/>
                    <path d="m0 0-.512 7.933 22.887 1.481.515-7.934z" transform="translate(367.5161 627.2744)"/>
                    <path d="m426.577 553.267h-7.947v37.02h7.947z"/>
                </g>
            </g>
            <g>
                <g clip-path="url(#brakeman-icon-color-7)">
                    <path d="m0 0h-43.014c.025.396.061.791.061 1.194v33.408c0 9.884-8.013 17.897-17.896 17.897h-31.026v44.149h-126.478v-44.149h-31.022c-9.884 0-17.896-8.013-17.896-17.897v-33.408c0-.403.032-.798.059-1.194h-43.014c-9.885 0-17.898-8.015-17.898-17.897v-10.74c0-9.884 8.013-17.899 17.898-17.899h32.96c-13.001-27.163-20.483-59.01-20.483-93.066 0-43.879 12.423-84.088 33.061-115.339v-25.457h-3.523c-12.663 0-22.924-8.013-22.924-17.897v-79.944c0-9.886 10.261-17.896 22.924-17.896h226.194c12.665 0 22.93 8.01 22.93 17.896v79.944c0 9.884-10.265 17.897-22.93 17.897h-12.669v12.864c26.064 32.643 42.208 77.903 42.208 127.932 0 34.056-7.482 65.903-20.477 93.066h32.955c9.883 0 17.895 8.015 17.895 17.899v10.74c0 9.882-8.012 17.897-17.895 17.897"
                          fill="#95969b" transform="translate(577.3955 759.8364)"/>
                </g>
            </g>
            <g clip-path="url(#brakeman-icon-color-8)" opacity=".770004">
                <path d="m0 0h-43.014c.025.396.061.791.061 1.194v33.408c0 9.884-8.013 17.897-17.896 17.897h-31.026v44.149h-126.478v-44.149h-31.022c-9.884 0-17.896-8.013-17.896-17.897v-33.408c0-.403.032-.798.059-1.194h-43.014c-9.885 0-17.898-8.015-17.898-17.897v-10.74c0-9.884 8.013-17.899 17.898-17.899h32.96c-13.001-27.163-20.483-59.01-20.483-93.066 0-43.879 12.423-84.088 33.061-115.339v-25.457h-3.523c-12.663 0-22.924-8.013-22.924-17.897v-79.944c0-9.886 10.261-17.896 22.924-17.896h226.194c12.665 0 22.93 8.01 22.93 17.896v79.944c0 9.884-10.265 17.897-22.93 17.897h-12.669v12.864c26.064 32.643 42.208 77.903 42.208 127.932 0 34.056-7.482 65.903-20.477 93.066h32.955c9.883 0 17.895 8.015 17.895 17.899v10.74c0 9.882-8.012 17.897-17.895 17.897"
                      fill="#6c6c71" transform="translate(577.3955 759.8364)"/>
            </g>
            <path d="m0 0c-5.151-14.965-8.034-31.506-8.034-48.921 0-66.886 42.201-121.107 94.263-121.107 52.058 0 94.262 54.221 94.262 121.107 0 17.415-2.882 33.956-8.036 48.921z"
                  fill="#c51f36" transform="translate(333.8677 698.9834)"/>
        </g>
        <g clip-path="url(#brakeman-icon-color-9)">
            <path d="m333.868 698.983c-5.152-14.964-8.034-31.505-8.034-48.92 0-66.886 42.2-121.108 94.263-121.108 52.057 0 94.261 54.222 94.261 121.108 0 17.415-2.882 33.956-8.036 48.92z"
                  fill="url(#brakeman-icon-color-10)"/>
        </g>
        <g clip-path="url(#brakeman-icon-color-11)" fill="#231f20">
            <path d="m0 0c0-1.928-1.871-3.494-4.174-3.494-2.308 0-4.178 1.566-4.178 3.494v68.787c0 1.93 1.87 3.488 4.178 3.488 2.303 0 4.174-1.558 4.174-3.488z"
                  transform="translate(334.7827 386.2803)"/>
            <path d="m0 0c0-1.928-1.874-3.494-4.176-3.494-2.308 0-4.178 1.566-4.178 3.494v68.787c0 1.93 1.87 3.488 4.178 3.488 2.302 0 4.176-1.558 4.176-3.488z"
                  transform="translate(372.3696 386.2803)"/>
            <path d="m0 0c0-1.928-1.872-3.494-4.178-3.494s-4.176 1.566-4.176 3.494v68.787c0 1.93 1.87 3.488 4.176 3.488s4.178-1.558 4.178-3.488z"
                  transform="translate(409.9556 386.2803)"/>
            <path d="m0 0c0-1.928-1.869-3.494-4.176-3.494-2.305 0-4.176 1.566-4.176 3.494v68.787c0 1.93 1.871 3.488 4.176 3.488 2.307 0 4.176-1.558 4.176-3.488z"
                  transform="translate(447.5391 386.2803)"/>
            <path d="m0 0c0-1.928-1.869-3.494-4.174-3.494-2.304 0-4.178 1.566-4.178 3.494v68.787c0 1.93 1.874 3.488 4.178 3.488 2.305 0 4.174-1.558 4.174-3.488z"
                  transform="translate(485.1221 386.2803)"/>
            <path d="m0 0c0-1.928-1.874-3.494-4.178-3.494-2.303 0-4.174 1.566-4.174 3.494v68.787c0 1.93 1.871 3.488 4.174 3.488 2.304 0 4.178-1.558 4.178-3.488z"
                  transform="translate(522.71 386.2803)"/>
            <path d="m0 0 54.229-70.908 54.235 70.908-26.995 46.753h-54.479zm54.229-88.865-67.312 88.014 33.779 58.51h67.067l33.78-58.51z"
                  transform="translate(368.375 629.0879)"/>
        </g>
        <g clip-path="url(#brakeman-icon-color-12)">
            <path d="m397.167 672.724-25.053-43.393 50.491-66.023 50.49 66.023-25.051 43.393z"
                  fill="url(#brakeman-icon-color-13)"/>
        </g>
        <g clip-path="url(#brakeman-icon-color-14)">
            <g clip-path="url(#brakeman-icon-color-15)" opacity=".570007">
                <g>
                    <path d="m390.803 630.539 15.359 26.606h32.884l15.364-26.606-31.806-41.586z" fill="url(#brakeman-icon-color-17)"/>
                </g>
            </g>
            <g fill="#231f20">
                <path d="m0 0-6.579 4.174 11.853 18.696 6.578-4.172z" transform="translate(441.2803 655.0557)"/>
                <path d="m0 0-10.797 18.696 6.749 3.895 10.793-18.696z" transform="translate(402.792 655.1953)"/>
                <path d="m0 0 27.128-35.471 27.131 35.471-12.936 22.41h-28.387zm27.128-48.295-36.474 47.695 17.782 30.795h37.383l17.785-30.795z"
                      transform="translate(395.4766 630.8398)"/>
                <path d="m0 0-22.424 1.451.498 7.774 22.429-1.454z" transform="translate(476.583 625.2012)"/>
                <path d="m0 0-.504 7.771 22.429 1.454.504-7.774z" transform="translate(368.6265 625.2012)"/>
                <path d="m426.501 552.681h-7.792v36.272h7.792z"/>
            </g>
            <g clip-path="url(#brakeman-icon-color-18)" opacity=".380005">
                <path d="m0 0c41.827 0 76.479-30.724 82.631-70.828.638 4.157.969 8.425.969 12.772 0 46.17-37.429 83.603-83.6 83.603-46.175 0-83.607-37.433-83.607-83.603 0-4.347.331-8.615.972-12.772 6.15 40.104 40.803 70.828 82.635 70.828"
                      fill="#f47d55" transform="translate(422.5986 679.0557)"/>
            </g>
            <path d="m0 0c-12.831 0-23.268-10.438-23.268-23.267v-10.739c0-12.828 10.437-23.266 23.268-23.266h23.857l-5.451-16.466c-7.496-22.659-11.301-46.623-11.301-71.234 0-41.1 11.075-81.574 31.182-113.969l1.88-3.032v-17.239l-8.591-2.843c-10.679-3.533-17.857-12.219-17.857-21.61v-79.943c0-12.83 12.694-23.269 28.296-23.269h226.194c15.603 0 28.3 10.439 28.3 23.269v79.943c0 9.935-8.073 19.041-19.625 22.141l-16.727 4.482 9.496 14.485c21.892 33.409 33.466 74.07 33.466 117.585 0 24.605-3.804 48.575-11.302 71.234l-5.445 16.466h23.854c12.828 0 23.265 10.438 23.265 23.266v10.739c0 12.829-10.437 23.267-23.265 23.267h-37.588v29.232c0 12.831-10.436 23.267-23.261 23.267h-25.656v44.149h-137.217v-44.149h-25.653c-12.83 0-23.267-10.436-23.267-23.267v-29.232zm268.209-431.932h-226.194c-29.419 0-53.351 21.676-53.351 48.324v79.943c0 16.177 9.018 31.093 23.358 39.962-19.382 34.746-29.972 76.505-29.972 118.731 0 21.776 2.693 43.125 8.021 63.667-21.901 4.592-38.395 24.054-38.395 47.299v10.739c0 26.645 21.677 48.324 48.324 48.324h12.528v4.175c0 26.645 21.679 48.326 48.323 48.326h.599v44.147h187.33v-44.147h.597c26.642 0 48.324-21.681 48.324-48.326v-4.175h12.525c26.646 0 48.327-21.679 48.327-48.324v-10.739c0-23.245-16.495-42.707-38.401-47.299 5.33-20.546 8.025-41.891 8.025-63.667 0-43.129-10.313-83.88-29.942-118.775 14.243-8.856 23.329-23.751 23.329-39.918v-79.943c0-26.648-23.935-48.324-53.355-48.324"
                  transform="translate(267.1694 765.2061)"/>
            <path d="m0 0c0-5.547-4.495-10.042-10.038-10.042-5.549 0-10.04 4.495-10.04 10.042 0 5.543 4.491 10.038 10.04 10.038 5.543 0 10.038-4.495 10.038-10.038"
                  transform="translate(399.0107 820.1963)"/>
            <path d="m0 0c0-5.547-4.495-10.042-10.04-10.042-5.543 0-10.038 4.495-10.038 10.042 0 5.543 4.495 10.038 10.038 10.038 5.545 0 10.04-4.495 10.04-10.038"
                  transform="translate(432.4766 820.1963)"/>
            <path d="m0 0c0-5.547-4.495-10.042-10.038-10.042-5.546 0-10.04 4.495-10.04 10.042 0 5.543 4.494 10.038 10.04 10.038 5.543 0 10.038-4.495 10.038-10.038"
                  transform="translate(465.9434 820.1963)"/>
            <path d="m558.636 479.671h-274.35v32.217h274.35z"/>
            <path d="m0 0-20.111 25.17c60.781 48.559 70.722 137.519 22.165 198.3l25.17 20.107c59.644-74.661 47.433-183.929-27.224-243.577"
                  transform="translate(584.7383 472.833)"/>
            <path d="m0 0c-74.66 59.648-86.875 168.916-27.228 243.577l25.17-20.107c-48.558-60.781-38.616-149.741 22.168-198.3z"
                  transform="translate(258.0381 472.833)"/>
            <path d="m0 0c-24.71 33.54-39.335 74.942-39.335 119.702 0 111.518 90.727 202.242 202.243 202.242 111.521 0 202.247-90.724 202.247-202.242 0-44.76-14.626-86.162-39.338-119.702h38.617c20.904 35.061 32.935 75.999 32.935 119.702 0 129.279-105.178 234.461-234.461 234.461-129.279 0-234.46-105.182-234.46-234.461 0-43.703 12.033-84.641 32.938-119.702z"
                  transform="translate(261.4248 743.9424)"/>
            <path d="m622.937 546.853h-402.699v32.214h402.699z"/>
            <path d="m0 0c-9.614 5.583-16.108 15.965-16.108 27.856 0 11.894 6.494 22.279 16.108 27.86v34.536c-27.759-7.172-48.324-32.426-48.324-62.396 0-29.965 20.565-55.219 48.324-62.39z"
                  transform="translate(220.2373 698.2207)"/>
            <path d="m0 0c9.615-5.581 16.108-15.964 16.108-27.859 0-11.891-6.493-22.274-16.108-27.857v-34.534c27.761 7.171 48.323 32.425 48.323 62.391 0 29.969-20.562 55.223-48.323 62.395z"
                  transform="translate(622.9365 753.9365)"/>
            <path d="m0 0c.476-.116 1.076-.208 1.791-.208h310.226c.714 0 1.316.092 1.79.208v7.339c-.474.119-1.076.209-1.79.209h-310.226c-.715 0-1.315-.09-1.791-.209zm312.017-32.423h-310.226c-19.07 0-34.007 12.925-34.007 29.431v13.325c0 16.503 14.937 29.431 34.007 29.431h310.226c19.067 0 34.004-12.928 34.004-29.431v-13.325c0-16.506-14.937-29.431-34.004-29.431"
                  transform="translate(265.3784 730.2153)"/>
            <path d="m0 0c11.708-17.098 18.74-38.789 18.74-62.385 0-54.997-38.11-99.74-84.951-99.74-46.843 0-84.949 44.743-84.949 99.74 0 23.596 7.026 45.287 18.732 62.385h-27.167c-9.506-18.312-14.986-39.627-14.986-62.385 0-67.908 48.613-123.16 108.37-123.16 59.753 0 108.367 55.252 108.367 123.16 0 22.758-5.477 44.073-14.985 62.385z"
                  transform="translate(487.8213 703.1611)"/>
        </g>
    </g>
</svg>