<svg viewBox="0 0 334 512" xmlns="http://www.w3.org/2000/svg">
    <path fill="currentColor" d="m314.2749329 213.6358032c43.3979492-126.7426758-56.6784058-213.6358032-147.6784211-213.6358032s-185.5847778 96.8757935-144.5847778 212.8757935c-27.2866211 14.1890259-31.145813 54.0275269-.5457764 73.1281128-13.5914307 44.9986572-13.0975332 82.951355 35.2896729 132.2501831v65.850708c.7954101 13.0875244 14.4642334 27.9664306 31.9223022 27.8952026h155.4468384c16.1256256-1.9008789 29.8645172-7.4317017 32.7104034-29.5291138v-67.0951538c34.9570923-20.8615112 54.8665161-82.9711914 34.3933105-129.1159058 24.2444459-14.095642 34.1698609-48.7406005 3.0464479-72.6240234zm-284.2375641 53.755188c-14.7435904-11.9352417-9.3388062-34.0578003.3511353-36.680603-.2914429 18.3598633 5.1727905 27.4669189 5.1727905 27.4669189.4127197 6.6393433-.9420777 9.1002198-5.5239258 9.2136841zm136.1384277 118.9694214-55.9280396-76.4125977 26.3554078-47.7603149h59.3425293l26.3553467 47.7603149zm117.898819-179.977417-21.3673706-.0004883c.3966064-21.2620239-15.33638-36.1627197-33.110733-35.3825073v-30h-123.7919312v31c-21.1295776-.6234131-32.6575317 11.7511597-32.9022217 34.3825073l-17.5195923.3413086c-40.9542837-111.8933105 52.2137451-171.7238159 105.4640503-173.1472778 77.8666992-2.0814819 162.8366852 86.5206299 123.2277985 172.8064575zm20.480957 61.0079956c-4.5818481-.1134644-5.9366455-2.5743408-5.5239258-9.2136841 0 0 5.4642334-9.1070557 5.1727905-27.4669189 9.6899415 2.6228027 15.0947266 24.7453613.3511353 36.680603z"/>
</svg>