<svg id="logosandtypes_com"
    xmlns="http://www.w3.org/2000/svg" viewBox="0 0 151.2 150">
    <style>.dotnet-logo-solid-class-1{fill:currentColor}</style>
    <path d="M.3 0h150v150H.3V0z" fill="none"/>
    <linearGradient id="dotnet-logo-solid-id-1" gradientUnits="userSpaceOnUse" x1="9.29" y1="75.01" x2="193.13" y2="75.01" gradientTransform="matrix(1 0 0 -1 .33 150)">
        <stop offset="0" stop-opacity="0.1" stop-color="currentColor"/>
        <stop offset=".4" stop-opacity="0.5" stop-color="currentColor"/>
        <stop offset=".85" stop-opacity="0.8" stop-color="currentColor"/>
        <stop offset="1" stop-opacity="0.9" stop-color="currentColor"/>
    </linearGradient>
    <path d="M126 45.1c-10.4 1.3-15.4 7.1-18 15.5-5 15.7-10.9 32.4-10.8 32.3-5.5-16.6-7.5-46.7-23.6-46.7H41.5c-13.8 0-32.9 25.7-41.5 59l16-.2c11.3-1.1 16.6-7.3 19.3-16 2.2-7 4-13 5.6-17.9 3.9-5.4 11.5-13.9 11.5-13.9 5.5 16.7 7.5 46.4 23.5 46.4s30.9-.1 31.3-.1c11.9-1.5 24.1-23.3 43.9-58.6l-25.1.2zm-61.1 1.2l.5-.1-.5.1z" fill="url(#dotnet-logo-solid-id-1)"/>
    <linearGradient id="dotnet-logo-solid-id-2" gradientUnits="userSpaceOnUse" x1="2.283" y1="-.513" x2="2.763" y2="-.513" gradientTransform="matrix(0 149.73 -149.73 0 -10.7 -296.61)">
        <stop offset="0" stop-opacity="0.1" stop-color="currentColor"/>
        <stop offset=".35" stop-opacity="0.5" stop-color="currentColor"/>
        <stop offset=".85" stop-opacity="0.7" stop-color="currentColor"/>
        <stop offset="1" stop-opacity="0.9" stop-color="currentColor"/>
    </linearGradient>
    <path d="M52.5 57.1C58 73.8 60 103.5 76 103.5c1.2 0 2.5-.1 3.7-.4-14.5-3.4-16.2-32.8-25-48-.8.7-1.5 1.4-2.2 2z" fill="url(#dotnet-logo-solid-id-2)"/>
    <linearGradient id="dotnet-logo-solid-id-3" gradientUnits="userSpaceOnUse" x1="2.294" y1="-.501" x2="2.774" y2="-.501" gradientTransform="rotate(90 149.916 -158.124) scale(153.55)">
        <stop offset="0" stop-opacity="0.1" stop-color="currentColor"/>
        <stop offset=".36" stop-opacity="0.5" stop-color="currentColor"/>
        <stop offset=".85" stop-opacity="0.8" stop-color="currentColor"/>
        <stop offset="1" stop-opacity="0.9" stop-color="currentColor"/>
    </linearGradient>
    <path d="M54.6 55.2c8.8 15.2 10.5 44.6 25 48 1.2-.2 2.3-.5 3.4-.9-13-6.4-16.6-34.9-26.6-48.7-.6.5-1.2 1-1.8 1.6z" fill="url(#dotnet-logo-solid-id-3)"/>
    <path d="M67.3 46.1c-1.2 0-2.5.1-3.7.3-3.5.7-6.8 2.1-9.8 4.1.9.9 1.8 1.9 2.6 3 3-2.6 6.3-4.6 10-6.1 1.2-.4 2.5-.8 3.7-1-.9-.2-1.8-.3-2.8-.3z" fill="currentColor"/>
    <linearGradient id="dotnet-logo-solid-id-4" gradientUnits="userSpaceOnUse" x1="2.143" y1="-1.756" x2="2.623" y2="-1.756" gradientTransform="rotate(-90 330.96 32.79) scale(122.18)">
        <stop offset="0" stop-opacity="0.1" stop-color="currentColor"/>
        <stop offset=".5" stop-opacity="0.5" stop-color="currentColor"/>
        <stop offset="1" stop-opacity="0.9" stop-color="currentColor"/>
    </linearGradient>
    <path d="M93.2 96.4c1.3-1.1 2.7-2.2 4-3.5-5.5-16.6-7.5-46.7-23.6-46.7-1.2 0-2.3.1-3.5.3 14.7 3.6 16.6 35.4 23.1 49.9z" fill="url(#dotnet-logo-solid-id-4)"/>
    <path class="dotnet-logo-solid-class-1" d="M92.9 99.9c-.6-.6-1.2-1.3-1.8-1.9-2.5 1.8-5.2 3.2-8.1 4.3 1 .5 2 .8 3 1 .8.2 1.7.3 2.6.3 2.5.1 5.1-.3 7.4-1.3-1.1-.8-2.2-1.5-3.1-2.4z"/>
    <linearGradient id="dotnet-logo-solid-id-5" gradientUnits="userSpaceOnUse" x1="2.335" y1="-.441" x2="2.815" y2="-.441" gradientTransform="rotate(90 172.45 -162.9) scale(159.43)">
        <stop offset="0" stop-opacity="0.1" stop-color="currentColor"/>
        <stop offset=".4" stop-opacity="0.5" stop-color="currentColor"/>
        <stop offset=".85" stop-opacity="0.8" stop-color="currentColor"/>
        <stop offset="1" stop-opacity="0.9" stop-color="currentColor"/>
    </linearGradient>
    <path d="M66.4 47.5C79.5 54.3 80.6 85.4 91.1 98c.7-.5 1.4-1 2.1-1.6-6.5-14.5-8.4-46.3-23-49.9-1.3.2-2.5.5-3.8 1z" fill="url(#dotnet-logo-solid-id-5)"/>
    <linearGradient id="dotnet-logo-solid-id-6" gradientUnits="userSpaceOnUse" x1="2.306" y1="-.515" x2="2.786" y2="-.515" gradientTransform="rotate(90 170.615 -184.095) scale(169.53)">
        <stop offset="0" stop-opacity="0.1" stop-color="currentColor"/>
        <stop offset=".39" stop-opacity="0.5" stop-color="currentColor"/>
        <stop offset=".78" stop-opacity="0.7" stop-color="currentColor"/>
        <stop offset="1" stop-opacity="0.9" stop-color="currentColor"/>
    </linearGradient>
    <path d="M56.4 53.6C66.4 67.3 70 95.9 83 102.3c2.9-1.1 5.6-2.5 8.1-4.3-10.4-12.7-11.6-43.7-24.7-50.5-3.6 1.4-7 3.5-10 6.1z" fill="url(#dotnet-logo-solid-id-6)"/>
    <linearGradient id="dotnet-logo-solid-id-7" gradientUnits="userSpaceOnUse" x1="949.173" y1="2073.559" x2="952.033" y2="2073.559" gradientTransform="matrix(4.04 0 0 4.04 -3792.29 -8315.32)">
        <stop offset="0" stop-opacity="0.1" stop-color="currentColor"/>
        <stop offset="1" stop-opacity="0.5" stop-color="currentColor"/>
    </linearGradient>
    <path d="M46.1 56.7c-1.9 4.7-3.7 9.5-5.1 14.3 3.4-5 7.3-9.6 11.5-13.9-.5-1.5-1.1-3-1.7-4.5-1.6 1.3-3.2 2.7-4.7 4.1z" fill="url(#dotnet-logo-solid-id-7)"/>
    <path d="M52.2 51.6c-.5.3-.9.7-1.4 1 .6 1.5 1.2 2.9 1.7 4.5.7-.7 1.4-1.3 2.1-2-.7-1.2-1.5-2.4-2.4-3.5z" fill="currentColor"/>
    <path d="M53.8 50.5c-.5.3-1.1.7-1.7 1.1.9 1.1 1.7 2.3 2.4 3.5.6-.5 1.2-1.1 1.8-1.6-.7-1-1.5-2-2.5-3z" fill="currentColor"/>
    <linearGradient id="dotnet-logo-solid-id-8" gradientUnits="userSpaceOnUse" x1="2.134" y1="-2.174" x2="2.614" y2="-2.174" gradientTransform="rotate(-90 370.376 -16.006) scale(119.02)">
        <stop offset="0" stop-opacity="0.1" stop-color="currentColor"/>
        <stop offset=".6" stop-opacity="0.5" stop-color="currentColor"/>
        <stop offset="1" stop-opacity="0.9" stop-color="currentColor"/>
    </linearGradient>
    <path d="M143.1 44.8c-7.4 28.6-22.9 51.5-35.8 57.3-.2.1-.5.2-.7.3h-.1l-.2.1h-.1l-.3.1h-.3l-.2.1h-.1c-.1 0-.2.1-.3.1h-.3-.1l-.2.1h-.3c.6.2 1.2.3 1.8.3 12.3 0 24.7-22 45.2-58.7H143l.1.3z" fill="url(#dotnet-logo-solid-id-8)"/>
    <path d="M46.1 56.7c1.5-1.4 3.1-2.8 4.7-4-.3-.7-.7-1.5-1.1-2.2-1.5 2-2.7 4-3.6 6.2zm1.1-9.2c1 .9 1.8 1.9 2.5 3 .2-.3.5-.5.7-.8-1-.9-2.1-1.7-3.3-2.3l.1.1" fill="currentColor"/>
    <linearGradient id="dotnet-logo-solid-id-9" gradientUnits="userSpaceOnUse" x1="2.143" y1="-1.224" x2="2.623" y2="-1.224" gradientTransform="rotate(-90 267.995 95.075) scale(121.87)">
        <stop offset="0" stop-opacity="0.1" stop-color="currentColor"/>
        <stop offset="1" stop-opacity="0.5" stop-color="currentColor"/>
    </linearGradient>
    <path d="M9.1 91.1c12.6-24.3 18.6-39.7 29.2-43.9-10.9 4.3-23.2 20.4-29.2 43.9z" fill="url(#dotnet-logo-solid-id-9)"/>
    <path d="M50.4 49.7c-.3.3-.5.5-.7.8.4.7.8 1.4 1.1 2.2.5-.4.9-.7 1.4-1-.6-.7-1.2-1.4-1.8-2" fill="currentColor"/>
    <linearGradient id="dotnet-logo-solid-id-10" gradientUnits="userSpaceOnUse" x1="2.154" y1="-1.27" x2="2.634" y2="-1.27" gradientTransform="rotate(-90 267.265 89.415) scale(118.46)">
        <stop offset="0" stop-opacity="0.1" stop-color="currentColor"/>
        <stop offset="1" stop-opacity="0.5" stop-color="currentColor"/>
    </linearGradient>
    <path d="M14.9 104.9h-1c12.8-.4 18.6-6.8 21.5-16 2.2-7 4-13 5.6-17.9-5.9 8.5-11.3 17.4-16.2 26.6-1.9 4-5.6 6.7-9.9 7.3z" fill="url(#dotnet-logo-solid-id-10)"/>
    <linearGradient id="dotnet-logo-solid-id-11" gradientUnits="userSpaceOnUse" x1="2.21" y1="-1.353" x2="2.69" y2="-1.353" gradientTransform="matrix(0 -100.1 100.1 0 165.96 326)">
        <stop offset="0" stop-opacity="0.1" stop-color="currentColor"/>
        <stop offset=".5" stop-opacity="0.5" stop-color="currentColor"/>
        <stop offset=".92" stop-opacity="0.8" stop-color="currentColor"/>
        <stop offset="1" stop-opacity="0.9" stop-color="currentColor"/>
    </linearGradient>
    <path d="M14.9 104.9c4.3-.6 8.1-3.4 10-7.3 4.8-9.2 10.2-18 16.1-26.6 1.5-4.9 3.2-9.7 5.1-14.3-10.7 10.2-21.4 27-31.2 48.2z" fill="url(#dotnet-logo-solid-id-11)"/>
    <path d="M9.1 91.1c-2.3 4.4-4.7 9-7.5 13.9h4.8c.7-4.6 1.6-9.3 2.7-13.9z" fill="currentColor"/>
    <linearGradient id="dotnet-logo-solid-id-12" gradientUnits="userSpaceOnUse" x1="1.75" y1="-3.283" x2="2.231" y2="-3.283" gradientTransform="rotate(-90 237.76 -66.29) scale(56.72)">
        <stop offset="0" stop-opacity="0.1" stop-color="currentColor"/>
        <stop offset=".87" stop-opacity="0.5" stop-color="currentColor"/>
        <stop offset="1" stop-opacity="0.9" stop-color="currentColor"/>
    </linearGradient>
    <path d="M114.2 60.6c-2.4 7.8-4.4 14.2-6.1 19.5 6.7-9.2 13.2-20.7 19.5-34-7.3 2.3-11.2 7.5-13.4 14.5z" fill="url(#dotnet-logo-solid-id-12)"/>
    <linearGradient id="dotnet-logo-solid-id-13" gradientUnits="userSpaceOnUse" x1="2.532" y1="-.005" x2="3.012" y2="-.005" gradientTransform="scale(-132.8) rotate(-80.001 .587 1.934)">
        <stop offset="0" stop-opacity="0.1" stop-color="currentColor"/>
        <stop offset=".96" stop-opacity="0.5" stop-color="currentColor"/>
        <stop offset="1" stop-opacity="0.9" stop-color="currentColor"/>
    </linearGradient>
    <path d="M108.3 101.6c-.3.2-.7.3-1 .5 13-5.8 28.4-28.7 35.8-57.3h-1.5c-16.9 30.4-22.4 50.8-33.3 56.8z" fill="url(#dotnet-logo-solid-id-13)"/>
    <path d="M99.9 99.1c2.8-3.4 5.1-9.3 8.3-18.9-3.2 4.6-6.9 8.8-10.9 12.7.6 2.1 1.5 4.2 2.6 6.2z" fill="currentColor"/>
    <path class="dotnet-logo-solid-class-1" d="M99.9 99.1c-.9 1.1-1.9 2-3.1 2.7-.3.1-.5.3-.8.4 1.2.7 2.6 1.1 4 1.3l.7.1H103.5l.6-.1c-1.9-.8-3.4-2.3-4.3-4.1l.1-.3z"/>
    <path d="M76 103.5c1.2 0 2.5-.1 3.7-.4 1.2-.2 2.3-.5 3.4-.9 1.7.8 3.6 1.3 5.6 1.3H76zm12.6 0c2.5.1 5.1-.3 7.4-1.3 1.2.7 2.6 1.1 4 1.3l.7.1h.3l-12.4-.1z" fill="currentColor"/>
    <path d="M101.3 103.5h2.1c.2 0 .4-.1.6-.1.6.2 1.2.3 1.9.3h-4.7l.1-.2z" fill="currentColor"/>
    <path d="M97.2 92.9c-1.3 1.3-2.7 2.5-4 3.5-.7.6-1.4 1.1-2.1 1.6.6.7 1.2 1.4 1.8 2 .9.9 2 1.7 3.1 2.3.3-.1.5-.3.8-.4 1.2-.7 2.2-1.6 3.1-2.7-1.1-2.1-2-4.1-2.7-6.3z" fill="currentColor"/>
    <linearGradient id="dotnet-logo-solid-id-14" gradientUnits="userSpaceOnUse" x1="2.358" y1=".068" x2="2.838" y2=".068" gradientTransform="rotate(90 187.985 -58.845) scale(123.74)">
        <stop offset="0" stop-opacity="0.1" stop-color="currentColor"/>
        <stop offset=".5" stop-opacity="0.5" stop-color="currentColor"/>
        <stop offset="1" stop-opacity="0.9" stop-color="currentColor"/>
    </linearGradient>
    <path d="M136.9 44.8h-7.6c-.4 0-.8 0-1.2.1l-.6 1.2c-6.3 13.3-12.8 24.8-19.5 34-3.1 9.6-5.4 15.5-8.3 18.9.9 1.8 2.4 3.3 4.3 4.1h.8l.3-.1h.1l.2-.1h.3l.3-.1h.1l.2-.1h.1l.7-.3c.3-.2.7-.3 1-.5 10.8-6 16.3-26.4 33.3-56.8h-4.7l.2-.3z" fill="url(#dotnet-logo-solid-id-14)"/>
    <path d="M50.4 49.7c.6.6 1.2 1.3 1.8 2 .5-.4 1.1-.8 1.7-1.1-.7-.7-1.5-1.4-2.3-1.9-.4.3-.8.6-1.2 1" fill="currentColor"/>
    <linearGradient id="dotnet-logo-solid-id-15" gradientUnits="userSpaceOnUse" x1="1.08" y1=".962" x2="1.53" y2=".962" gradientTransform="matrix(28.5 11.82 -11.82 28.5 26.24 3.46)">
        <stop offset="0" stop-opacity="0.1" stop-color="currentColor"/>
        <stop offset=".7" stop-opacity="0.5" stop-color="currentColor"/>
        <stop offset="1" stop-opacity="0.9" stop-color="currentColor"/>
    </linearGradient>
    <path d="M42.8 46.2h1c2.8 0 5.5.9 7.7 2.5 2.4-1.9 5.2-2.5 9.2-2.5.1-.1-18.3-.1-17.9 0" fill="url(#dotnet-logo-solid-id-15)"/>
    <linearGradient id="dotnet-logo-solid-id-16" gradientUnits="userSpaceOnUse" x1="-.82" y1="-.603" x2="-.33" y2="-.603" gradientTransform="rotate(-24.4 167.358 -148.909) scale(24.72)">
        <stop offset="0" stop-opacity="0.1" stop-color="currentColor"/>
        <stop offset="1" stop-opacity="0.5" stop-color="currentColor"/>
    </linearGradient>
    <path d="M60.8 46.1c-4 0-6.8.7-9.2 2.5.8.6 1.6 1.2 2.3 1.9 3-2 6.3-3.4 9.8-4.1 1.2-.2 2.4-.3 3.7-.4h-6.6z" fill="url(#dotnet-logo-solid-id-16)"/>
    <linearGradient id="dotnet-logo-solid-id-17" gradientUnits="userSpaceOnUse" x1="2.337" y1=".02" x2="2.817" y2=".02" gradientTransform="rotate(90 174.825 -59.735) scale(121.03)">
        <stop offset="0" stop-opacity="0.1" stop-color="currentColor"/>
        <stop offset="1" stop-opacity="0.5" stop-color="currentColor"/>
    </linearGradient>
    <path d="M108.1 80.1c1.7-5.3 3.7-11.7 6.1-19.5 2.2-7 6.1-12.3 13.4-14.5l.6-1.2c-11.9.7-17.4 6.8-20.2 15.7-4.9 15.6-7.8 25.8-10.7 32.2 3.9-3.9 7.6-8.1 10.8-12.7z" fill="url(#dotnet-logo-solid-id-17)"/>
    <linearGradient id="dotnet-logo-solid-id-18" gradientUnits="userSpaceOnUse" x1="6.16" y1="74.357" x2="49.36" y2="74.357" gradientTransform="matrix(1 0 0 -1 .33 150)">
        <stop offset="0" stop-color="currentColor"/>
        <stop offset="1" stop-opacity="0.5" stop-color="currentColor"/>
    </linearGradient>
    <path d="M6.5 105.1l8.4-.1c4.4-9.6 9.5-19 15.2-28 4.6-7.4 9.9-14.2 16.1-20.3.9-2.2 2.1-4.3 3.6-6.2-.7-1.5-2-2.8-3.5-3.5-2.4-1.1-5.2-1-7.6.2-3.7 1.3-7.2 4.3-10.5 9-5.8 8.8-12.2 20.7-19 35-1.2 4.5-2.1 9.2-2.7 13.9z" fill="url(#dotnet-logo-solid-id-18)"/>
    <linearGradient id="dotnet-logo-solid-id-19" gradientUnits="userSpaceOnUse" x1="-.33" y1="74.47" x2="42.51" y2="74.47" gradientTransform="matrix(1 0 0 -1 .33 150)">
        <stop offset="0" stop-opacity="0.1" stop-color="currentColor"/>
        <stop offset="1" stop-opacity="0.5" stop-color="currentColor"/>
    </linearGradient>
    <path d="M0 105h1.7c2.7-4.8 5.2-9.5 7.5-13.9 2.4-9.9 6.5-19.4 12-28 6.3-9.7 13.5-15.6 21.7-17-4.6-.6-10.3 1.4-19 10.6-5.5 6-10.5 14.3-15.2 24.1C5 88.6 2.1 96.7 0 105z" fill="url(#dotnet-logo-solid-id-19)"/>
    <path d="M50.4 49.7c-2.1-2-4.7-3.2-7.6-3.6 2-.2 3.9.1 5.7.8 1.1.4 2.1.9 3 1.7l-1.1 1.1z" fill="currentColor"/>
</svg>
