<svg xmlns="http://www.w3.org/2000/svg" role="img" viewBox="0.92 -5.08 357.16 368.16">
    <defs>
        <linearGradient id="dragonfly-icon-color-linear-gradient" x1="8.049" x2="223.705" y1="185.068" y2="185.068"
                        gradientTransform="matrix(1 0 0 -1 0 362)" gradientUnits="userSpaceOnUse">
            <stop offset="0" stop-color="#006934" stop-opacity="0"/>
            <stop offset="1" stop-color="#006934"/>
        </linearGradient>
    </defs>
    <path fill="#4aba58" d="M228.765 30.362L179.644 2l-49.093 28.362 49.093 28.335 49.121-28.335z" class="cls-1"/>
    <path fill="#4aba58" d="M152.896 215.413l7.001 129.366 19.747 11.405 19.774-11.405 7.002-129.366-26.776-15.453-26.748 15.453z" />
    <path fill="#4aba58" d="M265.496 108.474L351.24 58.97l-35.91-20.758a27.35 27.35 0 0 0-13.676-3.802 25.819 25.819 0 0 0-13.183 3.555l-72.532 41.9z" />
    <path fill="#4aba58" d="M265.414 150.43l85.743 49.503-35.938 20.759a27.35 27.35 0 0 1-13.675 3.802 25.818 25.818 0 0 1-13.183-3.556l-72.505-41.873z" />
    <path fill="#4aba58" d="M130.086 129.424L8.049 199.906l35.938 20.731a27.35 27.35 0 0 0 13.675 3.802 25.818 25.818 0 0 0 13.183-3.556L179.7 157.978z" />
    <path fill="#4aba58" d="M179.644 158.033L8.049 58.97l35.91-20.758a27.35 27.35 0 0 1 13.676-3.802 25.819 25.819 0 0 1 13.183 3.555l158.412 91.46z" />
    <path fill="url(#dragonfly-icon-color-linear-gradient)" d="M130.086 129.424L8.049 199.906l35.938 20.731a27.35 27.35 0 0 0 13.675 3.802 25.818 25.818 0 0 0 13.183-3.556l78.769-45.51a19.774 19.774 0 0 0 .793-34.243 1040.537 1040.537 0 0 1-20.321-11.706z" />
</svg>