<svg xmlns="http://www.w3.org/2000/svg" viewBox="0 0 1000 251.6">
    <path fill="currentColor"
          d="M124.1,0H0V251.6H124.1c66.2,0,96.1-44.5,96.1-124.8C220.2,60.6,202.5,0,124.1,0m-5.7,202.7H62.6V48.6h55.8c24.5,0,39.2,12.8,39.2,77.8,0,49.7-10.3,76.3-39.2,76.3"/>
    <path fill="currentColor"
          d="M439.8,104.9v-34.8c0-1.3,.1-2.3,.3-3.2,.9-7.6,4.8-15.1,10.4-20.2C440.1,11.5,411.2-.1,374.5-.1h-123.3V251.5h62.6v-97.3l36.3,4.8,41.6,92.5h70.9l-50.7-97.4c11.5-3.7,26.8-8.5,35.7-29.5-3.9-4.8-6.7-10.7-7.4-16.7-.2-.7-.4-1.7-.4-3m-72.4,6.1h-53.3V49h53.3c16.8,0,24.4,7.9,24.4,30.5,0,24.8-5.4,31.5-24.4,31.5"/>
    <path fill="currentColor"
          d="M707.8,121c27.4-3.4,39.4-30.8,39.4-53.1,0-39-22.5-67.9-81.1-67.9h-117.9V43.7c8.5,5.5,14.6,16.4,14.6,26.4v34.8c0,7.8-3.6,16.1-9.5,22,5.8,5.9,9.5,14.2,9.5,22.1v34.8c0,10.1-6.1,20.9-14.6,26.4v41.4h119.4c58.8,0,85.2-24.2,85.2-75.3-.1-29.4-19.4-51.4-45-55.3m-96.9-72.4h50.9c11.3,0,23.9,5,23.9,24.7,0,14.3-8.2,23.6-23.9,23.6h-50.9V48.6Zm53.8,154.4h-53.8v-60h53.8c19.2,0,25.5,14.7,25.5,30.6-.1,21.5-10.1,29.4-25.5,29.4"/>
    <path fill="currentColor"
          d="M903.9,0h-124.1V251.6h124.1c66.2,0,96.1-44.5,96.1-124.8,0-66.2-17.6-126.8-96.1-126.8m-5.7,202.7h-55.8V48.6h55.8c24.5,0,39.2,12.8,39.2,77.8,0,49.7-10.3,76.3-39.2,76.3"/>
    <path fill="currentColor"
          d="M539.7,55.8l-30.1-17.4c-4.6-2.6-12-2.6-16.6,0l-30.1,17.4c-4.3,2.5-7.7,8.2-8.1,13.3,0,.4-.2,.7-.2,1.1v34.8c0,.3,.1,.7,.2,1.1,.4,4.5,3.1,9.3,6.7,12.1l24-13.9c5.7-3.3,11.8-4,15.8-4s10.1,.7,15.8,4l24,13.8c3.9-3,6.9-8.5,6.9-13.2v-34.8c0-5.2-3.7-11.7-8.3-14.3"/>
    <path fill="currentColor"
          d="M541.1,135.8c-.5-.4-.9-.9-1.4-1.1l-13.3-7.7-16.8-9.7c-2.3-1.3-5.3-2-8.3-2s-6,.7-8.3,2l-16.8,9.7-13.3,7.7c-.5,.3-.9,.8-1.4,1.2-3.6,2.8-6.3,7.7-6.7,12.1,0,.4-.2,.7-.2,1.1v34.7c0,.3,.1,.7,.2,1.1,.4,5.1,3.9,10.8,8.1,13.3l30.1,17.4c2.3,1.3,5.3,2,8.3,2s6-.7,8.3-2l30.1-17.4c4.6-2.6,8.3-9.1,8.3-14.4v-34.8c0-4.6-3-10.1-6.9-13.2"/>
</svg>
