<?xml version="1.0" encoding="utf-8"?>
<svg viewBox="-363.332 -478.789 1511.743 1511.752" width="1511.743" height="1511.752" xmlns="http://www.w3.org/2000/svg">
    <path fill="none" d="M 1143.271 277.812 C 1143.271 -123.57 794.651 -472.189 393.269 -472.189 C -8.112 -472.188 -356.729 -123.568 -356.729 277.813 C -356.729 679.193 -8.111 1027.813 393.271 1027.813 C 794.651 1027.813 1143.271 679.193 1143.271 277.812 Z" />
    <path fill="currentColor" fill-rule="evenodd" d="M 940.151 332.212 C 940.151 517.02 821.591 618.853 821.591 749.773 C 821.591 866.153 889.741 802.453 889.741 802.453 C 889.741 802.453 735.301 1008.413 393.876 1008.413 C 52.452 1008.413 -109.426 802.453 -109.426 802.453 C -109.426 802.453 -51.238 866.153 -51.238 735.223 C -51.238 604.303 -152.395 531.563 -152.395 332.212 C -152.395 4.45 117.156 -159.432 393.876 -159.432 C 670.601 -159.432 940.151 4.45 940.151 332.212 Z M 403.808 615.283 L 403.808 357.048 C 354.147 357.048 294.554 406.709 294.554 406.709 Z M 403.817 357.047 L 403.817 615.283 L 508.105 406.708 C 508.105 406.708 453.478 357.047 403.817 357.047 Z M 352.929 295.433 C 311.551 253.545 101.942 43.2 55.611 121.733 C 8.191 202.08 36.305 306.084 118.393 354.016 C 200.48 401.998 352.929 295.433 352.929 295.433 Z M 748.781 126.796 C 703.661 47.646 490.899 254.786 448.954 296.092 C 448.954 296.092 599.763 404.911 682.571 358.157 C 765.371 311.403 795.021 207.808 748.781 126.796 Z"/>
    <circle fill="currentColor" cx="587.465" cy="254.466" r="56.33" />
    <circle fill="currentColor" cx="221.089" cy="254.466" r="56.33" />
    <path fill="currentColor" d="M 637.219 -111.874 C 684.721 -145.141 714.661 -191.221 706.741 -255.239 C 630.05 -269.379 536.831 -187.469 478.304 -138.78 C 467.504 -139.329 449.512 -140.336 438.575 -140.382 C 517.968 -228.744 593.031 -334.404 508.1 -335.319 C 444.128 -336.006 392.337 -250.755 349.185 -165.962 C 386.525 -263.522 407.518 -369.365 299.524 -351.015 C 192.492 -332.848 248.086 -213.232 279.66 -120.934 L 637.219 -111.874 Z" />
    <path fill="currentColor" fill-rule="evenodd" d="M 392.542 -420.6 C 7.221 -420.6 -305.143 -108.235 -305.143 277.086 C -305.143 662.403 7.221 974.773 392.542 974.773 C 777.861 974.773 1090.231 662.403 1090.231 277.086 C 1090.231 -108.235 777.861 -420.6 392.542 -420.6 Z M -363.332 277.086 C -363.332 -140.372 -24.916 -478.789 392.542 -478.789 C 810.001 -478.789 1148.411 -140.372 1148.411 277.086 C 1148.411 694.543 810.001 1032.963 392.542 1032.963 C -24.916 1032.963 -363.332 694.543 -363.332 277.086 Z" />
</svg>