<?xml version="1.0" encoding="utf-8"?>
<svg xmlns="http://www.w3.org/2000/svg" viewBox="0 0 200 165">
  <path fill="currentColor" d="M 20 0 L 180 0 C 191.046 0 200 8.954 200 20 L 200 145 C 200 156.046 191.046 165 180 165 L 20 165 C 8.954 165 0 156.046 0 145 L 0 20 C 0 8.954 8.954 0 20 0 Z M 158.207 100.68 C 157.75 99.669 157.307 98.655 156.838 97.649 C 148.927 80.668 139.298 64.542 128.102 49.523 C 125.37 45.859 122.546 42.264 119.629 38.738 L 119.629 109.153 L 161.879 109.153 C 160.707 106.312 159.483 103.488 158.207 100.68 Z M 128.102 100.68 L 128.102 64.14 C 135.983 75.754 142.935 87.972 148.894 100.68 Z M 102.935 24.104 C 85.611 47.355 72.072 73.2 62.82 100.68 C 61.871 103.492 60.958 106.315 60.102 109.153 L 111.408 109.153 L 111.408 13.319 C 108.492 16.845 105.668 20.44 102.935 24.104 Z M 102.935 100.68 L 71.765 100.68 C 79.42 78.761 89.899 57.933 102.935 38.721 Z M 55.753 109.153 C 64.952 76.978 80.117 46.819 100.458 20.247 L 89.757 26.746 C 87.155 28.326 84.566 29.961 82.01 31.625 C 66.384 55.499 54.554 81.653 46.944 109.153 Z M 33.937 109.153 L 42.687 109.153 C 46.758 93.515 52.243 78.279 59.074 63.635 C 62.872 55.49 67.049 47.589 71.605 39.934 C 65.836 44.122 60.217 48.521 54.75 53.132 C 53.604 55.422 52.486 57.729 51.395 60.054 C 44.033 75.83 38.187 92.27 33.937 109.153 Z M 162.234 126.825 L 162.234 137.011 L 73.527 137.198 L 67.155 126.998 Z M 51.889 118.552 L 68.836 145.682 L 170.707 145.466 L 170.707 118.336 Z M 64.456 145.681 L 47.51 118.552 L 37.519 118.552 L 54.466 145.681 Z M 50.229 145.681 L 33.283 118.552 L 23.293 118.552 L 40.239 145.681 Z"/>
</svg>