<svg xmlns="http://www.w3.org/2000/svg" viewBox="0 0 708.66144 708.66144">
    <path fill="currentColor" fill-opacity="0.5" d="M683.82836,220.61131c-15.2089-2.12216-48.80994-2.82955-115.30459,10.96455a92.7002,92.7002,0,0,1-24.05128,2.47587c-8.48866-.70739-17.68476-3.18326-25.81976-5.65912-36.43061-12.37933-66.4947-8.48869-84.17946.70739h0c-9.90348,5.30543-17.68476,12.02565-26.17345,23.34388-10.96454,14.8552-33.95473,60.12818-65.4336,72.15381h0c-17.68476,11.31823-36.78431,22.99018-53.408,39.61384-10.61085,10.96455-13.44043,36.78431-41.38232,61.89666h0c-31.12519,45.273-66.84841,78.16665-103.279,102.21791-52.70058,36.78433-96.91248,48.10256-96.91248,48.10256s117.0731,32.18628,245.46445-27.9419c97.61986-45.98037,148.19828-135.46526,159.87023-155.27218l63.66513-108.23072c5.65915-9.90346,15.91629-22.63649,25.466-27.58822,3.18323-1.76847,6.0128-2.82955,6.72018-3.537,7.0739-3.53695,14.50153-6.36651,21.92909-9.19607,44.56561-15.91628,90.89965-17.33106,112.47507-19.80692,2.82958-.70739,2.47586-3.89064.35372-4.24434Z"/>
    <path fill="currentColor" fill-opacity="0.5" d="M683.82836,220.61131c-15.2089-2.12216-48.80994-2.82955-115.30459,10.96455a92.7002,92.7002,0,0,1-24.05128,2.47587c-8.48866-.70739-17.68476-3.18326-25.81976-5.65912-37.49171-12.37933-66.141-9.19607-84.17946.70739-9.90348,5.30543-17.68476,12.02565-26.17345,23.34388-10.96454,14.8552-33.95473,60.12818-65.4336,72.15381h0c-35.36952-33.24734-66.49471-61.18927-96.5588-85.94793-16.97735-13.44041-33.601-26.17343-47.74884-35.36951-36.0769-24.75867-72.50751-47.04146-108.93811-64.37252-16.27-7.4276-33.24735-14.14781-51.99319-21.22171-8.135-2.47587-12.733,1.41478-14.14781,7.78129-.70739,2.12218-1.41478,7.7813,2.12218,17.68476,8.135,21.9291,20.16062,47.04146,34.66212,72.50751h0c5.30543,9.54977,11.31825,19.45323,17.68476,29.35669,29.3567,45.98037,66.141,92.31444,103.63268,128.74505,8.135,7.78128,15.91628,14.85519,24.405,21.5754a352.04752,352.04752,0,0,0,31.83256,23.69756c1.06109.70738,6.36652,3.89065,9.90347,6.01281,7.0739,3.89064,16.62366,8.48869,22.6365,10.96455,29.7104,13.08671,55.53013,16.97737,78.16662,16.62366,39.26016,1.06109,71.09273-11.31824,86.65532-32.18626a284.23751,284.23751,0,0,0,18.03847-27.58823l63.66513-108.23072c5.65915-9.90346,15.91629-22.63649,25.466-27.58822,3.18323-1.76847,6.0128-2.82955,6.72018-3.537,6.72019-3.18326,6.72019-2.12216,13.79409-4.95174,45.273-15.91628,99.38836-21.5754,120.96374-24.05126a1.9595,1.9595,0,0,0,0-3.89065Z"/>
    <path fill="currentColor" fill-opacity="0.6" d="M22.77208,129.358c0-1.06109.3537-2.12217,0-2.82956A3.87444,3.87444,0,0,1,22.77208,129.358Z"/>
    <path fill="currentColor" fill-opacity="0.5" d="M52.48248,122.63775h0a3.18858,3.18858,0,0,0-1.76848-.3537c1.06108.3537,2.12217,1.06109,3.18326,1.41478C53.89726,123.34514,53.18986,122.99144,52.48248,122.63775Z"/>
    <path fill="currentColor" fill-opacity="0.9" d="M63.447,127.23579c-.3537,0-1.06108-.3537-1.41478-.3537,1.06108.3537,2.12217,1.06109,2.82956,1.06109C64.15441,127.58948,63.80072,127.23579,63.447,127.23579Z"/>
    <path fill="currentColor" fill-opacity="0.3" d="M271.06609,330.96421c25.11235,3.18326,49.51732,1.41479,71.44644-7.0739h0c-21.22171-19.80693-41.38233-37.84539-60.12818-54.11536h0c-9.54979-8.135-18.74586-16.27-27.58824-23.69758-.35369-.3537-1.06109-.70739-1.06109-1.0611-2.47586-2.12216-4.598-3.89064-6.72019-5.65911-.70741-.35369-1.06109-1.06109-1.41478-1.06109-16.97738-13.44041-33.60105-25.81974-47.04147-35.36951-36.0769-24.405-72.15381-47.04146-108.58441-64.37253-3.18326-1.76847-6.36651-2.82956-9.90347-4.598-1.06108-.3537-2.12217-1.06109-2.82955-1.06109C218.01181,208.93938,262.93111,277.90993,271.06609,330.96421Z"/>
    <path fill="currentColor" fill-opacity="0.3" d="M28.07751,149.87228h0c-1.06108-2.12217-1.76847-4.598-2.82956-7.0739C26.309,144.92055,27.01643,147.39641,28.07751,149.87228Z"/>
    <path fill="currentColor" fill-opacity="0.5" d="M22.77208,130.419c0-.35369,0-.35369.3537-.70739C23.12578,130.06535,23.12578,130.06535,22.77208,130.419Z"/>
    <path fill="currentColor" fill-opacity="0.6" d="M37.981,117.33232c4.598,1.76848,8.84238,3.18326,13.08672,4.95173C46.46966,120.51558,42.22532,118.7471,37.981,117.33232Z"/>
    <path fill="currentColor" fill-opacity="0.2" d="M22.77208,130.419A41.64014,41.64014,0,0,0,25.248,142.79838h0A41.64046,41.64046,0,0,1,22.77208,130.419Z"/>
    <path fill="currentColor" fill-opacity="0.5" d="M75.119,132.18752l2.12218,1.06109h0c-3.89065-1.76848-8.135-3.537-12.37934-5.30543,1.41478.70739,2.47587,1.06108,3.89065,1.76847A47.23574,47.23574,0,0,1,75.119,132.18752Z"/>
    <path fill="currentColor" fill-opacity="0.5" d="M116.855,256.68822C79.00961,226.27043,43.2864,183.827,28.07751,150.226,63.447,239.71085,155.40778,366.68742,237.46505,419.03431c1.41478,1.0611,6.36652,3.89064,10.25716,6.01281,10.61086-16.27,30.06409-49.871,23.34388-94.08291C220.48769,324.244,166.01863,296.65578,116.855,256.68822Z"/>
    <path fill="currentColor" fill-opacity="0.5" d="M62.03225,126.88209l-7.4276-3.18325c.3537,0,.70739.35369,1.06108.35369C57.43421,124.75992,59.55638,125.821,62.03225,126.88209Z"/>
    <path fill="currentColor" fill-opacity="0.2" d="M116.855,256.68822c49.16363,39.96756,103.63269,67.20209,154.21109,73.9223-8.135-52.70059-53.05428-122.02485-193.82495-197.36191a11.77472,11.77472,0,0,1-2.12217-1.06109c-2.12217-1.06109-4.24434-1.76848-6.01282-2.82956-1.41478-.70739-2.47587-1.06108-3.89065-1.76848-1.06108-.35369-2.12217-1.06108-2.82955-1.06108a37.71244,37.71244,0,0,0-6.72021-2.47587c-.3537,0-.70739-.35369-1.06109-.35369-1.06108-.3537-2.12217-1.06109-3.18326-1.41479-4.24434-1.41477-8.48868-3.53695-13.08672-4.95173-8.135-2.47586-12.733,1.41478-14.5015,7.4276a12.5068,12.5068,0,0,0-.3537,2.12218c-.35369.70739,0,1.76847,0,2.82956,0,.35369,0,.35369-.35369.70739h0a41.64038,41.64038,0,0,0,2.47586,12.37933h0a63.76658,63.76658,0,0,0,2.82956,7.4276C43.2864,183.827,79.3633,226.27045,116.855,256.68822Z"/>
    <path fill="currentColor" fill-opacity="0.5" d="M116.855,256.68822c49.16363,39.96756,103.63269,67.20209,154.21109,73.9223-8.135-52.70059-53.05428-122.02485-193.82495-197.36191a11.77472,11.77472,0,0,1-2.12217-1.06109c-2.12217-1.06109-4.24434-1.76848-6.01282-2.82956-1.41478-.70739-2.47587-1.06108-3.89065-1.76848-1.06108-.35369-2.12217-1.06108-2.82955-1.06108a37.71244,37.71244,0,0,0-6.72021-2.47587c-.3537,0-.70739-.35369-1.06109-.35369-1.06108-.3537-2.12217-1.06109-3.18326-1.41479-4.24434-1.41477-8.48868-3.53695-13.08672-4.95173-8.135-2.47586-12.733,1.41478-14.5015,7.4276a12.5068,12.5068,0,0,0-.3537,2.12218c-.35369.70739,0,1.76847,0,2.82956,0,.35369,0,.35369-.35369.70739h0a41.64038,41.64038,0,0,0,2.47586,12.37933h0a63.76658,63.76658,0,0,0,2.82956,7.4276C43.2864,183.827,79.3633,226.27045,116.855,256.68822Z"/>
    <path fill="currentColor" fill-opacity="0.3" d="M683.82836,220.61131c-15.2089-2.12216-48.80994-2.82955-115.30459,10.96455a92.7002,92.7002,0,0,1-24.05128,2.47587c-8.48866-.70739-17.68476-3.18326-25.81976-5.65912-21.22171-7.0739-39.26019-9.19607-53.76165-8.135a71.60382,71.60382,0,0,0-35.01583,12.02564,76.83166,76.83166,0,0,0-21.22171,20.51431c-10.96455,14.8552-33.95473,60.12818-65.43361,72.15382h0c24.75866,23.34388,62.95773,42.79711,98.681,31.12519,34.30842-11.31824,55.53013-41.736,62.25037-51.63949,14.14781-20.868,21.92909-28.6493,22.63647-29.7104,1.76848-1.76848,14.85519-16.97737,42.0897-26.17345,40.32123-13.44041,101.15684-21.5754,115.65831-22.99018,1.76848-1.41479,1.41476-4.598-.70738-4.95174Z"/>
    <circle fill="currentColor" fill-opacity="0.9" cx="485.97008" cy="259.243" r="10.6112"/>

</svg>