<svg xmlns="http://www.w3.org/2000/svg" role="img" viewBox="-3.45 35.55 439.40 362.15">
    <path fill="currentColor" fill-opacity="0.6"
          d="M425.4 191.3h-7.5c-13.7-.2-40.1 1.3-63.9 21.9-57 49.3-70 122-167.5 161.2C105.2 407.1 5 376.2 5 376.2s89.4-6.2 101.2-74.4c9.3-53.3-39.3-91.2-69.7-139.3-31-49-38.9-89.7-24-107.3 42.3-50 158.8 85.1 216.7 103.3C285.8 176.3 324 135 370.9 141c15 1.9 22.3 8.4 27.1 16.6 1.6 2.8 5.7 12.2 9.3 15.7 3.5 3.4 8.2 5.9 12.6 8.5 5.5 3.3 11 9.5 5.5 9.5z" />
    <path fill="currentColor" fill-opacity="0.3"
          d="M157.7 113.2c-14-10.7-28.4-21.8-42.7-32-3.2-2.3-6.4-4.5-9.6-6.7C67.3 48.4 32 32.1 12.5 55.2c-14.9 17.6-7 58.3 24 107.3.3.5.6 1 1 1.5 16.2 25 63 83.6 174.1 81.1 7.3-7.8 18.4-22.4 32.8-38.4-23.4-37.6-58.4-70.4-86.7-93.5z" />
    <path fill="currentColor" fill-opacity="0.6"
          d="M269.6 289.9c.4-16.7-2.6-33.1-8.4-49-14.6 2.2-31 3.7-49.7 4.1-13.6 14.4-44.6 53-96.1 87.8C47 379.1 5 376.2 5 376.2s100.2 30.9 181.4-1.7c29.1-11.7 50.7-26.4 68.2-42.6 2.9-2.8 14.4-17 15-42z" />
    <path fill="currentColor" fill-opacity="0.4"
          d="M244.3 206.7c-14.3 15.9-25.5 30.6-32.8 38.4 18.7-.4 35.1-1.9 49.7-4.1-1.7-4.7-3.7-9.4-5.9-14-3.2-7-6.9-13.7-11-20.3z" />
    <path fill="currentColor" fill-opacity="0.5"
          d="M327.6 146.3c-30 9.1-59.9 24.3-98.4 12.2-19.1-6-44.5-24.7-71.5-45.2 28.3 23.1 63.4 55.8 86.7 93.5 21.2-23.7 49.5-49.9 83.2-60.5z" />
    <path fill="currentColor" fill-opacity="0.7"
          d="M261.3 240.9c5.8 15.9 8.8 32.3 8.4 49-.6 24.9-12.1 39.2-15 42 41-37.9 59.4-84 99.3-118.6 7.4-6.4 15.1-11 22.6-14.2-26.3 10.9-54.7 32.7-115.3 41.8z" />
    <path fill="currentColor" fill-opacity="0.1"
          d="M425.4 191.3c5.5 0 0-6.3-5.6-9.5-4.4-2.6-9-5.1-12.6-8.5-3.6-3.5-7.6-12.9-9.3-15.7-4.9-8.3-12.2-14.7-27.1-16.6-15-1.9-29.2 1-43.3 5.3-33.7 10.6-62.1 36.9-83.3 60.4 4.1 6.6 7.8 13.3 11.1 20.2 2.2 4.6 4.2 9.3 5.9 14 60.7-9.2 89.1-30.9 115.3-41.9 16.5-7.2 31.9-7.8 41.4-7.7h7.5z" />
    <path fill="currentColor" fill-opacity="0.5"
          d="M115.5 332.8c51.4-34.8 82.5-73.4 96.1-87.8-111.1 2.5-158-56-174.1-81 30.5 47.4 77.9 85.1 68.8 137.8C94.4 370 5 376.2 5 376.2s42 2.9 110.5-43.4z" />
    <ellipse cx="367.8" cy="166.4" fill-opacity="0.5" fill="currentColor" rx="8.9" ry="8.8" />
</svg>