<svg viewBox="233.712 136.469 246.8841 266.033" xmlns="http://www.w3.org/2000/svg">
    <linearGradient id="grafana-icon-color-gradient" x1="7.502" x2="7.502" y1="18.142" y2="5.356" gradientUnits="userSpaceOnUse"
                    gradientTransform="matrix(19.002255, 0, 0, 19.002255, 214.716527, 117.465968)">
        <stop stop-color="#FFF200"/>
        <stop offset="1" stop-color="#F15A29"/>
    </linearGradient>
    <path fill="url(#grafana-icon-color-gradient)"
          d="M 480.457 253.806 C 480.058 248.658 479.183 243.549 477.836 238.569 C 474.13 224.565 467.268 211.585 457.807 200.602 C 455.716 197.903 453.399 195.415 450.852 193.133 C 454.616 178.18 446.197 165.239 446.197 165.239 C 431.677 164.363 422.688 169.552 419.213 172.137 C 418.624 171.85 418.035 171.566 417.465 171.566 C 415.146 170.694 412.525 169.552 409.923 168.963 C 407.298 168.109 404.695 167.537 402.073 166.683 C 399.468 166.094 396.564 165.523 393.654 164.934 C 393.084 164.934 392.78 164.934 392.211 164.65 C 385.825 144.831 367.831 136.469 367.831 136.469 C 347.801 149.125 343.734 166.948 343.734 166.948 C 343.734 166.948 343.734 167.234 343.434 168.088 L 339.954 168.963 C 338.511 169.534 336.762 170.101 335.316 170.407 C 333.855 170.977 332.124 171.548 330.663 172.115 C 327.754 173.564 324.582 175.007 321.673 176.45 C 318.766 178.159 315.858 179.89 313.255 181.619 C 312.954 181.333 312.686 181.333 312.686 181.333 C 284.81 170.977 260.125 183.917 260.125 183.917 C 257.809 213.256 271.146 231.956 274.054 235.412 C 273.484 237.126 272.913 239.14 272.324 240.867 C 270.31 247.651 268.754 254.57 267.67 261.582 C 267.67 262.719 267.384 263.596 267.384 264.734 C 241.256 276.819 233.712 302.701 233.712 302.701 C 255.185 327.158 280.458 328.868 280.458 328.868 C 283.632 334.626 287.413 339.793 291.48 344.981 C 293.228 346.995 294.957 349.011 296.992 351.025 C 292.353 364.306 292.772 378.845 298.148 391.858 C 322.244 392.714 337.922 381.505 341.113 378.919 C 343.434 379.773 346.055 380.362 348.372 380.933 C 355.633 382.948 363.193 383.803 370.718 384.373 L 380.03 384.373 C 391.337 400.488 411.078 402.502 411.078 402.502 C 425.294 387.831 425.883 373.161 425.883 370.007 L 425.883 369.723 L 425.883 369.152 L 425.883 368.58 C 428.788 366.548 431.677 364.249 434.298 361.932 C 439.849 356.84 444.81 351.157 449.105 344.981 C 449.389 344.41 449.978 343.839 450.261 343.272 C 466.226 344.127 477.549 333.485 477.549 333.485 C 474.928 317.086 465.349 309.029 463.318 307.299 L 463.031 307.015 L 462.747 307.015 C 462.747 307.015 462.463 307.015 462.463 306.728 C 462.463 305.874 462.747 304.715 462.747 303.858 C 462.747 302.132 463.031 300.402 463.031 298.388 L 463.031 296.09 L 463.031 292.933 L 463.031 291.49 L 463.031 288.6 L 462.747 287.177 C 462.463 285.446 462.176 283.433 461.588 281.702 C 459.975 274.691 457.219 268.002 453.456 261.865 C 449.71 255.86 445.112 250.425 439.811 245.751 C 434.66 241.324 428.884 237.637 422.688 234.823 C 416.706 232.146 410.338 230.399 403.821 229.657 C 400.626 229.371 397.435 229.085 394.243 229.085 L 392.762 229.085 L 389.605 229.085 C 387.859 229.371 386.395 229.371 384.666 229.657 C 378.283 230.796 372.467 233.097 366.956 236.269 C 361.732 239.424 357.076 243.167 353.312 247.765 C 349.607 252.024 346.662 256.885 344.59 262.15 C 342.614 267.11 341.437 272.354 341.113 277.673 L 341.113 285.143 C 341.399 287.746 341.988 290.33 342.574 292.628 C 344.023 297.533 346.055 301.845 348.961 305.285 C 351.565 309.029 355.044 311.898 358.537 314.502 C 362.016 316.782 365.796 318.529 369.558 319.668 C 373.342 320.809 376.817 321.114 380.296 321.114 L 384.931 321.114 C 385.52 321.114 385.825 321.114 386.112 320.827 C 386.395 320.827 386.984 320.544 387.27 320.544 C 388.144 320.24 388.715 320.24 389.587 319.973 L 393.96 318.225 C 395.307 317.636 396.581 316.878 397.72 315.945 C 398.007 315.643 398.291 315.375 398.596 315.375 C 399.851 314.484 399.981 312.677 398.88 311.614 C 398.007 310.473 396.564 310.189 395.403 311.044 C 395.116 311.327 394.832 311.327 394.527 311.614 C 393.654 312.183 392.497 312.488 391.337 312.753 L 387.859 313.63 C 387.289 313.63 386.701 313.913 386.112 313.913 L 380.601 313.913 C 374.767 313.173 369.293 310.664 364.924 306.728 C 362.604 304.679 360.629 302.245 359.108 299.546 C 357.569 296.657 356.505 293.543 355.916 290.33 C 355.633 288.62 355.633 287.177 355.633 285.446 L 355.633 283.433 L 355.633 282.862 C 355.633 281.99 355.916 281.133 355.916 280.279 C 357.076 273.361 360.857 266.463 366.367 261.276 C 367.831 259.85 369.275 258.69 370.739 257.836 C 372.182 256.698 373.91 255.822 375.658 254.967 C 377.406 254.095 379.137 253.524 381.169 252.952 C 383.053 252.363 385.028 252.06 386.984 252.081 L 393.084 252.081 C 395.116 252.363 397.435 252.649 399.468 252.952 C 403.536 253.806 407.585 255.233 411.366 257.552 C 418.909 261.582 425.294 268.194 429.359 275.964 C 431.394 279.976 432.837 284.003 433.426 288.316 C 433.709 289.458 433.709 290.615 433.709 291.49 L 433.709 298.388 C 433.709 299.528 433.426 300.685 433.426 301.845 C 433.426 302.986 433.142 304.126 432.855 305.285 L 431.983 308.742 C 431.412 311.044 430.518 313.342 429.646 315.643 C 427.839 320.126 425.501 324.363 422.688 328.296 C 413.95 340.193 400.95 348.212 386.395 350.719 C 384.077 351.025 381.456 351.29 379.137 351.595 L 375.374 351.595 C 374.214 351.595 372.753 351.595 371.594 351.308 C 366.367 350.929 361.218 349.979 356.201 348.44 C 351.3 346.995 346.53 345.055 341.988 342.684 C 328.287 335.402 317.057 324.173 309.759 310.473 C 307.499 305.951 305.654 301.238 304.247 296.374 C 302.803 291.49 302.216 286.606 301.645 281.702 L 301.645 275.964 L 301.645 274.237 C 301.645 271.651 301.93 269.332 302.216 266.748 C 302.501 264.166 303.09 261.582 303.375 259.279 C 303.946 256.676 304.535 254.378 305.122 251.792 C 306.528 246.966 308.258 242.275 310.35 237.715 C 314.415 228.782 319.925 220.746 326.596 214.416 C 328.343 212.688 330.092 211.242 331.823 209.799 C 333.57 208.374 335.316 207.213 337.329 205.791 C 339.231 204.574 341.171 203.416 343.145 202.33 C 344.023 201.762 345.179 201.476 346.055 200.887 C 346.512 200.62 347.005 200.429 347.498 200.317 C 347.955 200.049 348.448 199.862 348.961 199.748 C 350.993 198.874 353.312 198.017 355.344 197.446 C 355.916 197.163 356.487 197.163 357.076 196.876 C 357.647 196.574 358.236 196.574 358.825 196.308 C 359.982 196.003 361.143 195.719 362.016 195.433 C 362.586 195.149 363.175 195.149 363.764 195.149 C 364.335 195.149 364.906 194.844 365.495 194.844 C 366.062 194.844 366.651 194.561 367.243 194.561 L 368.115 194.273 L 368.991 194.273 C 369.558 194.273 370.129 193.99 370.718 193.99 C 371.289 193.99 371.878 193.704 372.753 193.704 C 373.321 193.704 374.214 193.419 374.785 193.419 L 389.304 193.419 C 393.672 193.704 397.72 193.99 401.787 194.844 C 409.923 196.288 417.749 198.874 424.723 202.33 C 431.677 205.791 438.061 209.799 443.288 214.416 L 444.162 215.272 L 445.036 216.128 C 445.608 216.697 446.197 217.286 447.068 217.856 L 448.818 219.586 L 450.546 221.295 C 452.884 223.615 454.917 226.197 456.931 228.782 C 460.715 233.685 463.906 238.569 466.244 243.453 C 466.509 243.735 466.509 244.024 466.815 244.324 C 467.098 244.613 467.098 244.896 467.098 245.183 L 467.974 246.892 L 468.847 248.64 L 469.701 250.351 C 470.576 252.668 471.45 254.684 472.038 256.676 C 473.179 259.85 474.074 262.719 474.641 265.323 C 474.928 266.18 475.801 267.034 476.96 266.748 C 478.101 266.787 479.031 265.855 478.994 264.734 C 480.74 260.422 480.74 257.265 480.457 253.806 Z"
          style=""/>
</svg>
