<svg xmlns="http://www.w3.org/2000/svg" viewBox="0 0 248.0659 205.1786">
    <path fill="#131A38"
          d="M 39.031 128.941 C 30.342 119.944 22.942 110.047 17.379 98.78 C 10.122 84.082 7.635 68.815 9.802 52.455 C 10.906 44.115 9.815 35.505 10.165 27.035 C 10.389 21.613 11.055 16.143 12.2 10.841 C 13.864 3.137 17.772 1.947 23.628 7.316 C 26.523 9.971 28.556 13.55 31.34 16.352 C 32.446 17.465 34.822 18.482 36.123 18.049 C 45.317 14.988 54.562 14.926 63.996 16.452 C 65.14 16.637 67.056 15.627 67.709 14.597 C 69.57 11.663 70.697 8.259 72.596 5.356 C 76.291 -0.293 81.571 -0.039 84.429 6.027 C 86.099 9.573 86.895 13.531 88.092 18.095 C 91.273 25.57 94.36 32.297 97.724 38.882 C 98.157 39.729 100.023 39.844 101.225 40.298 C 101.001 39.144 101.006 37.881 100.516 36.855 C 97.386 30.305 94.147 23.807 90.944 17.293 C 98.627 13.502 106.629 11.298 115.305 11 C 126.015 10.633 136.498 11.005 146.347 15.755 C 162.933 23.755 173.701 36.939 180.17 53.926 C 181.524 57.48 182.905 61.025 184.38 64.529 C 185.829 67.97 188.452 68.017 190.726 65.808 C 198.493 58.264 206.079 50.531 213.655 42.791 C 217.604 38.756 221.338 34.512 225.255 30.445 C 230.184 25.328 230.292 23.172 225.632 18.133 C 222.441 14.683 222.22 10.428 224.988 5.733 C 227.685 1.159 232.827 -1.33 237.707 0.634 C 241.223 2.049 244.174 4.866 247.729 7.078 C 248.08 15.118 248.08 23.139 248.08 31.629 C 245.025 35.675 241.84 39.151 238.937 42.848 C 217.243 70.468 195.602 98.13 173.961 125.791 C 173.352 126.569 172.926 127.49 171.946 128.778 C 168.242 133.761 165.006 138.31 161.482 142.996 C 159.181 145.017 157.169 146.9 154.687 148.837 C 133.278 148.905 112.339 148.999 91.402 148.898 C 81.626 148.851 71.851 148.427 61.858 147.911 C 58.827 145.777 56.014 143.907 53.047 141.736 C 48.273 137.271 43.652 133.106 39.031 128.941 M 54.41 72.321 C 57.55 70.904 61.003 68.902 59.817 65.241 C 59.28 63.586 55.123 62.305 52.602 62.293 C 49.457 62.278 44.033 63.108 43.585 64.697 C 42.285 69.313 47.001 71 50.255 73.777 C 50.438 76.906 49.964 79.633 46.681 81.191 C 45.73 81.642 44.875 82.768 44.494 83.779 C 44.234 84.466 44.691 85.635 45.202 86.303 C 45.421 86.59 46.947 86.429 47.268 86.006 C 51.046 81.033 54.725 82.457 58.581 85.897 C 59.116 86.375 60.28 86.148 61.153 86.248 C 61.114 85.233 61.354 84.088 60.958 83.24 C 60.578 82.426 59.638 81.682 58.772 81.321 C 54.895 79.705 53.393 76.837 54.41 72.321 M 16.555 54.95 C 16.32 54.717 15.883 54.274 15.878 54.279 C 12.764 57.281 13.699 63.517 17.796 67.228 C 21.995 71.031 26.995 71.03 30.958 67.126 C 40.889 66.001 46.953 58.311 44.615 49.808 C 42.718 42.906 36.315 38.328 29.737 39.17 C 22.098 40.148 17.187 46.325 16.555 54.95 M 75.468 67.694 C 80.807 69.854 85.672 68.411 88.695 63.771 C 91.15 60.005 90.532 54.83 87.117 51.247 C 84.8 42.67 79.72 38.082 72.556 38.095 C 66.124 38.107 60.562 42.418 58.635 48.886 C 55.769 58.498 63.453 67.022 75.468 67.694 M 78.654 8.252 C 77.496 10.259 76.08 12.162 75.228 14.292 C 72.403 21.352 74.596 24.629 83.529 25.529 C 82.886 19.977 82.342 14.631 81.551 9.323 C 81.458 8.699 80.004 8.278 78.654 8.252 M 15.088 26.661 C 16.656 26.954 18.964 28.032 19.65 27.386 C 21.425 25.717 23.77 23.154 23.567 21.188 C 23.123 16.884 21.353 12.655 15.548 9.413 C 15.37 15.588 15.222 20.718 15.088 26.661 M 68.802 76.273 C 73.986 79.007 79.452 78.382 84.851 78.552 C 84.918 77.755 84.984 76.959 85.05 76.162 C 79.69 75.959 74.33 75.755 68.802 76.273 M 71.439 83.318 C 74.85 84.451 78.26 85.584 81.671 86.718 C 81.914 85.952 82.156 85.187 82.399 84.422 C 77.914 82.854 73.43 81.286 68.945 79.718 C 68.708 80.244 68.471 80.769 68.234 81.295 C 69.06 81.905 69.886 82.515 71.439 83.318 M 35.947 75.112 C 32.119 75.455 28.292 75.797 24.465 76.14 C 24.523 76.945 24.582 77.75 24.64 78.555 C 28.719 78.197 32.798 77.846 36.866 77.389 C 36.909 77.384 36.796 75.984 35.947 75.112 M 59.402 37.646 C 62.319 34.39 62.554 30.53 62.739 26.658 C 62.003 26.494 61.267 26.329 60.531 26.164 C 59.923 29.927 59.316 33.689 59.402 37.646 M 41.039 35.388 C 41.648 36.196 42.258 37.005 42.868 37.813 C 43.397 37.518 43.927 37.223 44.456 36.929 C 43.293 33.348 42.131 29.767 40.968 26.186 C 40.275 26.401 39.583 26.617 38.89 26.832 C 39.548 29.436 40.207 32.041 41.039 35.388 M 27.699 84.1 C 27.637 84.558 27.411 85.365 27.537 85.424 C 30.064 86.612 36.449 83.684 38.245 79.553 C 34.332 81.131 31.279 82.362 27.699 84.1 Z"
          transform="matrix(1, 0, 0, 1, 1.4210854715202004e-14, 0)"/>
    <path fill="#3871C8"
          d="M 62.076 148.174 C 71.851 148.427 81.626 148.851 91.402 148.898 C 112.339 148.999 133.278 148.905 155.147 148.769 C 167.5 148.647 178.923 148.647 190.916 148.647 C 187.097 142.495 181.662 144.631 177.179 143.946 C 172.106 143.171 166.912 143.187 161.771 142.859 C 165.006 138.31 168.242 133.761 171.803 129.076 C 178.957 128.993 185.791 128.931 192.613 129.182 C 194.236 129.242 196.53 129.878 197.308 131.051 C 202.759 139.264 209.307 146.819 206.258 158.332 C 202.822 171.306 200.905 184.68 198.244 197.864 C 197.108 203.494 195.108 205.086 189.383 205.087 C 132.057 205.103 74.731 205.075 17.405 205.135 C 12.443 205.14 9.78 203.261 8.889 198.163 C 6.097 182.184 2.947 166.269 0.123 150.295 C -0.198 148.48 0.212 146.213 1.076 144.573 C 3.282 140.381 5.61 136.164 8.554 132.489 C 9.961 130.734 12.834 129.369 15.119 129.248 C 22.763 128.842 30.442 129.078 38.569 129.005 C 43.652 133.106 48.273 137.271 52.764 141.945 C 50.157 145.899 48.109 141.82 45.7 142.004 C 40.71 142.387 35.572 141.476 30.675 142.246 C 26.075 142.969 21.706 145.168 17.251 146.762 C 17.179 146.788 17.307 147.376 17.392 148.174 C 32.252 148.174 47.164 148.174 62.076 148.174 Z"
          transform="matrix(1, 0, 0, 1, 1.4210854715202004e-14, 0)"/>
    <path fill="#4E4C4C" stroke="#4E4C4C" stroke-width="0.5"
          d="M 90.64 17.263 C 94.147 23.807 97.386 30.305 100.516 36.855 C 101.006 37.881 101.001 39.144 101.225 40.298 C 100.023 39.844 98.157 39.729 97.724 38.882 C 94.36 32.297 91.273 25.57 88.099 18.498 C 88.844 17.817 89.59 17.525 90.64 17.263 Z"
          transform="matrix(1, 0, 0, 1, 1.4210854715202004e-14, 0)"/>
    <path fill="#FFFFFF" stroke="#FFFFFF"
          d="M 75.045 67.091 C 63.453 67.022 55.769 58.498 58.635 48.886 C 60.562 42.418 66.124 38.107 72.556 38.095 C 79.72 38.082 84.8 42.67 87.098 51.995 C 85.921 59.919 81.613 64.453 75.045 67.091 M 74.192 48.358 C 72.512 49.48 70.64 50.424 69.312 51.869 C 69.036 52.169 70.56 55.121 71.648 55.421 C 72.967 55.785 75.878 54.85 76.02 54.088 C 76.331 52.431 75.32 50.527 74.192 48.358 Z"
          transform="matrix(1, 0, 0, 1, 1.4210854715202004e-14, 0)"/>
    <path fill="#FFFFFF" stroke="#FFFFFF"
          d="M 17.095 55.071 C 17.187 46.325 22.098 40.148 29.737 39.17 C 36.315 38.328 42.718 42.906 44.615 49.808 C 46.953 58.311 40.889 66.001 30.215 67.031 C 23.046 65.381 19.018 61.324 17.095 55.071 M 35.175 53.823 C 34.644 52.131 34.396 50.247 33.442 48.843 C 33.068 48.293 30.748 48.357 29.968 48.972 C 28.984 49.746 28.124 51.391 28.172 52.623 C 28.29 55.71 31.181 56.432 35.175 53.823 Z"
          transform="matrix(1, 0, 0, 1, 1.4210854715202004e-14, 0)"/>
    <path fill="#FFFFFF" stroke="#FFFFFF"
          d="M 61.858 147.911 C 47.164 148.174 32.252 148.174 17.392 148.174 C 17.307 147.376 17.179 146.788 17.251 146.762 C 21.706 145.168 26.075 142.969 30.675 142.246 C 35.572 141.476 40.71 142.387 45.7 142.004 C 48.109 141.82 50.157 145.899 52.917 142.245 C 56.014 143.907 58.827 145.777 61.858 147.911 Z"
          transform="matrix(1, 0, 0, 1, 1.4210854715202004e-14, 0)"/>
    <path fill="#FFFFFF" stroke="#FFFFFF"
          d="M 161.482 142.996 C 166.912 143.187 172.106 143.171 177.179 143.946 C 181.662 144.631 187.097 142.495 190.916 148.647 C 178.923 148.647 167.5 148.647 155.618 148.715 C 157.169 146.9 159.181 145.017 161.482 142.996 Z"
          transform="matrix(1, 0, 0, 1, 1.4210854715202004e-14, 0)"/>
    <path fill="#AA1F56" stroke="#AA1F56" stroke-width="1"
          d="M 50.403 72.928 C 47.001 71 42.285 69.313 43.585 64.697 C 44.033 63.108 49.457 62.278 52.602 62.293 C 55.123 62.305 59.28 63.586 59.817 65.241 C 61.003 68.902 57.55 70.904 53.807 72.605 C 52.27 72.902 51.337 72.915 50.403 72.928 Z"
          transform="matrix(1, 0, 0, 1, 1.4210854715202004e-14, 0)"/>
    <path fill="#5B5B5B" stroke="#5B5B5B" stroke-width="1"
          d="M 78.918 8.008 C 80.004 8.278 81.458 8.699 81.551 9.323 C 82.342 14.631 82.886 19.977 83.529 25.529 C 74.596 24.629 72.403 21.352 75.228 14.292 C 76.08 12.162 77.496 10.259 78.918 8.008 Z"
          transform="matrix(1, 0, 0, 1, 1.4210854715202004e-14, 0)"/>
    <path fill="#5B5B5B" stroke="#5B5B5B" stroke-width="1"
          d="M 15.081 26.255 C 15.222 20.718 15.37 15.588 15.548 9.413 C 21.353 12.655 23.123 16.884 23.567 21.188 C 23.77 23.154 21.425 25.717 19.65 27.386 C 18.964 28.032 16.656 26.954 15.081 26.255 Z"
          transform="matrix(1, 0, 0, 1, 1.4210854715202004e-14, 0)"/>
    <path fill="#5B5B5B" stroke="#5B5B5B" stroke-width="0.8"
          d="M 16.825 55.011 C 19.018 61.324 23.046 65.381 29.817 67.081 C 26.995 71.03 21.995 71.031 17.796 67.228 C 13.699 63.517 12.764 57.281 15.878 54.279 C 15.883 54.274 16.32 54.717 16.825 55.011 Z"
          transform="matrix(1, 0, 0, 1, 1.4210854715202004e-14, 0)"/>
    <path fill="#5B5B5B " stroke="#5B5B5B" stroke-width="0.8"
          d="M 50.329 73.353 C 51.337 72.915 52.27 72.902 53.553 72.831 C 53.393 76.837 54.895 79.705 58.772 81.321 C 59.638 81.682 60.578 82.426 60.958 83.24 C 61.354 84.088 61.114 85.233 61.153 86.248 C 60.28 86.148 59.116 86.375 58.581 85.897 C 54.725 82.457 51.046 81.033 47.268 86.006 C 46.947 86.429 45.421 86.59 45.202 86.303 C 44.691 85.635 44.234 84.466 44.494 83.779 C 44.875 82.768 45.73 81.642 46.681 81.191 C 49.964 79.633 50.438 76.906 50.329 73.353 Z"
          transform="matrix(1, 0, 0, 1, 1.4210854715202004e-14, 0)"/>
    <path fill="#5B5B5B" stroke="#5B5B5B" stroke-width="0.8"
          d="M 75.256 67.393 C 81.613 64.453 85.921 59.919 87.184 52.365 C 90.532 54.83 91.15 60.005 88.695 63.771 C 85.672 68.411 80.807 69.854 75.256 67.393 Z"
          transform="matrix(1, 0, 0, 1, 1.4210854715202004e-14, 0)"/>
    <path fill="#5B5B5B" stroke="#5B5B5B" stroke-width="0.8"
          d="M 68.886 75.912 C 74.33 75.755 79.69 75.959 85.05 76.162 C 84.984 76.959 84.918 77.755 84.851 78.552 C 79.452 78.382 73.986 79.007 68.886 75.912 Z"
          transform="matrix(1, 0, 0, 1, 1.4210854715202004e-14, 0)"/>
    <path fill="#5B5B5B" stroke="#5B5B5B" stroke-width="0.8"
          d="M 71.076 83.221 C 69.886 82.515 69.06 81.905 68.234 81.295 C 68.471 80.769 68.708 80.244 68.945 79.718 C 73.43 81.286 77.914 82.854 82.399 84.422 C 82.156 85.187 81.914 85.952 81.671 86.718 C 78.26 85.584 74.85 84.451 71.076 83.221 Z"
          transform="matrix(1, 0, 0, 1, 1.4210854715202004e-14, 0)"/>
    <path fill="#5B5B5B" stroke="#5B5B5B" stroke-width="0.8"
          d="M 36.351 75.174 C 36.796 75.984 36.909 77.384 36.866 77.389 C 32.798 77.846 28.719 78.197 24.64 78.555 C 24.582 77.75 24.523 76.945 24.465 76.14 C 28.292 75.797 32.119 75.455 36.351 75.174 Z"
          transform="matrix(1, 0, 0, 1, 1.4210854715202004e-14, 0)"/>
    <path fill="#5B5B5B" stroke="#5B5B5B" stroke-width="0.8"
          d="M 59.055 37.549 C 59.316 33.689 59.923 29.927 60.531 26.164 C 61.267 26.329 62.003 26.494 62.739 26.658 C 62.554 30.53 62.319 34.39 59.055 37.549 Z"
          transform="matrix(1, 0, 0, 1, 1.4210854715202004e-14, 0)"/>
    <path fill="#5B5B5B" stroke="#5B5B5B" stroke-width="0.8"
          d="M 40.952 35.017 C 40.207 32.041 39.548 29.436 38.89 26.832 C 39.583 26.617 40.275 26.401 40.968 26.186 C 42.131 29.767 43.293 33.348 44.456 36.929 C 43.927 37.223 43.397 37.518 42.868 37.813 C 42.258 37.005 41.648 36.196 40.952 35.017 Z"
          transform="matrix(1, 0, 0, 1, 1.4210854715202004e-14, 0)"/>
    <path fill="#5B5B5B" stroke="#5B5B5B" stroke-width="0.8"
          d="M 27.963 83.846 C 31.279 82.362 34.332 81.131 38.245 79.553 C 36.449 83.684 30.064 86.612 27.537 85.424 C 27.411 85.365 27.637 84.558 27.963 83.846 Z"
          transform="matrix(1, 0, 0, 1, 1.4210854715202004e-14, 0)"/>
    <path fill="#000000" stroke="000000"
          d="M 74.521 48.541 C 75.32 50.527 76.331 52.431 76.02 54.088 C 75.878 54.85 72.967 55.785 71.648 55.421 C 70.56 55.121 69.036 52.169 69.312 51.869 C 70.64 50.424 72.512 49.48 74.521 48.541 Z"
          transform="matrix(1, 0, 0, 1, 1.4210854715202004e-14, 0)"/>
    <path fill="#000000" stroke="000000"
          d="M 35.009 54.151 C 31.181 56.432 28.29 55.71 28.172 52.623 C 28.124 51.391 28.984 49.746 29.968 48.972 C 30.748 48.357 33.068 48.293 33.442 48.843 C 34.396 50.247 34.644 52.131 35.009 54.151 Z"
          transform="matrix(1, 0, 0, 1, 1.4210854715202004e-14, 0)"/>
</svg>