<svg xmlns="http://www.w3.org/2000/svg" viewBox="0 0 248.0657 205.1786">
    <path fill="currentColor" stroke="currentColor"
          d="M 38.818 129.097 C 30.129 120.1 22.729 110.203 17.166 98.936 C 9.91 84.238 7.423 68.971 9.589 52.611 C 10.694 44.271 9.602 35.66 9.952 27.191 C 10.177 21.769 10.842 16.299 11.987 10.997 C 13.651 3.292 17.56 2.102 23.415 7.472 C 26.311 10.127 28.343 13.706 31.127 16.507 C 32.234 17.621 34.61 18.638 35.91 18.205 C 45.105 15.144 54.35 15.081 63.784 16.608 C 64.928 16.793 66.843 15.783 67.497 14.753 C 69.357 11.819 70.484 8.415 72.384 5.512 C 76.079 -0.138 81.359 0.117 84.216 6.183 C 85.887 9.729 86.683 13.686 87.88 18.251 C 91.06 25.726 94.148 32.452 97.512 39.038 C 97.944 39.885 99.81 40 101.012 40.454 C 100.788 39.3 100.794 38.037 100.304 37.011 C 97.174 30.461 93.935 23.963 90.732 17.448 C 98.414 13.657 106.417 11.454 115.093 11.156 C 125.802 10.788 136.285 11.161 146.135 15.911 C 162.72 23.91 173.489 37.095 179.958 54.082 C 181.311 57.635 182.693 61.181 184.168 64.685 C 185.617 68.126 188.239 68.173 190.513 65.964 C 198.281 58.419 205.867 50.686 213.442 42.947 C 217.392 38.912 221.126 34.667 225.043 30.601 C 229.972 25.484 230.079 23.327 225.42 18.289 C 222.229 14.839 222.008 10.584 224.776 5.889 C 227.473 1.315 232.615 -1.174 237.494 0.79 C 241.01 2.205 243.962 5.022 247.516 7.233 C 247.867 15.274 247.867 23.295 247.867 31.784 C 244.813 35.831 241.628 39.307 238.725 43.003 C 217.031 70.623 195.39 98.285 173.749 125.947 C 173.14 126.725 172.714 127.645 171.734 128.934 C 168.029 133.917 164.794 138.466 161.269 143.152 C 158.968 145.172 156.957 147.056 154.474 148.993 C 133.065 149.06 112.127 149.154 91.19 149.053 C 81.413 149.006 71.639 148.583 61.645 148.066 C 58.615 145.933 55.801 144.062 52.835 141.892 C 48.061 137.427 43.44 133.262 38.818 129.097 M 54.198 72.477 C 57.337 71.059 60.79 69.057 59.604 65.397 C 59.068 63.741 54.911 62.461 52.389 62.449 C 49.244 62.434 43.82 63.264 43.373 64.853 C 42.073 69.468 46.788 71.156 50.043 73.933 C 50.226 77.062 49.752 79.789 46.469 81.347 C 45.518 81.798 44.663 82.923 44.281 83.935 C 44.022 84.622 44.479 85.791 44.989 86.459 C 45.209 86.746 46.735 86.584 47.055 86.162 C 50.834 81.189 54.513 82.613 58.368 86.053 C 58.904 86.531 60.067 86.304 60.94 86.404 C 60.902 85.388 61.141 84.243 60.745 83.395 C 60.365 82.582 59.425 81.838 58.559 81.477 C 54.682 79.861 53.18 76.993 54.198 72.477 M 16.342 55.106 C 16.107 54.872 15.671 54.43 15.666 54.434 C 12.551 57.437 13.486 63.672 17.584 67.383 C 21.783 71.187 26.782 71.186 30.745 67.281 C 40.676 66.157 46.741 58.467 44.403 49.964 C 42.505 43.062 36.103 38.484 29.524 39.326 C 21.886 40.304 16.974 46.481 16.342 55.106 M 75.255 67.85 C 80.594 70.009 85.46 68.567 88.483 63.927 C 90.937 60.161 90.32 54.986 86.905 51.403 C 84.587 42.826 79.507 38.237 72.344 38.251 C 65.912 38.263 60.35 42.574 58.422 49.041 C 55.557 58.653 63.24 67.178 75.255 67.85 M 78.442 8.408 C 77.284 10.415 75.867 12.318 75.015 14.448 C 72.191 21.508 74.384 24.784 83.316 25.685 C 82.673 20.133 82.129 14.787 81.338 9.478 C 81.245 8.855 79.792 8.434 78.442 8.408 M 14.875 26.817 C 16.444 27.109 18.751 28.188 19.437 27.542 C 21.212 25.872 23.558 23.31 23.355 21.343 C 22.911 17.039 21.14 12.811 15.336 9.569 C 15.158 15.744 15.01 20.874 14.875 26.817 M 68.59 76.429 C 73.774 79.162 79.24 78.538 84.639 78.707 C 84.705 77.911 84.772 77.115 84.838 76.318 C 79.477 76.114 74.117 75.911 68.59 76.429 M 71.227 83.474 C 74.637 84.607 78.048 85.74 81.459 86.873 C 81.701 86.108 81.944 85.343 82.186 84.577 C 77.702 83.01 73.217 81.442 68.733 79.874 C 68.496 80.399 68.259 80.925 68.021 81.45 C 68.848 82.06 69.674 82.67 71.227 83.474 M 35.734 75.268 C 31.907 75.61 28.08 75.953 24.252 76.296 C 24.311 77.101 24.369 77.906 24.428 78.711 C 28.507 78.353 32.586 78.002 36.653 77.545 C 36.697 77.54 36.583 76.14 35.734 75.268 M 59.19 37.802 C 62.106 34.546 62.341 30.686 62.527 26.814 C 61.791 26.649 61.054 26.484 60.318 26.32 C 59.711 30.082 59.103 33.845 59.19 37.802 M 40.826 35.544 C 41.436 36.352 42.046 37.16 42.656 37.969 C 43.185 37.674 43.714 37.379 44.244 37.084 C 43.081 33.504 41.918 29.923 40.756 26.342 C 40.063 26.557 39.37 26.772 38.678 26.987 C 39.336 29.592 39.995 32.196 40.826 35.544 M 27.486 84.255 C 27.424 84.714 27.199 85.521 27.325 85.58 C 29.852 86.768 36.236 83.84 38.033 79.708 C 34.119 81.287 31.067 82.518 27.486 84.255 Z"/>
    <path fill="currentColor" stroke="currentColor"
          d="M 61.863 148.33 C 71.639 148.583 81.413 149.006 91.19 149.053 C 112.127 149.154 133.065 149.06 154.934 148.924 C 167.288 148.802 178.71 148.802 190.704 148.802 C 186.884 142.65 181.45 144.786 176.967 144.102 C 171.894 143.327 166.7 143.343 161.559 143.015 C 164.794 138.466 168.029 133.917 171.59 129.232 C 178.745 129.149 185.579 129.087 192.401 129.338 C 194.023 129.397 196.317 130.034 197.095 131.207 C 202.546 139.42 209.094 146.975 206.045 158.488 C 202.609 171.462 200.692 184.836 198.032 198.02 C 196.896 203.65 194.896 205.242 189.17 205.243 C 131.844 205.258 74.518 205.231 17.192 205.291 C 12.23 205.296 9.568 203.417 8.677 198.318 C 5.884 182.34 2.734 166.424 -0.09 150.451 C -0.411 148.635 0 146.369 0.863 144.728 C 3.07 140.537 5.397 136.319 8.342 132.645 C 9.748 130.89 12.622 129.524 14.906 129.403 C 22.551 128.998 30.23 129.234 38.357 129.161 C 43.44 133.262 48.061 137.427 52.552 142.101 C 49.945 146.055 47.897 141.975 45.487 142.16 C 40.497 142.542 35.359 141.631 30.463 142.401 C 25.863 143.125 21.494 145.324 17.039 146.918 C 16.966 146.944 17.095 147.532 17.18 148.33 C 32.039 148.33 46.951 148.33 61.863 148.33 Z"/>
    <path fill="currentColor" stroke="currentColor" stroke-width="0.8"
          d="M 16.612 55.166 C 18.805 61.48 22.834 65.536 29.605 67.236 C 26.782 71.186 21.783 71.187 17.584 67.383 C 13.486 63.672 12.551 57.437 15.666 54.434 C 15.671 54.43 16.107 54.872 16.612 55.166 Z"/>
    <path fill="currentColor" stroke="currentColor" stroke-width="0.8"
          d="M 75.044 67.548 C 81.4 64.609 85.708 60.075 86.971 52.521 C 90.32 54.986 90.937 60.161 88.483 63.927 C 85.46 68.567 80.594 70.009 75.044 67.548 Z"/>
    <path fill="currentColor" stroke="currentColor"
          d="M 74.308 48.697 C 75.108 50.683 76.118 52.587 75.808 54.244 C 75.665 55.006 72.755 55.941 71.436 55.577 C 70.347 55.277 68.824 52.325 69.099 52.025 C 70.427 50.58 72.3 49.635 74.308 48.697 Z"/>
    <path fill="currentColor" stroke="currentColor"
          d="M 34.797 54.307 C 30.968 56.588 28.078 55.866 27.959 52.779 C 27.912 51.547 28.771 49.902 29.755 49.128 C 30.536 48.513 32.856 48.449 33.23 48.999 C 34.184 50.403 34.432 52.287 34.797 54.307 Z"/>
</svg>