<?xml version="1.0" encoding="utf-8"?>
<svg xmlns="http://www.w3.org/2000/svg" viewBox="0 0 200 165">
  <rect fill="#00a580" width="200" height="165" rx="20"/>
  <path fill="#fff" d="M 119.506 121.737 C 119.471 121.738 119.435 121.738 119.4 121.738 C 117.739 121.735 116.347 120.957 115.457 119.805 C 115.318 119.626 115.19 119.437 115.075 119.237 L 96.753 87.5 L 82.151 87.5 L 96.144 111.737 L 102.639 111.737 C 106.488 111.737 108.893 115.903 106.969 119.237 C 106.076 120.784 104.425 121.737 102.639 121.737 L 93.257 121.737 C 91.471 121.737 89.82 120.784 88.927 119.237 L 70.603 87.5 L 56.001 87.5 L 69.994 111.737 L 76.49 111.737 C 80.339 111.737 82.745 115.903 80.82 119.237 C 79.927 120.784 78.277 121.737 76.49 121.737 L 67.107 121.737 C 65.321 121.737 63.671 120.784 62.777 119.237 L 44.454 87.5 L 29.852 87.5 L 43.845 111.737 L 50.341 111.737 C 54.19 111.737 56.595 115.903 54.671 119.237 C 53.778 120.784 52.127 121.737 50.341 121.737 L 40.958 121.737 C 39.172 121.737 37.521 120.784 36.628 119.237 L 16.861 85 C 16.81 84.912 16.762 84.823 16.717 84.732 C 16.015 83.329 15.958 81.596 16.838 80.04 C 16.846 80.027 16.853 80.013 16.861 80 C 16.861 80 16.861 80 16.861 79.999 L 36.628 45.763 C 37.521 44.216 39.172 43.263 40.958 43.263 L 50.341 43.263 C 54.19 43.263 56.595 47.429 54.671 50.763 C 53.778 52.31 52.127 53.263 50.341 53.263 L 43.845 53.263 L 29.852 77.5 L 44.454 77.5 L 62.777 45.763 C 63.671 44.216 65.321 43.263 67.107 43.263 L 76.49 43.263 C 80.339 43.263 82.745 47.429 80.82 50.763 C 79.927 52.31 78.277 53.263 76.49 53.263 L 69.994 53.263 L 56.001 77.5 L 70.603 77.5 L 88.927 45.763 C 89.82 44.216 91.471 43.263 93.257 43.263 L 102.639 43.263 C 106.488 43.263 108.893 47.429 106.969 50.763 C 106.076 52.31 104.425 53.263 102.639 53.263 L 96.144 53.263 L 82.151 77.5 L 96.752 77.5 L 114.862 46.131 C 115.636 44.48 117.291 43.253 119.373 43.244 C 119.526 43.243 119.678 43.25 119.829 43.263 L 158.514 43.263 C 160.331 43.107 162.221 43.927 163.27 45.726 C 163.346 45.857 163.416 45.991 163.48 46.126 L 183.016 79.966 C 183.87 81.418 184.004 83.292 183.058 84.962 C 183.051 84.975 183.043 84.987 183.036 85 C 183.036 85 183.036 85 183.036 85.001 L 163.27 119.237 C 163.16 119.427 163.039 119.608 162.908 119.779 C 162.018 120.945 160.618 121.735 158.944 121.738 C 158.909 121.738 158.873 121.738 158.838 121.737 Z M 170.046 87.5 L 158.499 87.5 L 153.166 96.736 L 158.94 106.737 Z M 133.84 101.736 L 128.065 111.737 L 150.279 111.737 L 144.506 101.736 Z M 119.847 87.5 L 108.299 87.5 L 119.405 106.737 L 125.18 96.736 Z M 125.18 68.263 L 119.405 58.263 L 108.299 77.5 L 119.847 77.5 Z M 158.94 58.263 L 153.166 68.263 L 158.499 77.5 L 170.046 77.5 Z M 128.065 53.263 L 133.84 63.263 L 144.506 63.263 L 150.279 53.263 Z M 133.84 91.736 L 144.506 91.736 L 149.839 82.5 L 144.506 73.263 L 133.84 73.263 L 128.507 82.5 Z"/>
</svg>