<?xml version="1.0" encoding="UTF-8"?>
<svg xmlns="http://www.w3.org/2000/svg" viewBox="0 0 34 28" fill="none">
  <path d="M33.5798 8.63977C33.5082 8.55024 31.7623 6.47311 28.8973 4.34227C27.2141 3.09778 25.4951 2.10399 23.785 1.37878C21.6004 0.465563 19.4338 0 17.3298 0C15.2348 0 13.0592 0.465563 10.8747 1.37878C9.16462 2.09503 7.44565 3.08883 5.76246 4.34227C2.88851 6.46416 1.15151 8.55024 1.07989 8.63082C0.614322 9.18591 0.614322 9.99169 1.07989 10.5468C1.15151 10.6363 2.89746 12.7134 5.76246 14.8443C7.44565 16.0888 9.16462 17.0826 10.8747 17.8078C13.0592 18.721 15.2258 19.1866 17.3209 19.1866C18.0819 19.1866 18.8609 19.1239 19.6398 18.9985L19.2817 16.6976C18.6191 16.805 17.9655 16.8498 17.3209 16.8498C15.5303 16.8498 13.668 16.4469 11.77 15.6501C10.23 15.0054 8.67216 14.1012 7.14117 12.9641C5.33264 11.6212 3.99862 10.2961 3.33609 9.57985C3.99862 8.8636 5.33264 7.53853 7.14117 6.19556C8.67216 5.05852 10.23 4.15425 11.77 3.50963C13.668 2.7128 15.5303 2.30991 17.3209 2.30991C19.1115 2.30991 20.9738 2.7128 22.8719 3.50963C24.4118 4.15425 25.9696 5.05852 27.5006 6.19556C29.3091 7.53853 30.6431 8.8636 31.3057 9.57985C30.6431 10.2961 29.3091 11.6212 27.5006 12.9641C26.6411 13.5998 25.7726 14.1638 24.9042 14.6473L24.3133 14.9786C23.9642 15.1756 23.5433 15.4083 23.1225 15.6501L21.6363 13.3402C22.6839 12.3285 23.3374 10.9318 23.3374 9.40078C23.3374 6.31195 20.6962 3.79613 17.4552 3.79613C14.2142 3.79613 11.573 6.31195 11.573 9.40078C11.573 12.4896 14.2142 15.0054 17.4552 15.0054C18.2431 15.0054 18.9862 14.8532 19.6756 14.5846L22.2809 18.6315L22.442 18.533L22.5048 18.6583C22.9614 18.4076 24.4924 17.5481 25.4504 17.0109L26.0412 16.6797C26.9903 16.1425 27.9483 15.5247 28.8794 14.8353C31.7534 12.7134 33.4902 10.6274 33.5619 10.5468C34.0364 10.0006 34.0364 9.19486 33.5798 8.63977ZM13.9098 9.40974C13.9098 7.60121 15.5034 6.13289 17.4642 6.13289C19.4249 6.13289 21.0185 7.60121 21.0185 9.40974C21.0185 11.2183 19.4249 12.6866 17.4642 12.6866C15.5034 12.6866 13.9098 11.2183 13.9098 9.40974Z" fill="#40BE46"></path>
  <path d="M33.5798 25.3071H1.07092V27.7692H33.5798V25.3071Z" fill="#40BE46"></path>
</svg>
