<?xml version="1.0" encoding="UTF-8"?>
<svg xmlns="http://www.w3.org/2000/svg" viewBox="0 0 285 285">
    <path fill="#d84445"
          d="M197.75,196.87l-56.05,56.05L30.48,141.7l38.27-38.27-20.61-20.61L7.57,123.39c-10.1,10.1-10.1,26.52,0,36.62l115.82,115.82c5.05,5.05,11.68,7.57,18.31,7.57s13.26-2.53,18.31-7.57l58.35-58.35-20.61-20.61Z"/>
    <path fill="#299d5b"
          d="M203.1,50.66L160.01,7.57c-10.09-10.09-26.52-10.09-36.62,0l-57.6,57.6,20.61,20.61,55.31-55.31,40.79,40.8,20.61-20.61Z"/>
    <path fill="#299d5b"
          d="M252.25,99.82l-20.61,20.61,21.27,21.27-37.53,37.52,20.61,20.61,39.82-39.82c4.89-4.89,7.58-11.39,7.58-18.31s-2.69-13.42-7.58-18.31l-23.57-23.57Z"/>
    <path fill="#292629"
          d="M141.7,175.91c-3.73,0-7.46-1.42-10.3-4.27l-39.28-39.28,20.61-20.61,28.98,28.98,99.97-99.97,20.61,20.61-110.28,110.28c-2.85,2.85-6.57,4.27-10.3,4.27Z"/>
</svg>