<?xml version="1.0" encoding="utf-8"?>
<svg xmlns="http://www.w3.org/2000/svg" viewBox="0 0 200 165" >
  <path fill="currentColor" d="M 68.439 55.241 L 68.439 93.518 C 68.439 110.948 100 125.079 100 125.079 C 100 125.079 131.561 110.948 131.561 93.518 L 131.561 55.241 L 100 39.921 Z M 100 23.247 L 106.55 26.427 L 138.111 41.746 L 146.561 45.848 L 146.561 93.518 C 146.561 105.829 139.164 117.426 124.576 127.986 C 118.78 132.152 112.604 135.762 106.13 138.77 L 100 141.514 L 93.871 138.77 C 87.397 135.762 81.22 132.152 75.424 127.986 C 60.836 117.426 53.439 105.829 53.439 93.518 L 53.439 45.848 L 61.889 41.746 L 93.45 26.427 Z M 88.586 74.12 L 85.767 86.471 L 93.666 96.376 L 106.334 96.376 L 114.233 86.471 L 111.414 74.12 L 100 68.624 Z M 100 60.145 L 103.315 61.741 L 114.729 67.238 L 118.043 68.834 L 118.862 72.42 L 121.681 84.771 L 122.5 88.358 L 120.206 91.234 L 112.307 101.139 L 110.013 104.016 L 89.987 104.016 L 87.693 101.139 L 79.794 91.234 L 77.5 88.358 L 78.319 84.771 L 81.138 72.42 L 81.957 68.834 L 85.271 67.238 L 96.685 61.741 Z M 0 20.294 L 0 144.706 C 0 155.914 9.086 165 20.294 165 L 179.706 165 C 190.914 165 200 155.914 200 144.706 L 200 20.294 C 200 9.086 190.914 0 179.706 0 L 20.294 0 C 9.086 0 0 9.086 0 20.294 Z"/>
</svg>