<?xml version="1.0" encoding="utf-8"?>
<svg viewBox="0 0 128 128" width="128" height="128" xmlns="http://www.w3.org/2000/svg">
    <path fill="currentColor" d="M 128 64 C 128 99.346 99.346 128 64 128 C 28.654 128 0 99.346 0 64 C 0 28.654 28.654 0 64 0 C 99.346 0 128 28.654 128 64 Z M 64 10 C 34.177 10 10 34.177 10 64 C 10 93.823 34.177 118 64 118 C 93.823 118 118 93.823 118 64 C 118 34.177 93.823 10 64 10 Z"/>
    <path fill="currentColor" d="M29 31.5v45a20.06 20.06 0 0 0 20 20h30a20.06 20.06 0 0 0 20-20v-25c-.05-8.25-6.75-14.95-15-15-3.7 0-7.25 1.4-10 3.95-2.75-2.5-6.3-3.9-10-3.95-8.25.05-14.95 6.75-15 15v25h10v-25c0-2.75 2.25-5 5-5s5 2.25 5 5v25h10v-25c0-2.75 2.25-5 5-5s5 2.25 5 5v25c.05 5.5-4.4 9.95-9.85 10H49c-5.5.05-9.95-4.4-10-9.85V31.5z"/>
</svg>