<svg viewBox="81.249 129.847 307.28 219.132" xmlns="http://www.w3.org/2000/svg">
    <path fill="currentColor" d="M 118.899 348.979 L 163.249 348.979 L 194.321 289.308 L 172.814 248.03 L 118.899 348.979 Z M 360.112 246.345 L 335.862 292.889 L 364.262 348.295 L 388.529 301.559 L 360.112 246.345 Z M 352.744 232.094 L 300.973 131.637 L 275.44 176.672 L 328.459 278.691 L 352.744 232.094 Z M 272.099 293.521 L 300.973 348.944 L 350.211 348.944 L 296.683 246.223 L 272.099 293.521 Z M 165.464 233.85 L 141.32 187.272 L 110.494 246.557 L 134.181 292.397 L 165.464 233.85 Z M 103.284 260.666 L 81.249 304.173 L 105.499 348.208 L 126.988 306.631 L 103.284 260.666 Z M 267.246 190.062 L 241.572 235.394 L 264.748 279.428 L 289.367 232.13 L 267.246 190.062 Z M 170.405 129.847 L 148.248 172.951 L 234.414 337.729 L 257.398 293.626 L 213.857 210.069 L 170.405 129.847 Z"/>
</svg>
