<svg xmlns="http://www.w3.org/2000/svg" viewBox="0 0 566.439 1147.992">
    <path d="M328.252 1099.5l-31.247-31.822-.253-208.589L296.5 650.5l-2.04-.292c-1.971-.282-58.227 27.914-216.361 108.444C37.729 779.21 4.466 795.8 4.183 795.517c-.283-.283.497-5.128 1.734-10.766 21.26-96.963 75.455-204.843 142.873-284.398 57.034-67.301 124.983-122.468 203.46-165.186l7.75-4.219v213.014l2.504.628c6.466 1.623 32.916-14.924 48.031-30.049 15.899-15.908 26.29-32.795 33.488-54.42 13.143-39.492 7.254-84.164-15.66-118.776-8.067-12.187-17.296-22.226-85.81-93.345-74.81-77.652-82.796-86.298-91.63-99.195-6.776-9.89-11.099-18.949-14.224-29.805-3.178-11.039-3.118-34.126.117-45.5 6.299-22.146 21.005-42.559 39.512-54.842 11.954-7.935 31.62-15.402 41.61-15.8l3.562-.142-4-.66C310.545.908 329.424-.306 337 .802c5.7.834 6.007.981 2.5 1.197-3.645.223-3.467.321 2 1.101 28.193 4.024 55.738 22.151 76.444 50.307 9.458 12.862 93.209 148.737 135.38 219.637 6.423 10.8 7.239 13.8 2.553 9.393-5.93-5.577-133.602-139.034-164.053-171.486C356.868 73.697 352.921 69.958 344 65.644c-5.827-2.819-7.432-3.142-15.5-3.124-11.184.025-16.444 2.287-24.65 10.6-7.698 7.802-10.202 14.409-9.618 25.38.475 8.914 2.922 14.904 9.115 22.317 1.927 2.307 34.257 36.254 71.844 75.439 37.587 39.184 73.03 76.194 78.76 82.244 27.592 29.125 44.684 61.242 52.67 98.967 3.49 16.488 4.454 49.262 1.958 66.533-5.152 35.641-20.228 70.155-42.59 97.5-8.565 10.475-26.334 27.133-37.023 34.71-12.714 9.011-18.287 12.242-45.35 26.29l-23.116 12-.5 258.412-.5 258.411zm-160.32-452.727c67.812-34.767 112.984-58.127 119.71-61.907 9.544-5.363 8.819.337 9.145-71.866.158-34.925.037-64.513-.269-65.75-.989-4-4.972-2.82-13.347 3.96-70.88 57.372-124.32 122.996-168.513 206.935-7.753 14.724-8.554 18.909-3.3 17.241 1.103-.35 26.56-13.226 56.573-28.613zM1.078 798.417c.048-1.165.285-1.402.604-.604.289.721.253 1.584-.079 1.916-.332.332-.568-.258-.525-1.312z" fill="#c62b47"/>
</svg>