<?xml version="1.0" encoding="utf-8"?>
<svg viewBox="323.9283 97.35 24.5207 27.9977" xmlns="http://www.w3.org/2000/svg">
    <path d="M 336.135 97.35 L 336.2 97.35 C 336.533 97.509 336.857 97.685 337.172 97.878 C 340.791 99.96 344.41 102.042 348.03 104.124 C 348.316 104.277 348.48 104.59 348.444 104.912 C 348.436 109.301 348.444 113.689 348.439 118.076 C 348.392 118.286 348.264 118.468 348.083 118.583 C 344.234 120.799 340.385 123.014 336.536 125.227 C 336.345 125.373 336.085 125.388 335.879 125.264 C 332.025 123.055 328.176 120.842 324.33 118.624 C 324.074 118.504 323.916 118.241 323.93 117.958 C 323.93 113.57 323.93 109.183 323.93 104.795 C 323.91 104.514 324.063 104.249 324.317 104.125 C 327.931 102.047 331.546 99.967 335.161 97.885 C 335.483 97.701 335.799 97.506 336.135 97.35 Z M 328.954 105.888 C 328.954 109.508 328.954 113.127 328.954 116.747 C 328.944 117.152 329.098 117.544 329.381 117.834 C 329.933 118.38 330.791 118.466 331.441 118.04 C 331.869 117.749 332.126 117.265 332.126 116.747 C 332.126 114.127 332.121 111.507 332.126 108.887 C 334.514 111.747 336.908 114.603 339.307 117.455 C 339.984 118.141 340.963 118.436 341.907 118.237 C 342.58 118.105 343.087 117.549 343.158 116.866 C 343.163 113.172 343.163 109.479 343.158 105.785 C 343.052 104.572 341.672 103.929 340.675 104.627 C 340.291 104.895 340.046 105.319 340.006 105.785 C 340.006 108.447 339.99 111.106 340.006 113.767 C 337.66 111.001 335.343 108.211 333.006 105.435 C 332.378 104.631 331.365 104.229 330.357 104.383 C 329.582 104.47 328.986 105.109 328.954 105.888 Z" fill="currentColor" transform="matrix(1, 0, 0, 1, 3.552713678800501e-15, 3.552713678800501e-15)"/>
</svg>