<svg version="1.1" id="Layer_1"
     xmlns="http://www.w3.org/2000/svg" viewBox="0 0 256 256">
    <path fill="currentColor" d="
M237.335266,188.310944 
	C222.643265,214.631119 201.477264,232.957977 173.825150,243.965744 
	C159.461929,249.683441 144.593201,251.701752 129.211685,252.164108 
	C113.397011,252.639496 98.130447,249.695190 83.834969,244.046173 
	C64.791504,236.520981 48.381145,224.734436 34.850822,208.732361 
	C22.594246,194.236710 14.376933,178.039169 9.561067,159.988251 
	C3.976134,139.054688 3.864350,117.662392 9.746584,97.046661 
	C21.006678,57.582905 45.820862,29.516308 84.292603,14.003586 
	C102.410637,6.697963 121.313583,4.591173 140.462433,6.206085 
	C157.896790,7.676407 174.338058,12.967528 189.813049,21.725286 
	C211.737289,34.132862 228.029266,51.539982 239.334412,73.786964 
	C245.529266,85.977600 249.350693,98.921486 251.085983,112.561493 
	C254.472122,139.178101 249.950974,164.268341 237.335266,188.310944 
M141.807785,22.953218 
	C134.603119,14.313401 123.785507,13.522027 117.435043,21.600218 
	C115.353836,24.247639 113.121613,25.316877 110.108139,25.860447 
	C46.231758,37.382454 8.003977,104.143311 30.253296,165.080170 
	C30.988512,167.093796 30.947479,169.843964 30.210531,171.865112 
	C26.635069,181.671234 32.474892,191.570312 42.762817,193.118393 
	C44.758183,193.418640 47.027985,194.723282 48.348850,196.267853 
	C91.487679,246.713135 166.973984,246.595200 209.892349,196.009216 
	C211.107239,194.577301 213.235611,193.386414 215.087997,193.117950 
	C225.429703,191.619125 231.341080,181.781769 227.831055,171.967834 
	C227.096329,169.913574 226.946808,167.157120 227.678986,165.142731 
	C249.880341,104.060982 211.725616,37.280148 148.004745,25.803856 
	C145.991302,25.441231 144.104279,24.376627 141.807785,22.953218 
z"/>
    <path fill="none" d="
M141.983063,23.296246 
	C144.104279,24.376627 145.991302,25.441231 148.004745,25.803856 
	C211.725616,37.280148 249.880341,104.060982 227.678986,165.142731 
	C226.946808,167.157120 227.096329,169.913574 227.831055,171.967834 
	C231.341080,181.781769 225.429703,191.619125 215.087997,193.117950 
	C213.235611,193.386414 211.107239,194.577301 209.892349,196.009216 
	C166.973984,246.595200 91.487679,246.713135 48.348850,196.267853 
	C47.027985,194.723282 44.758183,193.418640 42.762817,193.118393 
	C32.474892,191.570312 26.635069,181.671234 30.210531,171.865112 
	C30.947479,169.843964 30.988512,167.093796 30.253296,165.080170 
	C8.003977,104.143311 46.231758,37.382454 110.108139,25.860447 
	C113.121613,25.316877 115.353836,24.247639 117.435043,21.600218 
	C123.785507,13.522027 134.603119,14.313401 141.983063,23.296246 
M141.710785,39.985790 
	C133.800980,49.105843 123.983604,49.043175 116.203629,40.035133 
	C115.310776,39.001347 113.132103,38.315315 111.755501,38.572056 
	C56.820335,48.817501 23.432289,106.328995 41.781139,158.762360 
	C42.671337,161.306183 43.724129,162.367432 46.456116,162.769348 
	C56.596622,164.261139 62.483593,173.723282 58.701664,183.000061 
	C57.344730,186.328522 58.119591,188.061310 60.147907,190.279251 
	C75.943497,207.551651 95.363396,218.101166 118.655785,220.464478 
	C150.661057,223.711868 177.527679,213.009583 198.866852,188.859726 
	C199.751160,187.858917 200.020676,185.564789 199.550659,184.236115 
	C195.805344,173.648407 200.854874,164.717361 211.754486,162.505203 
	C213.373550,162.176605 215.432343,160.462708 215.980560,158.923996 
	C234.675171,106.452133 200.718399,48.050190 146.009674,38.475754 
	C144.787643,38.261890 143.396255,39.015797 141.710785,39.985790 
z"/>
    <path fill="currentColor" d="
M141.897324,39.652027 
	C143.396255,39.015797 144.787643,38.261890 146.009674,38.475754 
	C200.718399,48.050190 234.675171,106.452133 215.980560,158.923996 
	C215.432343,160.462708 213.373550,162.176605 211.754486,162.505203 
	C200.854874,164.717361 195.805344,173.648407 199.550659,184.236115 
	C200.020676,185.564789 199.751160,187.858917 198.866852,188.859726 
	C177.527679,213.009583 150.661057,223.711868 118.655785,220.464478 
	C95.363396,218.101166 75.943497,207.551651 60.147907,190.279251 
	C58.119591,188.061310 57.344730,186.328522 58.701664,183.000061 
	C62.483593,173.723282 56.596622,164.261139 46.456116,162.769348 
	C43.724129,162.367432 42.671337,161.306183 41.781139,158.762360 
	C23.432289,106.328995 56.820335,48.817501 111.755501,38.572056 
	C113.132103,38.315315 115.310776,39.001347 116.203629,40.035133 
	C123.983604,49.043175 133.800980,49.105843 141.897324,39.652027 
M148.745911,154.497223 
	C148.828125,159.159698 148.594131,163.854095 149.060730,168.477783 
	C149.935471,177.145737 157.901825,182.071228 165.683411,179.000153 
	C171.960266,176.522949 173.541809,171.082550 173.530594,165.200546 
	C173.492798,145.380188 173.706100,125.536049 172.783890,105.749451 
	C172.231781,93.903641 165.661148,84.974312 154.228271,80.811607 
	C139.436584,75.425964 125.767479,77.643990 113.878624,88.409340 
	C111.968925,90.138565 110.191704,92.014099 108.243614,93.929810 
	C107.912102,91.618668 107.780182,89.624954 107.323158,87.708794 
	C105.786293,81.265297 101.210114,77.706657 95.208054,78.139320 
	C89.291100,78.565857 85.588730,82.292648 84.734207,88.847649 
	C84.455223,90.987648 84.353165,93.164429 84.350555,95.324615 
	C84.323807,117.484909 84.308609,139.645309 84.366058,161.805511 
	C84.373360,164.623444 84.512428,167.506470 85.112206,170.245071 
	C86.837601,178.123383 94.975746,182.151596 102.172401,178.730789 
	C107.485458,176.205322 109.219009,171.471619 109.264503,165.963058 
	C109.349831,155.634125 109.165703,145.299194 109.457413,134.977036 
	C109.658997,127.843864 109.790062,120.592545 111.172386,113.636414 
	C113.191544,103.475639 123.168846,96.789001 133.459915,97.602592 
	C142.970642,98.354485 147.285400,103.091621 148.013168,115.547462 
	C148.750580,128.168869 148.540802,140.845612 148.745911,154.497223 
z"/>
    <path fill="none" d="
M148.745911,153.997681 
	C148.540802,140.845612 148.750580,128.168869 148.013168,115.547462 
	C147.285400,103.091621 142.970642,98.354485 133.459915,97.602592 
	C123.168846,96.789001 113.191544,103.475639 111.172386,113.636414 
	C109.790062,120.592545 109.658997,127.843864 109.457413,134.977036 
	C109.165703,145.299194 109.349831,155.634125 109.264503,165.963058 
	C109.219009,171.471619 107.485458,176.205322 102.172401,178.730789 
	C94.975746,182.151596 86.837601,178.123383 85.112206,170.245071 
	C84.512428,167.506470 84.373360,164.623444 84.366058,161.805511 
	C84.308609,139.645309 84.323807,117.484909 84.350555,95.324615 
	C84.353165,93.164429 84.455223,90.987648 84.734207,88.847649 
	C85.588730,82.292648 89.291100,78.565857 95.208054,78.139320 
	C101.210114,77.706657 105.786293,81.265297 107.323158,87.708794 
	C107.780182,89.624954 107.912102,91.618668 108.243614,93.929810 
	C110.191704,92.014099 111.968925,90.138565 113.878624,88.409340 
	C125.767479,77.643990 139.436584,75.425964 154.228271,80.811607 
	C165.661148,84.974312 172.231781,93.903641 172.783890,105.749451 
	C173.706100,125.536049 173.492798,145.380188 173.530594,165.200546 
	C173.541809,171.082550 171.960266,176.522949 165.683411,179.000153 
	C157.901825,182.071228 149.935471,177.145737 149.060730,168.477783 
	C148.594131,163.854095 148.828125,159.159698 148.745911,153.997681 
z"/>
</svg>