<svg xmlns="http://www.w3.org/2000/svg" viewBox="0 0 256 256">
    <path fill="currentColor" d="M209.796 45.26c-10.066-10.066-22.442-19.137-37.225-24.634-15.323-5.698-32.657-10.501-53.101-8.759-32.566 2.776-55.43 17.387-72.808 34.488C34.49 58.333 25.334 73.011 19.29 90.15c-8.874 25.165-8.335 54.868 1.642 80.472 8.51 21.84 22.44 39.455 42.152 53.1 18.53 12.83 45.127 22.779 74.998 20.256 36.383-3.073 63.003-21.739 80.472-43.247 4.47-5.502 8.914-11.722 11.496-19.16 2.53-5.36 3.768-9.002 4.927-10.948 4.852-10.873 7.423-22.344 8.211-35.036 2.426-39.036-12.593-69.528-33.392-90.326m-10.722 118.933c-.07.149-.132.287-.205.44-1.805 5.165-4.914 9.483-8.039 13.305-12.217 14.935-30.832 27.896-56.275 30.03-20.89 1.751-39.489-5.157-52.447-14.065-11.26-7.74-19.82-17.323-25.823-28.839-.366-.693-3.852-8.724-3.862-9.077-4.755-14.75-5.168-38.466-.287-52.698 3.257-9.5 8.686-19.777 15.875-27.92 9.927-11.242 19.861-18.447 35.584-23.539 7.178-2.325 13.605-4.692 22.444-4.927 21.555-.574 43.505 9.104 55.29 19.708 10.831 9.743 23.174 28.724 26.278 46.531 3.193 18.328-.215 36.223-8.533 51.051"/>
    <path fill="currentColor" d="M161.608 181.774c-5.308 0-9.966-3.361-11.592-8.364l-5.911-18.013H114.53l-5.493 17.848c-1.658 5.1-6.351 8.515-11.686 8.515-1.281 0-2.553-.203-3.782-.601-6.377-1.915-9.997-8.778-8.043-15.292l24.962-79.071c1.621-5.03 6.393-8.539 11.606-8.539h13.273c5.242 0 10.014 3.45 11.603 8.387l26.252 79.042c2.1 6.462-1.376 13.4-7.744 15.472-1.26.41-2.56.616-3.87.616"/>
    <path fill="currentColor" d="M161.608 180.067c-4.755 0-8.92-3.005-10.374-7.48l-5.913-18.016-.29-.881h-31.446l-.278.904-5.493 17.848a10.977 10.977 0 0 1-13.85 7.073c-5.726-1.72-8.963-7.87-7.212-13.707l24.957-79.053c1.448-4.495 5.73-7.644 10.385-7.644h13.273c4.689 0 8.966 3.092 10.385 7.499l26.256 79.053c1.879 5.784-1.233 11.998-6.926 13.852-1.13.367-2.3.552-3.474.552m0 2.56c1.444 0 2.88-.228 4.265-.678 7.046-2.293 10.883-9.956 8.567-17.085l-26.255-79.05c-1.757-5.457-7.022-9.263-12.818-9.263h-13.273c-5.772 0-11.034 3.87-12.824 9.426l-24.965 79.078c-2.16 7.199 1.833 14.783 8.896 16.903 1.33.432 2.735.655 4.15.655 5.893 0 11.075-3.774 12.904-9.399l5.499-17.867-1.224.903h29.575l-1.217-.88 5.912 18.012c1.797 5.529 6.947 9.245 12.808 9.245"/>
</svg>