<svg viewBox="0 0 64 64" role="img" version="1.1" xmlns="http://www.w3.org/2000/svg">
    <path fill="currentColor" fill-rule="evenodd"
          d="M 33.782 0.554 C 32.436 -0.185 30.805 -0.185 29.458 0.554 L 7.298 12.734 C 7.28 12.745 7.262 12.755 7.244 12.765 L 4.326 14.368 C 2.892 15.156 2 16.664 2 18.301 L 2 45.698 C 2 47.335 2.89 48.843 4.326 49.631 L 26.695 61.927 L 26.782 61.973 L 29.458 63.445 C 30.805 64.185 32.436 64.185 33.782 63.445 L 36.465 61.97 L 36.545 61.927 L 58.914 49.631 C 60.349 48.843 61.241 47.336 61.242 45.698 L 61.242 18.302 C 61.241 16.665 60.349 15.157 58.914 14.369 L 56.007 12.769 C 55.986 12.757 55.964 12.746 55.942 12.734 L 33.782 0.554 Z"
          clip-rule="evenodd" style="stroke-width: 1.33332; fill-opacity: 0.3;"
          transform="matrix(1, 0, 0, 1, 4.440892098500626e-16, 0)"/>
    <path fill="currentColor" fill-opacity="0.8"
          d="M 31.125 3.578 C 31.435 3.408 31.812 3.408 32.122 3.578 L 54.282 15.758 C 54.981 16.142 55.002 17.139 54.32 17.552 C 54.308 17.56 54.295 17.567 54.282 17.574 L 32.122 29.754 C 31.812 29.925 31.435 29.925 31.125 29.754 L 8.965 17.574 C 8.266 17.19 8.245 16.194 8.927 15.78 C 8.939 15.773 8.952 15.765 8.965 15.758 L 31.125 3.578 Z"
          style="stroke-width:1.33332" transform="matrix(1, 0, 0, 1, 4.440892098500626e-16, 0)"/>
    <path fill="currentColor"
          d="M 5.228 21.337 C 5.228 20.549 6.072 20.049 6.763 20.429 L 29.132 32.724 C 29.463 32.906 29.669 33.254 29.669 33.632 L 29.669 57.991 C 29.669 58.778 28.825 59.278 28.135 58.898 L 5.764 46.605 C 5.433 46.422 5.228 46.074 5.228 45.695 L 5.228 21.337 Z"
          style="stroke-width: 1.33332; fill-opacity: 0.8;" transform="matrix(1, 0, 0, 1, 4.440892098500626e-16, 0)"/>
    <path fill="currentColor"
          d="M 56.029 20.429 C 56.719 20.052 57.561 20.55 57.563 21.336 L 57.563 45.695 C 57.563 46.073 57.357 46.421 57.027 46.603 L 34.657 58.899 C 33.967 59.28 33.121 58.78 33.121 57.991 L 33.121 33.632 C 33.121 33.254 33.328 32.906 33.659 32.725 L 56.029 20.429 Z"
          style="stroke-width: 1.33332; fill-opacity: 0.3;" transform="matrix(1, 0, 0, 1, 4.440892098500626e-16, 0)"/>
    <path fill="currentColor"
          d="M 14.623 40.45 L 14.62 40.484 L 9.376 37.724 L 9.379 37.69 C 9.5 36.06 10.774 35.354 12.222 36.117 C 13.67 36.877 14.744 38.818 14.623 40.45 Z M 22.875 45.212 L 22.872 45.245 L 17.628 42.486 L 17.631 42.453 C 17.751 40.821 19.024 40.116 20.472 40.878 C 21.92 41.638 22.996 43.58 22.874 45.212 L 22.875 45.212 Z"
          style="stroke-width: 1.33332; fill-opacity: 0.7;" transform="matrix(1, 0, 0, 1, 4.440892098500626e-16, 0)"/>
</svg>