<?xml version="1.0" encoding="UTF-8"?>
<svg xmlns="http://www.w3.org/2000/svg" viewBox="0 0 500 500">
    <path fill="#003595" stroke-width="0px"
          d="M 456.312 459.582 L 456.312 464.399 L 442.692 464.399 L 442.692 500 L 437.161 500 L 437.161 464.399 L 423.54 464.399 L 423.54 459.582 L 456.308 459.582 L 456.312 459.582 Z"/>
    <path fill="#003595" stroke-width="0px"
          d="M 461.208 459.582 L 469.051 459.582 L 480.672 493.755 L 492.211 459.582 L 499.999 459.582 L 499.999 500 L 494.773 500 L 494.773 476.146 C 494.773 475.323 494.791 473.955 494.828 472.044 C 494.866 470.138 494.882 468.093 494.882 465.907 L 483.344 499.996 L 477.917 499.996 L 466.271 465.907 L 466.271 467.145 C 466.271 468.136 466.3 469.645 466.355 471.673 C 466.408 473.7 466.437 475.189 466.437 476.141 L 466.437 499.996 L 461.212 499.996 L 461.212 459.578 L 461.208 459.582 Z"/>
    <path fill="#003595" stroke-width="0px"
          d="M 250.001 0 C 111.928 0 0.001 111.932 0.001 250 C 0.001 388.068 111.932 500 250.001 500 C 388.069 500 499.999 388.068 499.999 250 C 499.999 111.932 388.069 0 250.001 0 Z M 250.001 461.492 C 133.198 461.492 38.512 366.806 38.512 250.004 C 38.512 133.202 133.198 38.517 250.001 38.517 C 366.802 38.517 461.488 133.202 461.488 250.004 C 461.488 366.806 366.802 461.492 250.001 461.492 Z"/>
    <path fill="#003595" stroke-width="0px"
          d="M 400.28 155.778 C 395.431 152.704 390.418 149.958 384.95 148.106 C 381.969 147.099 379.076 147.229 376.12 148.181 C 371.313 149.732 366.706 151.739 362.174 153.951 C 361.468 154.08 361.254 153.407 360.811 153.111 C 356.839 146.363 351.476 140.974 344.766 136.973 C 343.537 136.242 343.495 135.673 344.072 134.49 C 346.225 130.038 348.199 125.511 349.607 120.752 C 350.38 118.144 350.397 115.594 349.57 112.989 C 347.789 107.391 344.954 102.32 341.848 97.387 C 341.296 96.51 340.536 95.991 339.527 96.618 C 338.545 97.228 338.6 98.123 339.147 99.031 C 339.336 99.348 339.54 99.657 339.732 99.971 C 342.324 104.239 344.749 108.591 346.371 113.349 C 347.178 115.715 347.199 118.019 346.425 120.406 C 345 124.812 343.136 129.034 341.183 133.219 C 341.071 133.466 340.991 133.75 340.652 133.83 C 340.247 133.399 340.292 132.81 340.146 132.291 C 338.934 127.927 335.016 124.812 330.502 124.649 C 325.953 124.486 322.379 127.066 320.836 131.639 C 320.669 132.128 320.552 132.596 319.975 132.793 C 315.105 134.449 311.74 137.756 309.536 142.333 C 308.8 142.998 308.691 143.955 308.445 144.829 C 306.985 149.987 307.596 155.059 309.164 160.075 C 309.556 161.334 310.021 162.567 310.46 163.83 C 309.795 164.038 309.353 163.721 308.884 163.583 C 303.508 162.023 298.077 161.639 292.638 163.131 C 291.124 163.546 289.908 163.708 288.909 162.307 C 285.987 157.873 283.085 153.424 280.129 149.01 C 279.594 148.211 279.523 147.459 279.649 146.535 C 280.548 139.937 281.288 133.328 281.271 126.656 C 281.271 125.593 281.279 124.528 280.987 123.491 C 280.899 123.182 280.819 122.806 280.46 122.742 C 279.996 122.659 279.808 123.073 279.699 123.407 C 279.348 124.457 278.98 125.511 278.746 126.589 C 277.258 133.416 276.467 140.347 275.581 147.27 C 275.36 148.997 275.602 150.522 276.246 152.103 C 277.897 156.17 279.457 160.272 281.041 164.365 C 281.2 164.771 281.518 165.167 281.284 165.719 C 281.104 165.669 280.92 165.652 280.769 165.577 C 277.446 163.858 274.135 162.111 270.799 160.419 C 269.779 159.9 269.21 159.169 268.884 158.051 C 266.936 151.401 264.963 144.758 262.58 138.244 C 261.898 136.38 261.217 134.507 260.23 132.776 C 259.987 132.354 259.787 131.689 259.194 131.823 C 258.55 131.965 258.734 132.664 258.767 133.123 C 258.85 134.365 258.959 135.611 259.169 136.84 C 260.331 143.725 262.128 150.468 263.726 157.261 C 264.461 160.397 265.347 163.307 268.315 165.076 C 268.39 165.122 268.433 165.213 268.491 165.288 C 268.399 165.682 269.64 166.146 268.424 166.476 C 265.485 165.514 262.551 164.528 259.599 163.603 C 258.767 163.345 258.152 162.897 257.588 162.237 C 253.599 157.559 249.498 152.981 244.966 148.812 C 244.048 147.969 243.11 147.141 242.007 146.539 C 241.698 146.367 241.342 146.091 240.992 146.401 C 240.636 146.706 240.849 147.095 240.992 147.425 C 241.489 148.629 242.22 149.7 242.964 150.757 C 246.747 156.129 251.008 161.121 255.251 166.124 C 255.685 166.639 256.238 166.939 256.823 167.224 C 262.952 170.155 269.08 173.081 275.192 176.037 C 275.77 176.317 276.865 176.408 276.258 177.517 C 275.748 178.449 276.091 180.134 273.992 179.678 C 269.252 178.654 264.469 177.822 259.699 176.936 C 237.116 172.746 214.444 169.101 191.664 166.183 C 166.468 162.956 141.159 161.434 115.757 161.517 C 103.462 161.56 91.175 161.865 78.972 163.608 C 76.824 163.913 74.679 164.306 72.638 165.079 C 71.167 165.639 70.849 166.493 71.477 167.923 C 71.932 168.955 72.647 169.799 73.404 170.615 C 75.556 172.922 78.015 174.883 80.54 176.752 C 88.805 182.868 97.588 188.156 106.563 193.139 C 120.327 200.782 134.264 207.923 150.038 210.711 C 159.971 212.466 169.858 214.343 180 214.067 C 184.548 213.942 189.03 213.47 193.215 211.421 C 196.923 209.608 200.302 207.253 203.796 205.097 C 208.896 201.948 214.294 199.59 220.335 199.164 C 230.155 198.474 239.942 197.454 249.737 196.501 C 257.693 195.723 265.644 194.895 273.596 194.08 C 274.265 194.013 274.858 193.9 275.055 194.845 C 275.882 198.775 277.533 202.378 279.549 205.828 C 279.553 206.258 279.799 206.589 280.008 206.932 C 280.468 207.684 279.783 207.445 279.486 207.542 C 273.027 203.872 266.363 204.009 259.579 206.484 C 254.499 208.336 249.917 211.095 245.535 214.218 C 236.058 220.974 227.718 229.034 219.323 237.044 C 209.436 246.48 200.231 256.476 192.459 267.767 C 176.188 291.405 163.085 316.743 151.38 342.847 C 151.38 342.847 148.704 348.779 148.704 348.779 L 153.583 346.634 L 153.583 346.626 C 170.506 339.151 187.057 330.928 203.14 321.759 C 216.643 314.064 229.858 305.898 241.814 295.916 C 254.724 285.138 266.108 272.809 277.066 260.092 C 282.019 254.34 286.514 248.231 289.72 241.287 C 293.433 233.244 294.49 225.201 289.494 217.224 L 290.046 216.944 C 293.834 219.373 297.805 221.425 302.237 222.383 C 303.437 222.643 303.617 223.148 303.499 224.285 C 301.852 240 300.205 255.715 298.85 271.459 C 298.5 275.551 298.404 279.666 297.199 283.654 C 295.606 288.905 292.847 293.557 289.753 297.989 C 285.235 304.456 283.333 311.568 283.436 319.398 C 283.57 329.39 285.08 339.185 287.241 348.897 C 288.553 354.799 289.774 360.739 292.195 366.334 C 299.16 382.407 307.7 397.617 317.433 412.166 C 320.054 416.083 322.83 419.895 326.141 423.277 C 327.207 424.368 328.316 425.434 329.746 426.049 C 331.099 426.626 331.965 426.267 332.488 424.891 C 332.814 424.03 333.073 423.135 333.274 422.236 C 334.465 416.944 334.938 411.555 335.276 406.158 C 336.986 378.788 335.911 351.475 333.44 324.202 C 331.91 307.307 329.407 290.535 326.797 273.779 C 324.181 256.977 321.208 240.238 317.918 223.558 C 317.521 221.547 319.059 221.86 319.958 221.346 C 321.129 220.678 321.246 221.752 321.555 222.391 C 324.486 228.466 327.4 234.553 330.318 240.631 C 330.598 241.212 330.853 241.793 331.372 242.237 C 336.626 246.685 341.843 251.179 347.538 255.071 C 348.261 255.564 349.021 256.012 349.804 256.409 C 350.221 256.622 350.774 257.057 351.179 256.534 C 351.547 256.058 351.121 255.552 350.824 255.163 C 350.037 254.138 349.244 253.111 348.374 252.161 C 345.147 248.654 341.743 245.301 338.019 242.349 C 335.314 240.21 333.478 237.726 332.814 234.364 C 332.759 232.998 332.032 231.818 331.735 230.523 C 331.526 229.598 330.837 228.783 331.112 227.755 C 332.195 228.951 333.319 230.113 334.344 231.354 C 335.025 232.178 335.811 232.65 336.852 232.918 C 343.202 234.561 349.561 236.183 355.987 237.512 C 358.879 238.11 361.769 238.771 364.745 238.834 C 365.142 238.842 365.681 238.921 365.823 238.432 C 365.966 237.944 365.46 237.734 365.126 237.516 C 363.989 236.794 362.742 236.291 361.496 235.806 C 354.256 232.989 346.798 230.836 339.356 228.625 C 338.395 228.341 337.739 227.843 337.287 226.961 C 335.535 223.549 333.759 220.154 331.994 216.747 C 331.919 216.606 331.919 216.422 331.882 216.233 C 332.504 216.087 332.93 216.426 333.383 216.601 C 337.864 218.328 342.346 220.067 346.814 221.827 C 347.521 222.108 348.215 222.236 348.971 222.145 C 356.263 221.259 363.562 220.418 370.761 218.9 C 371.935 218.654 373.102 218.357 374.205 217.864 C 374.536 217.713 374.95 217.558 374.854 217.091 C 374.783 216.735 374.41 216.652 374.093 216.581 C 372.772 216.283 371.43 216.292 370.092 216.304 C 363.659 216.376 357.274 217.061 350.907 217.922 C 350.092 218.031 349.406 217.981 348.688 217.504 C 343.984 214.398 339.265 211.313 334.519 208.274 C 333.679 207.734 333.44 207.253 333.767 206.263 C 335.289 201.638 335.368 196.923 334.532 192.157 C 334.205 190.309 333.57 188.541 333.123 186.719 C 333.75 186.505 334.126 186.856 334.532 187.02 C 339.176 188.901 343.968 190 349.005 189.498 C 355.782 188.821 361.058 185.74 364.022 179.436 C 364.779 177.831 365.615 176.861 367.321 176.187 C 371.2 174.653 373.361 170.628 372.951 166.451 C 372.525 162.111 369.256 158.395 364.971 157.341 C 364.565 157.241 364.03 157.4 363.746 156.806 C 364.035 156.639 364.294 156.459 364.577 156.325 C 368.173 154.628 371.86 153.157 375.548 151.681 C 379.322 150.167 382.889 150.452 386.547 152.044 C 390.715 153.859 394.682 156.008 398.524 158.42 C 399.428 158.984 400.309 159.105 400.954 158.144 C 401.589 157.195 401.212 156.375 400.296 155.794 L 400.28 155.778 Z"/>
</svg>