<?xml version="1.0" encoding="utf-8"?>
<svg xmlns="http://www.w3.org/2000/svg" viewBox="0 0 200 165">
  <path fill="currentColor" d="M 20 0 L 180 0 C 191.046 0 200 8.954 200 20 L 200 145 C 200 156.046 191.046 165 180 165 L 20 165 C 8.954 165 0 156.046 0 145 L 0 20 C 0 8.954 8.954 0 20 0 Z M 105.2 86.784 L 144.159 86.784 L 144.159 93.294 C 138.048 95.264 133.151 99.495 130.155 104.802 L 108.789 104.802 C 108.279 98.379 106.641 92.299 104.079 86.748 C 104.368 86.773 104.66 86.787 104.955 86.787 C 105.037 86.787 105.118 86.786 105.2 86.784 Z M 128.125 124.802 C 128.659 126.421 129.372 128.024 130.276 129.59 C 139.898 146.257 163.955 146.257 173.577 129.59 C 175.771 125.79 176.927 121.479 176.927 117.09 C 176.916 107.733 171.772 99.58 164.159 95.294 L 164.159 80.375 C 164.15 72.872 158.07 66.793 150.568 66.784 L 112.832 66.784 L 103.985 30.237 C 102.899 25.75 98.883 22.59 94.266 22.59 L 53.574 22.59 C 53.216 22.57 52.86 22.571 52.506 22.59 L 39.456 22.59 C 35.883 22.59 32.582 24.496 30.795 27.59 C 26.946 34.257 31.758 42.59 39.456 42.59 L 43.025 42.59 L 43.025 55.883 L 39.456 55.883 C 35.883 55.883 32.582 57.789 30.795 60.883 C 26.946 67.549 31.758 75.883 39.456 75.883 L 55.897 75.883 C 74.146 75.905 88.932 90.696 88.948 108.945 L 88.955 114.813 C 88.961 120.332 93.436 124.802 98.955 124.802 Z M 93.377 71.423 C 85.344 63.401 74.77 57.961 63.025 56.367 L 63.025 42.59 L 86.398 42.59 Z M 52.741 102.09 C 60.439 102.09 65.25 110.423 61.401 117.09 C 57.552 123.757 47.929 123.757 44.08 117.09 C 43.203 115.57 42.741 113.845 42.741 112.09 C 42.741 106.567 47.218 102.09 52.741 102.09 Z M 52.741 82.09 C 29.647 82.09 15.213 107.09 26.76 127.09 C 38.307 147.09 67.174 147.09 78.721 127.09 C 81.354 122.53 82.741 117.356 82.741 112.09 C 82.722 95.529 69.301 82.109 52.741 82.09 Z M 151.927 112.09 C 155.776 112.09 158.181 116.257 156.257 119.59 C 154.332 122.923 149.521 122.923 147.596 119.59 C 147.158 118.83 146.927 117.968 146.927 117.09 C 146.927 114.329 149.165 112.09 151.927 112.09 Z" />
</svg>