<svg viewBox="0 0 38 38" fill="none" xmlns="http://www.w3.org/2000/svg">
    <path d="M22.0469 11.311C21.0725 10.3518 19.7937 9.83422 18.4159 9.84945C17.7841 9.84945 17.2817 10.3747 17.2817 10.9989C17.2817 11.623 17.7994 12.133 18.4235 12.133C18.4312 12.133 18.4464 12.133 18.4616 12.133C20.0068 12.133 21.278 13.389 21.2933 14.9343C21.2933 15.5585 21.8109 16.0685 22.4351 16.0685H22.4427C23.0745 16.0685 23.5769 15.5432 23.5769 14.919C23.5616 13.5565 23.0212 12.2701 22.0469 11.3186V11.311Z" fill="#126ED3"/>
    <path d="M18.5908 2.93009C18.6364 2.93009 18.6745 2.93009 18.7126 2.93009C24.589 2.93009 29.6206 7.28415 30.4503 13.0997C30.534 13.6706 31.0212 14.0817 31.5769 14.0817C31.6301 14.0817 31.6834 14.0817 31.7367 14.0741C32.3609 13.9827 32.7948 13.4042 32.7034 12.78C31.7291 5.83787 25.7232 0.646484 18.7202 0.646484C18.6745 0.646484 18.6288 0.646484 18.5832 0.646484C17.9514 0.646484 17.449 1.17171 17.449 1.7959C17.449 2.42008 17.9666 2.93009 18.5908 2.93009Z" fill="#126ED3"/>
    <path d="M28.2352 15.6957C28.3418 12.9706 27.3675 10.2151 25.2894 8.14461C21.3388 4.19398 14.9142 4.19398 10.9712 8.14461C8.9388 10.177 7.90356 12.9021 8.02535 15.7338C6.33549 16.1677 4.72936 17.0354 3.40487 18.3599C-0.545763 22.3106 -0.545763 28.7351 3.40487 32.6781C5.37638 34.6496 7.97207 35.6392 10.5678 35.6392C13.1635 35.6392 15.7515 34.6496 17.7307 32.6781C17.8905 32.5183 18.0351 32.3432 18.1874 32.1757C20.0447 34.2995 22.7622 35.6468 25.7994 35.6468C31.3866 35.6468 35.9234 31.1024 35.9234 25.5228C35.9234 20.8643 32.6806 16.7995 28.2352 15.6957ZM25.7994 33.3632C21.4758 33.3632 17.959 29.8464 17.959 25.5228C17.959 24.891 17.449 24.381 16.8172 24.381C16.1854 24.381 15.6754 24.891 15.6754 25.5228C15.6754 27.2203 16.1017 28.8188 16.8401 30.227C16.6193 30.5239 16.3833 30.8056 16.1169 31.072C13.0569 34.132 8.07864 34.132 5.02622 31.072C1.9662 28.0119 1.9662 23.0413 5.02622 19.9813C8.08625 16.9213 13.0569 16.9213 16.1169 19.9813C16.566 20.4304 17.2892 20.4304 17.7307 19.9813C18.1722 19.5322 18.1798 18.809 17.7307 18.3675C15.683 16.3199 12.9732 15.3456 10.2861 15.4217C10.2557 13.3056 11.0625 11.2808 12.5849 9.76597C15.645 6.70594 20.6156 6.70594 23.6756 9.76597C26.7357 12.826 26.7357 17.8042 23.6756 20.8567C23.2265 21.3058 23.2265 22.0289 23.6756 22.4704C23.8964 22.6912 24.1933 22.8053 24.4825 22.8053C24.7718 22.8053 25.0686 22.6912 25.2894 22.4704C26.5834 21.1764 27.4436 19.6235 27.8851 17.9793C31.2191 18.908 33.6398 21.9985 33.6398 25.5304C33.6398 29.8541 30.123 33.3708 25.7994 33.3708V33.3632Z" fill="#126ED3"/>
</svg>
