<svg version="1.1" viewBox="0 0 81.333336 81.333336"
   xmlns="http://www.w3.org/2000/svg">
   <g transform="matrix(1.3333333,0,0,-1.3333333,0,81.333333)">
      <g transform="scale(0.1)">
         <path fill="#1c1e25" stroke="none" d="M 303.418,76.1094 147.453,166.406 V 100.301 L 303.418,10.1445 459.387,100.301 v 66.105 L 303.418,76.1094" />
         <path fill="#982e9c" stroke="none" d="M 499.438,486.844 V 123.461 l 59.054,34.148 v 295.079 l -59.054,34.156" />
         <path fill="#1c1e25" stroke="none" d="m 147.453,509.996 v -70.508 l 155.965,90.157 155.969,-90.157 v 70.508 L 303.418,600.145 147.453,509.996" />
         <path fill="#982e9c" stroke="none" d="M 48.4922,452.688 V 157.609 l 58.9098,-34.004 v 363.09 L 48.4922,452.688" />
         <path fill="#982e9c" stroke="none" d="m 321.25,192.945 v 125.141 h 32.887 v 37.305 H 321.25 v 6.757 c 0,15.832 8.039,23.571 20.145,23.571 7.699,0 13.418,-2.36 17.773,-6.406 l 16.094,25.886 c -9.739,11.11 -26.5,15.465 -42.258,15.465 -32.524,0 -54.32,-21.855 -54.32,-58.516 v -6.757 h -26.836 v -37.305 h 26.836 V 192.945 h 42.566" />
      </g>
   </g>
</svg>
