<svg viewBox="0 0 36 36" fill="none" xmlns="http://www.w3.org/2000/svg">
    <path d="M34.3123 19.1866C33.6862 19.1866 33.1808 18.6813 33.1808 18.0552C33.1808 9.65216 26.3467 2.81811 17.9437 2.81811C17.3176 2.81811 16.8123 2.31272 16.8123 1.68664C16.8123 1.06056 17.3176 0.555176 17.9437 0.555176C27.5914 0.555176 35.4437 8.40755 35.4437 18.0552C35.4437 18.6813 34.9383 19.1866 34.3123 19.1866Z" fill="#126ED3"/>
    <path d="M17.9438 35.5548C8.29622 35.5548 0.443848 27.7024 0.443848 18.0548C0.443848 17.4287 0.949236 16.9233 1.57531 16.9233C2.20139 16.9233 2.70678 17.4287 2.70678 18.0548C2.70678 26.4578 9.54083 33.2919 17.9438 33.2919C18.5699 33.2919 19.0753 33.7973 19.0753 34.4233C19.0753 35.0494 18.5699 35.5548 17.9438 35.5548Z" fill="#126ED3"/>
    <path d="M22.8543 19.1867C22.2282 19.1867 21.7228 18.6813 21.7228 18.0552C21.7228 15.9733 20.0256 14.2761 17.9437 14.2761C17.3176 14.2761 16.8123 13.7707 16.8123 13.1446C16.8123 12.5186 17.3176 12.0132 17.9437 12.0132C21.2778 12.0132 23.9857 14.7212 23.9857 18.0552C23.9857 18.6813 23.4804 19.1867 22.8543 19.1867Z" fill="#126ED3"/>
    <path d="M17.9436 24.0968C14.6096 24.0968 11.9016 21.3889 11.9016 18.0548C11.9016 17.4287 12.407 16.9233 13.0331 16.9233C13.6592 16.9233 14.1645 17.4287 14.1645 18.0548C14.1645 20.1367 15.8617 21.8339 17.9436 21.8339C18.5697 21.8339 19.0751 22.3393 19.0751 22.9654C19.0751 23.5914 18.5697 24.0968 17.9436 24.0968Z" fill="#126ED3"/>
    <path d="M28.5795 19.1863C27.9534 19.1863 27.448 18.6809 27.448 18.0548C27.448 12.8124 23.1862 8.55053 17.9437 8.55053C17.3176 8.55053 16.8123 8.04514 16.8123 7.41906C16.8123 6.79299 17.3176 6.2876 17.9437 6.2876C24.4308 6.2876 29.711 11.5678 29.711 18.0548C29.711 18.6809 29.2056 19.1863 28.5795 19.1863Z" fill="#126ED3"/>
    <path d="M17.9438 29.822C11.4567 29.822 6.17651 24.5419 6.17651 18.0548C6.17651 17.4287 6.6819 16.9233 7.30798 16.9233C7.93406 16.9233 8.43944 17.4287 8.43944 18.0548C8.43944 23.2973 12.7013 27.5591 17.9438 27.5591C18.5698 27.5591 19.0752 28.0645 19.0752 28.6906C19.0752 29.3167 18.5698 29.822 17.9438 29.822Z" fill="#126ED3"/>
</svg>
