<svg viewBox="0 0 38 38" fill="none" xmlns="http://www.w3.org/2000/svg">
    <path d="M34.532 19.5768C34.532 20.4717 33.5057 20.9982 32.7887 20.4642C32.0039 19.8701 31.4982 18.9376 31.0907 18.178C30.5323 17.1402 30.1549 16.5085 29.6569 16.5085C29.1588 16.5085 28.7815 17.1402 28.223 18.178C27.574 19.3888 26.6835 21.0433 24.7817 21.0433C22.88 21.0433 21.9895 19.3888 21.3405 18.178C20.782 17.1402 20.4122 16.5085 19.9066 16.5085C19.401 16.5085 19.0312 17.1402 18.4803 18.178C17.8313 19.3888 16.9408 21.0433 15.0466 21.0433C13.1524 21.0433 12.2543 19.3888 11.6053 18.178C11.0469 17.1402 10.6771 16.5085 10.1715 16.5085C9.66584 16.5085 9.29605 17.1402 8.7376 18.178C8.08859 19.3888 7.19809 21.0433 5.29633 21.0433C3.39458 21.0433 2.50408 19.3888 1.85507 18.178C1.46264 17.4485 1.16832 16.9221 0.851366 16.6739C0.61742 16.4709 0.443848 16.2001 0.443848 15.8843V15.7038C0.443848 14.8089 1.47019 14.2824 2.18712 14.8164C2.97197 15.4105 3.47005 16.343 3.87757 17.1026C4.43602 18.1404 4.8058 18.7721 5.30388 18.7721C5.80196 18.7721 6.17929 18.1404 6.73019 17.1026C7.3792 15.8918 8.26971 14.2373 10.1715 14.2373C12.0732 14.2373 12.9637 15.8918 13.6127 17.1026C14.1712 18.1404 14.541 18.7721 15.0466 18.7721C15.5522 18.7721 15.922 18.1404 16.4729 17.1026C17.1219 15.8918 18.0124 14.2373 19.9066 14.2373C21.8008 14.2373 22.6989 15.8918 23.3479 17.1026C23.9063 18.1404 24.2761 18.7721 24.7817 18.7721C25.2874 18.7721 25.6572 18.1404 26.2156 17.1026C26.8646 15.8918 27.7551 14.2373 29.6569 14.2373C31.5586 14.2373 32.4491 15.8918 33.0981 17.1026C33.4906 17.8321 33.7924 18.3585 34.1094 18.6067C34.3584 18.8022 34.532 19.0805 34.532 19.3963V19.5768Z" fill="currentColor"/>
    <path d="M17.786 35.1369C13.6807 35.1369 9.77151 33.7305 6.62456 31.136C6.11893 30.7224 6.0812 29.9553 6.534 29.4815C6.94906 29.0453 7.62072 29.0152 8.08861 29.3913C10.9337 31.7376 14.4882 32.9635 18.2162 32.8582C21.9442 32.7604 25.4308 31.3466 28.14 28.8573C28.5853 28.4512 29.2569 28.4512 29.6946 28.8573C30.1701 29.3085 30.1701 30.0681 29.6946 30.5193C26.5703 33.3846 22.5631 35.009 18.2841 35.1218C18.1256 35.1218 17.9596 35.1218 17.8011 35.1218L17.786 35.1369Z" fill="currentColor"/>
    <path d="M5.9074 6.40103C5.43196 5.94981 5.43196 5.18272 5.91495 4.73902C9.13736 1.79102 13.2125 0.249333 17.333 0.136527C21.4459 0.0237205 25.6041 1.34731 28.9699 4.11482C29.4755 4.53597 29.5208 5.29553 29.068 5.76932C28.653 6.2055 27.9813 6.23558 27.521 5.85956C24.6155 3.46807 21.0384 2.32497 17.4915 2.39265C13.8766 2.46785 10.292 3.80649 7.46201 6.39351C7.0243 6.79961 6.3451 6.79209 5.9074 6.38599V6.40103Z" fill="currentColor"/>
</svg>
