<?xml version="1.0" encoding="UTF-8" standalone="no"?>
<!-- Created with Inkscape (http://www.inkscape.org/) -->

<svg
   version="1.1"
   id="svg2"
   width="81.333336"
   height="81.333336"
   viewBox="0 0 81.333336 81.333336"
   sodipodi:docname="Sonatype Product Logos_sonatype-lifecycle-icon.eps"
   xmlns:inkscape="http://www.inkscape.org/namespaces/inkscape"
   xmlns:sodipodi="http://sodipodi.sourceforge.net/DTD/sodipodi-0.dtd"
   xmlns="http://www.w3.org/2000/svg"
   xmlns:svg="http://www.w3.org/2000/svg">
  <defs
     id="defs6" />
  <sodipodi:namedview
     id="namedview4"
     pagecolor="#ffffff"
     bordercolor="#000000"
     borderopacity="0.25"
     inkscape:showpageshadow="2"
     inkscape:pageopacity="0.0"
     inkscape:pagecheckerboard="0"
     inkscape:deskcolor="#d1d1d1" />
  <g
     id="g8"
     inkscape:groupmode="layer"
     inkscape:label="ink_ext_XXXXXX"
     transform="matrix(1.3333333,0,0,-1.3333333,0,81.333333)">
    <g
       id="g10"
       transform="scale(0.1)">
      <path
         d="M 562.059,424.246 V 151.512 L 541.887,139.902 327.008,15.1445 v 66.2696 l 157.867,91.5509 18.129,10.433 v 206.465 l 59.055,34.383"
         style="fill:#1c1e25;fill-opacity:1;fill-rule:nonzero;stroke:none"
         id="path12" />
      <path
         d="m 541.887,458.926 -60.953,-35.418 -153.926,89.344 -20.024,11.609 -20.023,-11.609 -153.777,-89.344 -60.9574,35.418 214.7344,124.609 20.023,11.61 20.024,-11.61 214.879,-124.609"
         style="fill:#4461b6;fill-opacity:1;fill-rule:nonzero;stroke:none"
         id="path14" />
      <path
         d="M 286.961,81.4141 V 15.1445 L 72.2266,139.902 52.0586,151.512 V 424.246 L 111.109,389.863 V 183.398 l 18.129,-10.433 157.723,-91.5509"
         style="fill:#1c1e25;fill-opacity:1;fill-rule:nonzero;stroke:none"
         id="path16" />
      <path
         d="m 275.41,229.203 c 0,-15.238 4.332,-26.101 12.985,-32.574 8.195,-6.324 18.636,-9.52 31.269,-9.52 h 29.684 v 47.164 h -11.989 c -8.648,0 -12.98,3.95 -12.98,11.836 V 430.547 H 275.41 V 229.203"
         style="fill:#4460b6;fill-opacity:1;fill-rule:nonzero;stroke:none"
         id="path18" />
    </g>
  </g>
</svg>
