<?xml version="1.0" encoding="utf-8"?>
<svg xmlns="http://www.w3.org/2000/svg" viewBox="0 0 101.7101 115.0859">
    <g transform="matrix(0.2645833194255829, 0, 0, 0.2645833194255829, -18.81735610961914, -8.33786678314209)">
        <path stroke="currentColor" fill="currentColor" d="m266.67 289.6c9.5556 34.667 24.444 63.067 44.667 92.4 24.444 32.889 60.889 59.778 97.333 82.667 10.667 3.111 23.333 2.2222 36-2.6667 8.2222-8.8889 11.778-20.444 10.667-32.667-17.556-37.111-32.111-73.556-59.667-104.33-30.667-29.111-52.334-47.356-93.667-67.133l-16 17.467-19.333 14.267z"/>
        <path d="m254 272 17-13.8 15-16.2 16 15.6-16.2 18.2-19.2 14.6z" stroke="currentColor" fill="currentColor"/>
    </g>
    <g transform="matrix(1, 0, 0, 1, -137.7442932128906, -150.5771331787109)">
        <path fill="currentColor" stroke="currentColor" d="M 208.004 186.37 C 207.478 205.428 191.586 220.517 172.35 220.219 C 153.115 219.923 137.689 204.349 137.744 185.284 C 137.799 166.217 153.314 150.748 172.551 150.578 C 191.788 150.41 207.593 165.603 208.009 184.665 L 208.004 186.37 Z M 199.542 185.195 C 199.226 170.681 187.192 159.112 172.546 159.24 C 157.898 159.37 146.085 171.148 146.043 185.665 C 146.002 200.182 157.746 212.039 172.392 212.265 C 187.038 212.491 199.138 201.004 199.538 186.492 L 199.542 185.195 Z" stroke-width=".310568"/>
        <path fill="currentColor" d="m195.58311 186.32655q0 .74082-.54137 1.28218-.54137.54137-1.28219.54137h-6.38241q0 4.8723-1.90904 8.26296l5.92654 5.95504q.54137.54136.54137 1.28218 0 .74082-.54137 1.28219-.51288.54136-1.28218.54136-.76931 0-1.28219-.54136l-5.64161-5.61312q-.14246.14247-.42739.37041-.28493.22795-1.19671.81205-.91177.5841-1.85204 1.04-.94027.45588-2.33642.82629-1.39616.37041-2.76382.37041v-25.52971h-3.64711v25.52971q-1.45314 0-2.89203-.38466-1.4389-.38465-2.4789-.94027-1.03998-.55561-1.88053-1.11123-.84054-.55561-1.23944-.92601l-.42739-.39891-5.21423 5.89805q-.56985.59835-1.36766.59835-.68383 0-1.22519-.45589-.54137-.51286-.58411-1.26793-.0427-.75506.44164-1.32492l5.75558-6.46791q-1.65259-3.2482-1.65259-7.80708h-6.38243q-.74081 0-1.28219-.54137-.54136-.54136-.54136-1.28218 0-.74081.54136-1.28219.54138-.54136 1.28219-.54136h6.38243v-8.37693l-4.92929-4.92929q-.54136-.54137-.54136-1.28218 0-.74083.54136-1.28218.54137-.54138 1.28219-.54138.74082 0 1.28218.54138l4.92929 4.92928h24.04807l4.92929-4.92928q.54136-.54138 1.28219-.54138.74081 0 1.28217.54138.54137.54135.54137 1.28218 0 .74081-.54137 1.28218l-4.92927 4.92929v8.37693h6.38241q.74082 0 1.28219.54136.54137.54138.54137 1.28219zm-13.67664-16.41195h-18.23549q0-3.78956 2.66409-6.45366 2.66408-2.6641 6.45365-2.6641 3.78956 0 6.45366 2.6641 2.66409 2.6641 2.66409 6.45366z" />
    </g>
</svg>