<svg viewBox="0 0 1000 950" fill="none" xmlns="http://www.w3.org/2000/svg">
    <path d="M161.548 99.9782C161.548 102.621 162.564 105.213 164.445 107.093C169.324 112.074 174.304 117.054 179.335 122.085C311.622 253.508 416.364 317.746 499.558 318.508C582.397 319.27 688.257 254.677 823.237 121.018C827.151 117.156 830.962 113.344 834.723 109.482L835.689 108.516C837.569 106.585 838.636 104.044 838.636 101.35C838.636 101.046 838.636 100.741 838.636 100.436C838.382 97.4372 836.807 94.7437 834.316 93.0158C809.16 75.4826 782.784 59.9315 755.9 46.8197C752.037 44.9393 747.413 45.7016 744.312 48.7C636.775 154.052 550.227 211.835 500.575 211.378C449.652 210.92 362.85 152.73 256.177 47.5819C253.127 44.5835 248.503 43.8212 244.64 45.6507C217.807 58.61 191.329 74.0596 165.969 91.542C163.479 93.2699 161.904 95.9634 161.65 98.9618C161.65 99.2668 161.65 99.6225 161.65 99.9274L161.548 99.9782Z"
          fill="url(#talos-icon-color-clip-1)"/>
    <path d="M5.09764 340.45C7.38627 339.128 10.1391 338.713 12.7078 339.401C19.4604 341.136 26.2638 342.959 33.1366 344.8C213.096 393.653 321.098 452.244 363.355 523.911C405.435 595.269 402.425 719.244 354.163 902.97C352.775 908.29 351.38 913.497 349.915 918.685L349.562 920.004C348.83 922.598 347.163 924.792 344.83 926.139C344.566 926.292 344.302 926.444 344.038 926.597C341.314 927.876 338.194 927.858 335.452 926.566C307.69 913.546 281.034 898.479 256.237 881.753C252.677 879.348 251.025 874.962 252.072 870.778C289.54 724.972 296.308 621.127 271.086 578.356C245.228 534.484 151.433 488.406 7.0355 448.599C2.91415 447.457 -0.0584119 443.833 -0.405173 439.574C-2.59882 409.855 -2.45803 379.2 0.00231005 348.497C0.253608 345.476 1.79856 342.765 4.26822 341.046C4.53229 340.893 4.84039 340.716 5.10447 340.563L5.09764 340.45Z"
          fill="url(#talos-icon-color-clip-2)"/>
    <path d="M656.308 926.824C654.02 925.502 652.283 923.326 651.595 920.758C649.721 914.042 647.898 907.239 646.057 900.366C598.385 720.091 595.125 597.262 636.061 524.833C676.82 452.712 785.69 393.331 968.932 343.264C974.234 341.806 979.44 340.411 984.666 339.085L985.985 338.732C988.597 338.069 991.332 338.415 993.664 339.762C993.928 339.914 994.192 340.067 994.456 340.219C996.926 341.939 998.471 344.65 998.722 347.67C1001.33 378.223 1001.61 408.841 999.521 438.679C999.218 442.965 996.246 446.589 992.099 447.774C847.093 488.228 753.777 534.29 729.347 577.518C704.282 621.847 711.275 726.115 748.999 871.071C750.071 875.211 748.419 879.597 744.904 882.027C720.264 898.786 693.645 913.992 665.825 927.213C663.084 928.505 659.963 928.523 657.24 927.244C656.975 927.091 656.667 926.914 656.403 926.761L656.308 926.824Z"
          fill="url(#talos-icon-color-clip-3)"/>
    <defs>
        <linearGradient id="talos-icon-color-clip-1" x1="70.4674" y1="181.59" x2="838.636" y2="181.59"
                        gradientUnits="userSpaceOnUse">
            <stop stop-color="#E8312C"/>
            <stop offset="0.615385" stop-color="#E2335A"/>
            <stop offset="1" stop-color="#F77216"/>
        </linearGradient>
        <linearGradient id="talos-icon-color-clip-2" x1="30.2353" y1="220.766" x2="414.32" y2="886.019"
                        gradientUnits="userSpaceOnUse">
            <stop stop-color="#E8312C"/>
            <stop offset="0.615385" stop-color="#E2335A"/>
            <stop offset="1" stop-color="#F77216"/>
        </linearGradient>
        <linearGradient id="talos-icon-color-clip-3" x1="540.09" y1="964.896" x2="924.175" y2="299.642"
                        gradientUnits="userSpaceOnUse">
            <stop stop-color="#E8312C"/>
            <stop offset="0.615385" stop-color="#E2335A"/>
            <stop offset="1" stop-color="#F77216"/>
        </linearGradient>
    </defs>
</svg>
