<?xml version="1.0" encoding="utf-8"?>
<svg viewBox="217.548 69.964 265.136 215.809" xmlns="http://www.w3.org/2000/svg">
    <linearGradient id="tempo-icon-color-gradient" x1="195.047" y1="9.446" x2="95.165" y2="40.321"
                    gradientUnits="userSpaceOnUse"
                    gradientTransform="matrix(3.082971, 0, 0, 3.082971, -16.756675, 69.962621)">
        <stop stop-color="#FFF100"/>
        <stop offset="1" stop-color="#F05A28"/>
    </linearGradient>
    <path fill="currentColor"
          d="M 227.531 124.508 L 222.776 124.508 C 219.925 124.508 217.548 126.878 217.548 129.724 C 217.548 132.57 219.925 134.943 222.776 134.943 L 227.531 134.943 C 230.382 134.943 232.759 132.57 232.759 129.724 C 232.759 126.878 230.382 124.508 227.531 124.508 Z M 323.084 199.449 L 318.33 199.449 C 315.479 199.449 313.102 201.819 313.102 204.665 C 313.102 207.511 315.479 209.881 318.33 209.881 L 323.084 209.881 C 325.936 209.881 328.313 207.511 328.313 204.665 C 327.839 201.819 325.936 199.449 323.084 199.449 Z M 318.805 150.121 C 318.805 147.275 316.427 144.902 313.576 144.902 L 296.462 144.902 C 293.611 144.902 291.232 147.275 291.232 150.121 C 291.232 152.967 293.611 155.338 296.462 155.338 L 313.576 155.338 C 316.427 155.338 318.805 152.967 318.805 150.121 Z M 482.341 117.868 L 477.109 88.462 C 474.732 76.603 466.178 69.964 454.767 69.964 L 252.25 69.964 C 243.216 69.964 237.039 77.551 238.464 86.563 L 244.17 117.868 C 244.17 118.342 244.17 118.342 244.17 118.816 C 244.644 122.613 242.742 124.034 241.317 124.508 C 239.416 125.457 237.988 126.878 237.988 129.249 C 237.988 132.095 240.365 134.469 243.216 134.469 L 468.555 134.469 C 478.061 134.943 484.24 127.354 482.341 117.868 Z M 413.884 235.97 C 411.507 224.584 405.326 220.317 397.721 220.317 L 344.952 220.317 L 344.002 220.317 C 341.151 220.317 338.773 222.689 338.773 225.533 C 338.773 228.379 340.673 230.278 343.528 230.754 C 345.427 231.225 346.853 233.124 348.282 238.816 L 353.985 269.17 C 355.413 278.182 364.441 285.773 373.95 285.773 L 405.804 285.773 C 415.311 285.773 421.49 278.182 420.065 269.17 L 413.884 235.97 Z M 343.05 210.357 L 401.05 210.357 C 401.524 210.357 401.999 210.357 402.473 210.357 C 407.703 209.406 408.181 204.665 407.227 200.394 L 399.621 160.08 C 397.721 149.647 391.542 145.376 383.458 145.376 L 331.164 145.376 L 330.216 145.376 C 327.364 145.376 324.987 147.748 324.987 150.593 C 324.987 153.441 326.888 155.338 329.739 155.813 C 331.642 156.287 333.541 158.659 334.494 164.349 L 340.198 195.179 C 340.673 198.025 338.773 199.449 336.871 200.394 C 334.97 200.871 333.541 202.77 333.541 205.139 C 333.541 207.985 335.918 210.357 338.773 210.357 L 343.05 210.357 Z"/>
</svg>