<?xml version="1.0" encoding="utf-8"?>
<svg viewBox="0 0 250 250" xmlns="http://www.w3.org/2000/svg">
    <circle fill="#000000" stroke="#000000" stroke-width="10" cx="125.59" cy="125.59" r="117.419" transform="matrix(1, 0, 0, 1, -2.842170943040401e-14, 0)"/>
    <ellipse fill="none" stroke="#ffffff" stroke-width="10" cx="125.59" cy="127.188" rx="107.834" ry="107.834" transform="matrix(1, 0, 0, 1, -2.842170943040401e-14, 0)"/>
    <path fill="#ffffff" d="M 174.697 84.382 C 195.338 63.708 196.314 62.778 196.527 63.576 C 196.774 64.497 196.388 105.216 196.13 105.474 C 196.042 105.562 186.322 105.722 174.529 105.829 L 153.089 106.024 L 174.697 84.382 Z" transform="matrix(1, 0, 0, 1, -2.842170943040401e-14, 0)"/>
    <path fill="#ffffff" d="M 184.832 141.597 C 178.353 134.968 168.652 125.058 163.273 119.576 L 153.492 109.609 L 174.823 109.609 L 196.155 109.609 L 196.169 112.576 C 196.178 114.208 196.3 124.103 196.442 134.565 C 196.584 145.027 196.68 153.601 196.656 153.619 C 196.631 153.637 191.31 148.227 184.832 141.597 L 184.832 141.597 Z" transform="matrix(1, 0, 0, 1, -2.842170943040401e-14, 0)"/>
    <path fill="#ffffff" d="M 158.235 155.337 L 151.207 155.25 L 151.008 149.549 C 150.898 146.413 150.808 136.658 150.808 127.87 L 150.807 111.893 L 168.783 129.849 C 178.67 139.724 188.409 149.55 190.426 151.685 L 194.093 155.565 L 179.678 155.495 C 171.75 155.456 162.101 155.385 158.235 155.337 L 158.235 155.337 Z" transform="matrix(1, 0, 0, 1, -2.842170943040401e-14, 0)"/>
    <path fill="#ffffff" d="M 150.875 180.866 C 150.921 169.322 151.068 159.767 151.202 159.633 C 151.488 159.347 178.527 158.868 187.785 158.985 L 194.176 159.065 L 173.024 180.155 C 161.39 191.754 151.629 201.382 151.331 201.55 C 150.815 201.842 150.794 200.902 150.875 180.866 L 150.875 180.866 Z" transform="matrix(1, 0, 0, 1, -2.842170943040401e-14, 0)"/>
    <path fill="#ffffff" d="M 125.498 181.107 C 114.058 169.544 104.588 159.889 104.455 159.651 C 104.245 159.278 106.369 159.217 119.547 159.217 C 127.982 159.217 137.575 159.307 140.866 159.418 L 146.85 159.618 L 146.85 180.874 C 146.85 193.394 146.737 202.13 146.574 202.13 C 146.422 202.13 136.938 192.67 125.498 181.107 L 125.498 181.107 Z" transform="matrix(1, 0, 0, 1, -2.842170943040401e-14, 0)"/>
    <path fill="#ffffff" d="M 105.383 204.642 L 102.111 204.545 L 102.108 184.544 C 102.107 173.544 102.023 163.79 101.922 162.869 L 101.738 161.196 L 121.574 180.978 C 132.484 191.859 142.238 201.685 143.249 202.815 L 145.087 204.869 L 126.871 204.805 C 116.852 204.769 107.182 204.696 105.383 204.642 Z" transform="matrix(1, 0, 0, 1, -2.842170943040401e-14, 0)"/>
    <path fill="#ffffff" d="M 76.373 180.75 L 54.827 159.065 L 56.328 158.961 C 57.153 158.903 66.753 158.954 77.661 159.073 L 97.494 159.29 L 97.662 162.069 C 97.86 165.348 98.201 202.435 98.034 202.435 C 97.971 202.435 88.223 192.677 76.373 180.75 L 76.373 180.75 Z" transform="matrix(1, 0, 0, 1, -2.842170943040401e-14, 0)"/>
    <path fill="#ffffff" d="M 52.679 154.576 C 52.603 154.199 52.46 144.304 52.362 132.587 L 52.183 111.283 L 53.968 113.109 C 54.949 114.113 64.175 123.494 74.469 133.956 C 84.764 144.418 93.634 153.492 94.18 154.119 L 95.174 155.261 L 73.996 155.261 L 52.818 155.261 L 52.679 154.576 Z" transform="matrix(1, 0, 0, 1, -2.842170943040401e-14, 0)"/>
    <path fill="#ffffff" d="M 78.257 133.728 C 67.333 122.722 57.666 112.93 56.775 111.967 L 55.153 110.217 L 76.179 110.217 C 92.669 110.217 97.257 110.299 97.446 110.598 C 97.578 110.807 97.783 119.333 97.902 129.543 C 98.021 139.754 98.168 149.375 98.227 150.924 C 98.286 152.472 98.286 153.739 98.227 153.739 C 98.167 153.739 89.181 144.734 78.257 133.728 L 78.257 133.728 Z" transform="matrix(1, 0, 0, 1, -2.842170943040401e-14, 0)"/>
    <path fill="#ffffff" d="M 52.687 105.272 C 52.454 103.348 52.25 65.162 52.467 64.163 C 52.645 63.348 53.716 64.37 74.221 84.935 L 95.787 106.565 L 74.315 106.565 L 52.844 106.565 L 52.687 105.272 Z" transform="matrix(1, 0, 0, 1, -2.842170943040401e-14, 0)"/>
</svg>