<?xml version="1.0" encoding="utf-8"?>
<svg viewBox="0 0 500 500" xmlns="http://www.w3.org/2000/svg">
  <path fill="#2c8ebb" d="M 247.638 9.087 C 381.393 9.087 489.893 117.587 489.893 251.342 C 489.893 385.096 381.393 493.596 247.638 493.596 C 113.884 493.596 5.384 385.096 5.384 251.342 C 5.384 117.587 113.884 9.087 247.638 9.087 Z M 412.446 324.766 C 410.762 311.484 399.538 302.318 385.134 302.505 C 363.621 302.786 345.569 313.916 333.597 321.305 C 328.92 324.205 324.898 326.356 321.437 327.946 C 322.185 317.096 321.531 302.879 315.918 287.259 C 309.09 268.552 299.924 257.047 293.377 250.406 C 300.953 239.369 311.335 223.281 316.199 198.401 C 320.408 177.169 319.099 144.151 309.465 125.631 C 307.5 121.89 304.227 119.177 300.111 118.055 C 298.428 117.587 295.247 116.652 288.981 118.429 C 279.534 98.88 276.26 96.823 273.734 95.139 C 268.497 91.772 262.323 91.024 256.524 93.175 C 248.761 95.981 242.12 103.464 235.853 116.746 C 234.918 118.71 234.076 120.58 233.328 122.451 C 221.449 123.293 202.742 127.596 186.934 144.712 C 184.97 146.864 181.135 148.454 177.113 149.95 L 177.207 149.95 C 168.976 152.85 165.234 159.584 160.651 171.744 C 154.291 188.767 160.838 205.51 167.292 216.36 C 158.5 224.217 146.808 236.75 140.635 251.435 C 132.965 269.581 132.123 287.352 132.404 296.986 C 125.856 303.908 115.755 316.909 114.632 331.501 C 113.136 351.891 120.525 365.734 123.799 370.785 C 124.734 372.282 125.763 373.498 126.885 374.714 C 126.511 377.239 126.418 379.952 126.979 382.758 C 128.195 389.305 132.31 394.637 138.577 398.004 C 150.924 404.551 168.134 407.357 181.416 400.716 C 186.186 405.767 194.885 410.631 210.692 410.631 L 211.628 410.631 C 215.65 410.631 266.719 407.918 281.591 404.271 C 288.232 402.68 292.815 399.874 295.809 397.349 C 305.349 394.356 331.726 385.377 356.606 369.289 C 374.19 357.877 380.27 355.446 393.365 352.265 C 406.086 349.179 414.036 337.58 412.446 324.766 Z M 390.185 338.516 C 375.219 342.07 367.643 345.344 349.123 357.41 C 320.221 376.117 288.606 384.815 288.606 384.815 C 288.606 384.815 285.987 388.744 278.411 390.521 C 265.316 393.701 216.024 396.414 211.534 396.507 C 199.468 396.601 192.079 393.421 190.021 388.463 C 183.754 373.498 199 366.95 199 366.95 C 199 366.95 195.633 364.893 193.669 363.022 C 191.892 361.245 190.021 357.69 189.46 359 C 187.122 364.705 185.906 378.642 179.639 384.909 C 171.034 393.608 154.759 390.708 145.125 385.657 C 134.555 380.045 145.873 366.857 145.873 366.857 C 145.873 366.857 140.167 370.224 135.584 363.302 C 131.468 356.942 127.634 346.092 128.662 332.717 C 129.785 317.471 146.808 302.692 146.808 302.692 C 146.808 302.692 143.815 280.15 153.636 257.047 C 162.522 236.002 186.467 219.072 186.467 219.072 C 186.467 219.072 166.357 196.811 173.84 176.795 C 178.703 163.7 180.668 163.793 182.258 163.232 C 187.87 161.081 193.295 158.743 197.317 154.346 C 217.427 132.646 243.055 136.762 243.055 136.762 C 243.055 136.762 255.215 99.816 266.439 107.018 C 269.9 109.263 282.34 136.949 282.34 136.949 C 282.34 136.949 295.622 129.186 297.118 132.085 C 305.162 147.705 306.097 177.543 302.543 195.689 C 296.557 225.62 281.591 241.708 275.605 251.809 C 274.202 254.148 291.693 261.537 302.73 292.123 C 312.925 320.09 303.853 343.567 305.443 346.186 C 305.723 346.653 305.817 346.84 305.817 346.84 C 305.817 346.84 317.509 347.776 340.986 333.278 C 353.519 325.515 368.391 316.816 385.321 316.629 C 401.69 316.348 402.531 335.523 390.185 338.516 Z" style="" transform="matrix(1, 0, 0, 1, 0, -2.842170943040401e-14)"/>
</svg>